<?xml version="1.0" encoding="UTF-8" standalone="no"?>
<!DOCTYPE svg PUBLIC "-//W3C//DTD SVG 1.1//EN" "http://www.w3.org/Graphics/SVG/1.1/DTD/svg11.dtd">
<svg width="100%" height="100%" viewBox="0 0 273 287" version="1.1" xmlns="http://www.w3.org/2000/svg" xmlns:xlink="http://www.w3.org/1999/xlink" xml:space="preserve" style="fill-rule:evenodd;clip-rule:evenodd;stroke-linejoin:round;stroke-miterlimit:1.41421;">
    <g transform="matrix(1,0,0,1,-1526.09,-715.18)">
        <g transform="matrix(2.0448,0,0,2.0448,1798.52,858.316)">
            <g transform="matrix(1,0,0,1,-560,-70)">
                <g id="ac.-customers.-new">
                    <g id="Shape" transform="matrix(1,0,0,1,471,46)">
                        <path d="M17.948,9.441L28.291,33.985L21.514,33.985L18.42,26.167L10.848,26.167L17.948,9.441ZM12.227,-4.881L-4.017,-4.881L-4.017,33.987L12.227,-4.881ZM23.665,-4.881L39.9,-4.881L39.9,33.987L23.665,-4.881ZM37.565,49.524C37.578,48.091 37.157,47.086 36.352,47.086C35.434,47.086 35.043,48.431 35.016,49.524L37.565,49.524L37.565,49.524ZM35.006,51.318C35.036,53.164 36.007,53.765 37.211,53.765C37.975,53.765 38.63,53.596 39.113,53.414L39.455,55.24C38.782,55.53 37.743,55.712 36.746,55.712C34.022,55.712 32.535,53.85 32.535,50.672C32.535,47.26 34.26,45.211 36.514,45.211C38.691,45.211 39.897,47.022 39.897,49.978C39.897,50.654 39.869,51.036 39.824,51.333L35.006,51.318L35.006,51.318ZM26.435,51.956C26.435,52.21 26.482,52.449 26.536,52.608C26.791,53.462 27.222,53.672 27.568,53.672C28.55,53.672 28.946,52.428 28.946,50.438C28.946,48.628 28.527,47.38 27.557,47.38C27.075,47.38 26.67,47.903 26.53,48.464C26.482,48.641 26.436,48.916 26.436,49.106L26.436,51.956L26.435,51.956ZM23.897,41.143L26.435,41.143L26.435,46.46L26.476,46.46C26.976,45.675 27.642,45.227 28.608,45.227C30.522,45.227 31.483,47.403 31.483,50.247C31.483,53.841 30.049,55.765 28.192,55.765C27.307,55.765 26.717,55.373 26.186,54.378L26.132,54.378L25.991,55.6L23.812,55.6C23.849,54.754 23.897,53.595 23.897,52.681L23.897,41.143ZM18.714,53.819C19.683,53.819 19.923,51.993 19.923,50.481C19.923,49.044 19.683,47.172 18.672,47.172C17.6,47.172 17.375,49.045 17.375,50.482C17.375,52.216 17.658,53.819 18.692,53.819L18.714,53.819L18.714,53.819ZM18.666,55.765C16.327,55.765 14.86,53.888 14.86,50.526C14.86,46.858 16.743,45.227 18.725,45.227C21.032,45.227 22.479,47.197 22.479,50.467C22.479,54.669 20.213,55.765 18.686,55.765L18.666,55.765L18.666,55.765ZM10.891,49.31C10.891,49.122 10.891,48.903 10.853,48.702C10.755,48.007 10.385,47.38 9.79,47.38C8.769,47.38 8.393,48.851 8.393,50.571C8.393,52.547 8.929,53.672 9.755,53.672C10.132,53.672 10.567,53.478 10.803,52.649C10.861,52.484 10.89,52.263 10.89,52.004L10.89,49.31L10.891,49.31ZM13.428,41.143L13.428,52.681C13.428,53.595 13.475,54.72 13.512,55.6L11.32,55.6L11.177,54.426L11.125,54.426C10.757,55.15 9.956,55.765 8.998,55.765C6.899,55.765 5.858,53.449 5.858,50.524C5.858,46.96 7.41,45.227 9.102,45.227C9.987,45.227 10.56,45.66 10.848,46.287L10.891,46.287L10.891,41.143L13.428,41.143L13.428,41.143ZM1.882,50.228L1.368,47.178C1.221,46.298 1.033,44.924 0.89,43.972L0.834,43.972C0.684,44.931 0.474,46.345 0.319,47.185L-0.235,50.228L1.882,50.228L1.882,50.228ZM-0.512,52.216L-1.182,55.602L-3.654,55.602L-0.57,41.517L2.461,41.517L5.262,55.602L2.777,55.602L2.122,52.216L-0.512,52.216ZM45.319,-1.818L45.687,-1.818C46.141,-1.818 46.513,-1.968 46.513,-2.366C46.513,-2.666 46.293,-2.943 45.717,-2.943C45.536,-2.943 45.413,-2.943 45.319,-2.93L45.319,-1.818ZM45.319,0.115L44.702,0.115L44.702,-3.313C44.988,-3.354 45.276,-3.41 45.73,-3.41C46.278,-3.41 46.62,-3.298 46.84,-3.132C47.031,-2.982 47.141,-2.751 47.141,-2.42C47.141,-1.981 46.852,-1.695 46.485,-1.598L46.485,-1.572C46.784,-1.516 46.975,-1.243 47.044,-0.734C47.126,-0.199 47.194,0.004 47.25,0.116L46.62,0.116C46.538,0.004 46.468,-0.31 46.399,-0.76C46.332,-1.174 46.1,-1.338 45.674,-1.338L45.318,-1.338L45.318,0.116L45.319,0.115ZM45.88,-4.231C44.523,-4.231 43.426,-3.094 43.426,-1.667C43.426,-0.241 44.523,0.896 45.894,0.896C47.25,0.911 48.335,-0.241 48.335,-1.667C48.335,-3.094 47.251,-4.231 45.894,-4.231L45.881,-4.231L45.88,-4.231ZM45.893,-4.752C47.591,-4.752 48.948,-3.38 48.948,-1.681C48.948,0.047 47.591,1.417 45.88,1.417C45.058,1.42 44.268,1.095 43.687,0.513C43.105,-0.068 42.78,-0.858 42.783,-1.68C42.783,-3.38 44.168,-4.752 45.88,-4.752L45.893,-4.752L45.893,-4.752Z" style="fill:rgb(154,162,171);"/>
                    </g>
                </g>
            </g>
        </g>
    </g>
</svg>
