<?xml version="1.0" encoding="UTF-8" standalone="no"?>
<!DOCTYPE svg PUBLIC "-//W3C//DTD SVG 1.1//EN" "http://www.w3.org/Graphics/SVG/1.1/DTD/svg11.dtd">
<svg width="100%" height="100%" viewBox="0 0 274 287" version="1.1" xmlns="http://www.w3.org/2000/svg" xmlns:xlink="http://www.w3.org/1999/xlink" xml:space="preserve" style="fill-rule:evenodd;clip-rule:evenodd;">
    <g transform="matrix(1,0,0,1,-2002.73,-959.466)">
        <g transform="matrix(2.0448,0,0,2.0448,1716.8,1102.6)">
            <g transform="matrix(1,0,0,1,-560,-70)">
                <g id="ac.-customers.-new">
                    <g id="gov.-nasa" transform="matrix(1,0,0,1,734,43)">
                        <path id="Shape" d="M61.222,28.947C61.222,44.762 48.193,57.778 32.361,57.778C16.529,57.778 3.499,44.762 3.499,28.947C3.499,13.133 16.529,0.117 32.361,0.117C48.192,0.117 61.222,13.133 61.222,28.947" style="fill:none;stroke:rgb(154,162,171);stroke-width:1px;"/>
                        <path id="Shape1" d="M38.871,44.12C51.167,49.179 49.07,36.389 42.488,26.563C38.764,21.002 33.906,16.37 30.842,14.135C20.642,6.692 14.421,11.244 21.583,25.84C23.902,30.568 26.881,33.758 29.21,36.767C30.986,39.062 34.448,40.213 33.229,41.302C31.854,42.532 28.527,37.112 28.527,37.112C26.068,34.149 23.726,30.986 21.312,26.648C15.796,16.736 16.591,6.62 26.574,11.028C35.046,14.768 43.138,25.262 46.393,32.713C47.902,36.167 51.963,49.756 38.944,44.265" style="fill:rgb(154,162,171);fill-rule:nonzero;"/>
                        <path id="Shape2" d="M0.526,37.494C5.951,33.881 11.094,31.548 19.846,28.658C32.145,24.597 41.403,21.866 52.759,16.158C58.289,13.378 66.463,7.996 69.758,2.79C68.814,4.719 65.948,8.572 64.622,10.233C49.214,29.525 16.391,28.432 0.742,37.695" style="fill:rgb(154,162,171);fill-rule:nonzero;"/>
                        <path id="Shape3" d="M8.395,23.393C13.336,23.432 12.873,23.383 12.931,23.441C13.018,23.441 16.895,30.117 16.895,30.175C16.895,30.204 16.866,27.803 16.866,24.799C16.866,24.453 15.911,23.441 15.94,23.441C17.358,23.441 19.21,23.47 19.21,23.47C18.516,24.279 18.377,24.212 18.371,24.713C18.351,26.322 18.333,29.294 18.371,32.632C18.376,33.132 18.747,33.327 19.354,34.193L14.812,34.193C13.336,31.736 10.632,27.128 10.645,27.141C10.666,27.162 10.587,30.031 10.674,32.344C10.703,33.107 11.05,33.355 11.687,34.048C11.687,34.048 12.42,34.029 8.127,34.077C9.429,33.384 9.257,32.516 9.256,32.488C9.209,29.294 9.246,26.563 9.246,24.8C9.246,24.511 9.227,24.54 8.33,23.441" style="fill:rgb(154,162,171);fill-rule:nonzero;"/>
                        <path id="Shape4" d="M23.911,28.325C24.327,26.878 24.684,25.585 24.852,24.742C24.881,24.597 24.534,24.077 23.984,23.556L23.945,23.477C26.596,23.485 29.365,23.499 29.365,23.499C30.089,25.262 31.738,30.204 32.982,33.239C33.311,34.042 33.879,34.193 33.879,34.193C31.622,34.164 27.434,34.182 27.456,34.164C28.584,33.153 28.44,33.153 27.948,31.678L24.418,31.678C23.694,33.355 24.643,34.142 24.765,34.135C23.961,34.177 21.235,34.135 21.235,34.135C22.71,33.095 22.624,32.776 22.624,32.776C23.03,31.334 23.5,29.755 23.911,28.325L25.358,28.326C25.047,29.322 24.736,30.319 24.736,30.319L27.543,30.319L25.981,26.331C25.981,26.331 25.669,27.328 25.358,28.325L23.911,28.325" style="fill:rgb(154,162,171);fill-rule:nonzero;"/>
                        <path id="Shape5" d="M48.158,28.47C48.574,27.023 48.93,25.729 49.099,24.886C49.128,24.742 48.782,24.221 48.232,23.701L48.193,23.62C50.844,23.629 53.613,23.643 53.613,23.643C54.336,25.406 55.985,30.348 57.229,33.383C57.559,34.186 58.127,34.337 58.127,34.337C55.87,34.309 51.682,34.327 51.704,34.308C52.832,33.296 52.687,33.296 52.195,31.823L48.665,31.823C47.942,33.5 48.891,34.285 49.012,34.279C48.209,34.32 45.482,34.279 45.482,34.279C46.958,33.239 46.871,32.921 46.871,32.921C47.276,31.479 47.747,29.9 48.158,28.47L49.605,28.47C49.294,29.466 48.983,30.464 48.983,30.464L51.789,30.464L50.228,26.476C50.228,26.476 49.917,27.472 49.605,28.47L48.158,28.47" style="fill:rgb(154,162,171);fill-rule:nonzero;"/>
                        <path id="Shape6" d="M43.602,26.1C43.544,24.048 43.602,23.383 43.602,23.383C42.706,24.106 43.157,24.014 40.911,23.643C34.429,22.574 33.938,28.614 37.468,29.973C40.425,31.111 41.471,31.334 41.027,32.4C40.882,32.747 38.191,34.019 35.413,31.447L35.471,35.031C35.818,34.673 36.773,34.019 36.773,34.019C36.803,34.019 39.783,35.332 42.473,33.961C46.611,31.851 44.546,28.437 40.13,27.082C36.455,25.955 39.927,23.325 43.573,26.129" style="fill:rgb(154,162,171);fill-rule:nonzero;"/>
                        <path id="Shape7" d="M69.816,2.894C65.418,15.941 47.797,26.014 32.965,35.634C24.016,41.437 15.132,48.118 9.016,53.802C7.403,55.301 9.345,53.242 8.727,53.874C17.262,44.048 27.08,38.196 32.505,34.51C41.682,28.278 46.9,26.707 62.729,12.127" style="fill:rgb(154,162,171);fill-rule:nonzero;"/>
                        <path id="Shape8" d="M38.871,44.12C51.167,49.179 49.07,36.389 42.488,26.563C38.764,21.002 34.169,16.591 30.842,14.135C26.955,11.265 26.574,11.028 26.574,11.028C35.254,15.146 43.138,25.262 46.393,32.713C47.902,36.168 51.963,49.756 38.944,44.266" style="fill:rgb(154,162,171);fill-rule:nonzero;"/>
                        <path id="Shape9" d="M34.386,6.295C34.386,6.453 34.255,6.584 34.096,6.584C33.938,6.584 33.807,6.453 33.807,6.295C33.807,6.136 33.938,6.006 34.096,6.006C34.255,6.006 34.386,6.136 34.386,6.295" style="fill:rgb(154,162,171);fill-rule:nonzero;"/>
                        <path id="Shape10" d="M38.618,12.111C38.618,12.27 38.487,12.4 38.328,12.4C38.17,12.4 38.039,12.27 38.039,12.111C38.039,11.953 38.17,11.822 38.328,11.822C38.487,11.822 38.618,11.953 38.618,12.111" style="fill:rgb(154,162,171);fill-rule:nonzero;"/>
                        <path id="Shape11" d="M31.058,5.897C31.058,6.056 30.928,6.186 30.769,6.186C30.611,6.186 30.479,6.056 30.479,5.897C30.479,5.739 30.61,5.609 30.769,5.609C30.928,5.609 31.058,5.739 31.058,5.897" style="fill:rgb(154,162,171);fill-rule:nonzero;"/>
                        <path id="Shape12" d="M22.451,40.435C22.451,40.594 22.32,40.725 22.161,40.725C22.003,40.725 21.872,40.594 21.872,40.435C21.872,40.277 22.003,40.146 22.161,40.146C22.32,40.146 22.451,40.277 22.451,40.435" style="fill:rgb(154,162,171);fill-rule:nonzero;"/>
                        <path id="Shape13" d="M15.615,44.374C15.615,44.532 15.484,44.663 15.326,44.663C15.167,44.663 15.036,44.532 15.036,44.374C15.036,44.215 15.167,44.085 15.326,44.085C15.484,44.085 15.615,44.215 15.615,44.374" style="fill:rgb(154,162,171);fill-rule:nonzero;"/>
                        <path id="Shape14" d="M14.856,41.844C14.856,42.003 14.724,42.133 14.566,42.133C14.408,42.133 14.277,42.003 14.277,41.844C14.277,41.686 14.408,41.555 14.566,41.555C14.724,41.555 14.856,41.687 14.856,41.844" style="fill:rgb(154,162,171);fill-rule:nonzero;"/>
                        <path id="Shape15" d="M24.295,44.482C24.295,44.641 24.165,44.771 24.006,44.771C23.847,44.771 23.717,44.641 23.717,44.482C23.717,44.324 23.847,44.193 24.006,44.193C24.165,44.193 24.295,44.324 24.295,44.482" style="fill:rgb(154,162,171);fill-rule:nonzero;"/>
                        <path id="Shape16" d="M47.371,38.34C47.371,38.499 47.24,38.629 47.081,38.629C46.923,38.629 46.791,38.499 46.791,38.34C46.791,38.182 46.922,38.05 47.081,38.05C47.24,38.05 47.371,38.182 47.371,38.34" style="fill:rgb(154,162,171);fill-rule:nonzero;"/>
                        <path id="Shape17" d="M47.335,40.363C47.335,40.522 47.203,40.653 47.045,40.653C46.887,40.653 46.755,40.522 46.755,40.363C46.755,40.205 46.886,40.075 47.045,40.075C47.203,40.074 47.335,40.205 47.335,40.363" style="fill:rgb(154,162,171);fill-rule:nonzero;"/>
                        <path id="Shape18" d="M51.529,38.196C51.529,38.354 51.399,38.485 51.24,38.485C51.082,38.485 50.95,38.354 50.95,38.196C50.95,38.037 51.081,37.907 51.24,37.907C51.399,37.907 51.529,38.037 51.529,38.196" style="fill:rgb(154,162,171);fill-rule:nonzero;"/>
                        <path id="Shape19" d="M55.581,39.894C55.581,40.053 55.45,40.182 55.291,40.182C55.132,40.182 55.002,40.053 55.002,39.894C55.002,39.736 55.132,39.605 55.291,39.605C55.45,39.605 55.581,39.735 55.581,39.894" style="fill:rgb(154,162,171);fill-rule:nonzero;"/>
                        <path id="Shape20" d="M54.686,37.943C54.686,38.141 54.522,38.304 54.324,38.304C54.125,38.304 53.962,38.141 53.962,37.943C53.962,37.745 54.125,37.582 54.324,37.582C54.523,37.582 54.686,37.745 54.686,37.943" style="fill:rgb(154,162,171);fill-rule:nonzero;"/>
                        <path id="Shape21" d="M54.324,36.84L54.215,37.834L53.23,37.943L54.225,38.05L54.333,39.081L54.441,38.05L55.418,37.925L54.432,37.834L54.324,36.84" style="fill:rgb(154,162,171);fill-rule:nonzero;"/>
                        <path id="Shape22" d="M52.154,44.229C52.154,44.427 51.99,44.59 51.792,44.59C51.594,44.59 51.43,44.427 51.43,44.229C51.43,44.03 51.594,43.867 51.792,43.867C51.99,43.867 52.154,44.03 52.154,44.229" style="fill:rgb(154,162,171);fill-rule:nonzero;"/>
                        <path id="Shape23" d="M51.791,43.127L51.684,44.12L50.698,44.229L51.692,44.338L51.8,45.367L51.91,44.338L52.886,44.211L51.9,44.12L51.791,43.127" style="fill:rgb(154,162,171);fill-rule:nonzero;"/>
                        <path id="Shape24" d="M25.173,14.387C25.173,14.586 25.009,14.749 24.81,14.749C24.612,14.749 24.449,14.585 24.449,14.387C24.449,14.189 24.612,14.026 24.81,14.026C25.009,14.026 25.173,14.189 25.173,14.387" style="fill:rgb(154,162,171);fill-rule:nonzero;"/>
                        <path id="Shape25" d="M24.81,13.286L24.702,14.279L23.717,14.387L24.711,14.496L24.819,15.525L24.928,14.496L25.905,14.369L24.919,14.279L24.81,13.286" style="fill:rgb(154,162,171);fill-rule:nonzero;"/>
                        <path id="Shape26" d="M38.627,5.645C38.627,5.843 38.463,6.006 38.265,6.006C38.067,6.006 37.903,5.843 37.903,5.645C37.903,5.447 38.067,5.283 38.265,5.283C38.463,5.283 38.627,5.447 38.627,5.645" style="fill:rgb(154,162,171);fill-rule:nonzero;"/>
                        <path id="Shape27" d="M38.265,4.543L38.157,5.536L37.171,5.645L38.165,5.753L38.275,6.783L38.383,5.753L39.36,5.626L38.374,5.536L38.265,4.543" style="fill:rgb(154,162,171);fill-rule:nonzero;"/>
                        <path id="Shape28" d="M22.279,50.01C22.279,50.208 22.116,50.371 21.917,50.371C21.719,50.371 21.556,50.208 21.556,50.01C21.556,49.811 21.719,49.648 21.917,49.648C22.116,49.648 22.279,49.811 22.279,50.01" style="fill:rgb(154,162,171);fill-rule:nonzero;"/>
                        <path id="Shape29" d="M21.917,48.908L21.809,49.901L20.823,50.01L21.818,50.118L21.926,51.148L22.035,50.118L23.012,49.992L22.026,49.901L21.917,48.908" style="fill:rgb(154,162,171);fill-rule:nonzero;"/>
                        <path id="Shape30" d="M4.195,35.218C2.615,35.991 1.201,36.754 0,37.5L0.73,37.765C1.78,37.119 3.041,36.444 4.369,35.85" style="fill:rgb(154,162,171);fill-rule:nonzero;"/>
                        <path id="Shape31" d="M12.534,49.817C11.091,51.077 9.598,52.422 8.101,53.832L8.035,54.828C9.406,53.416 11.089,51.892 13.032,50.274" style="fill:rgb(154,162,171);fill-rule:nonzero;"/>
                    </g>
                </g>
            </g>
        </g>
    </g>
</svg>
