<?xml version="1.0" encoding="UTF-8" standalone="no"?>
<!DOCTYPE svg PUBLIC "-//W3C//DTD SVG 1.1//EN" "http://www.w3.org/Graphics/SVG/1.1/DTD/svg11.dtd">
<svg width="100%" height="100%" viewBox="0 0 283 287" version="1.1" xmlns="http://www.w3.org/2000/svg" xmlns:xlink="http://www.w3.org/1999/xlink" xml:space="preserve" style="fill-rule:evenodd;clip-rule:evenodd;stroke-linejoin:round;stroke-miterlimit:1.41421;">
    <g transform="matrix(1,0,0,1,-1230.31,-206.702)">
        <g transform="matrix(2.0448,0,0,2.0448,367.601,349.839)">
            <g transform="matrix(1,0,0,1,-560,-70)">
                <g id="ac.-customers.-new">
                    <g id="Shape" transform="matrix(1,0,0,1,1013.53,54.962)">
                        <path d="M11.513,1.445C5.75,8.212 0.225,16.604 0.17,22.877C0.148,25.237 0.902,27.298 2.709,28.858C5.31,31.106 8.176,31.899 11.028,31.903C15.195,31.909 19.334,30.228 22.574,28.931C28.031,26.749 88.353,0.553 88.353,0.553C88.935,0.262 88.826,-0.101 88.098,0.08C87.804,0.153 22.428,17.87 22.428,17.87C21.165,18.224 19.877,18.408 18.623,18.415C13.598,18.445 9.128,15.656 9.164,9.779C9.178,7.48 9.882,4.706 11.513,1.445Z" style="fill:rgb(154,162,171);"/>
                    </g>
                </g>
            </g>
        </g>
    </g>
</svg>
