<?xml version="1.0" encoding="UTF-8"?>
<svg width="180px" height="100px" viewBox="0 0 180 100" version="1.1" xmlns="http://www.w3.org/2000/svg" xmlns:xlink="http://www.w3.org/1999/xlink">
    <!-- Generator: Sketch 46.2 (44496) - http://www.bohemiancoding.com/sketch -->
    <title>selfhosted-plan</title>
    <desc>Created with Sketch.</desc>
    <defs></defs>
    <g id="Page-1" stroke="none" stroke-width="1" fill="none" fill-rule="evenodd">
        <g id="selfhosted-plan">
            <g id="cloud-plan" transform="translate(29.000000, 22.000000)">
                <g id="Group" transform="translate(0.000000, 20.000000)" stroke="#736276">
                    <path d="M7,15 L22.0332964,15" id="Path-24-Copy"></path>
                    <path d="M0.5,7 L22.0332964,7" id="Path-24-Copy-2"></path>
                    <path d="M7,0 L22.0332964,0" id="Path-24"></path>
                </g>
                <g id="Group-Copy" transform="translate(111.500000, 28.000000) scale(-1, 1) translate(-111.500000, -28.000000) translate(100.000000, 20.000000)" stroke="#736276">
                    <path d="M7,15 L22.0332964,15" id="Path-24-Copy"></path>
                    <path d="M0.5,7 L22.0332964,7" id="Path-24-Copy-2"></path>
                    <path d="M7,0 L22.0332964,0" id="Path-24"></path>
                </g>
                <g id="Rectangle-92-Copy" transform="translate(34.000000, 0.000000)">
                    <g id="path-1-link" fill="#E5CFFA">
                        <path d="M7,0 L49,0 C52.865993,0 56,3.1340068 56,7 L56,49 C56,52.8659932 52.865993,56 49,56 L7,56 C3.1340068,56 0,52.8659932 0,49 L0,7 C0,3.1340068 3.1340068,0 7,0 Z" id="path-1"></path>
                    </g>
                    <path d="M7,0.5 C3.4101491,0.5 0.5,3.4101491 0.5,7 L0.5,49 C0.5,52.5898509 3.4101491,55.5 7,55.5 L49,55.5 C52.589851,55.5 55.5,52.5898509 55.5,49 L55.5,7 C55.5,3.4101491 52.589851,0.5 49,0.5 L7,0.5 Z" id="Shape" stroke="#736276"></path>
                </g>
                <g id="Rectangle-92" transform="translate(38.000000, 4.000000)">
                    <g id="path-2-link" fill="#EEE1FA">
                        <path d="M5,0 L43,0 C45.761424,0 48,2.2385763 48,5 L48,43 C48,45.7614237 45.761424,48 43,48 L5,48 C2.2385763,48 0,45.7614237 0,43 L0,5 C0,2.2385763 2.2385763,0 5,0 Z" id="path-2"></path>
                    </g>
                    <path d="M5,0.5 C2.5147186,0.5 0.5,2.5147186 0.5,5 L0.5,43 C0.5,45.4852814 2.5147186,47.5 5,47.5 L43,47.5 C45.485281,47.5 47.5,45.4852814 47.5,43 L47.5,5 C47.5,2.5147186 45.485281,0.5 43,0.5 L5,0.5 Z" id="Shape" stroke="#736276"></path>
                </g>
                <rect id="Rectangle" stroke="#736276" x="57.5" y="17.5" width="9" height="13" rx="4.5"></rect>
                <g id="Rectangle-93" transform="translate(54.000000, 26.000000)">
                    <g id="path-3-link" fill="#FFFFFF">
                        <rect id="path-3" x="0" y="0" width="16" height="11"></rect>
                    </g>
                    <rect id="Rectangle-path" stroke="#736276" x="0.5" y="0.5" width="15" height="10"></rect>
                </g>
                <path d="M59,32 L65,32" id="Line" stroke="#736276" stroke-linecap="square"></path>
            </g>
        </g>
    </g>
</svg>