<?xml version="1.0" encoding="UTF-8" standalone="no"?>
<!DOCTYPE svg PUBLIC "-//W3C//DTD SVG 1.1//EN" "http://www.w3.org/Graphics/SVG/1.1/DTD/svg11.dtd">
<svg width="100%" height="100%" viewBox="0 0 189 189" version="1.1" xmlns="http://www.w3.org/2000/svg" xmlns:xlink="http://www.w3.org/1999/xlink" xml:space="preserve" style="fill-rule:evenodd;clip-rule:evenodd;stroke-linecap:square;stroke-linejoin:round;stroke-miterlimit:1.5;">
    <g transform="matrix(1,0,0,1,-1173.44,-731.939)">
        <g>
            <g transform="matrix(1,0,0,1,-139.352,-486.349)">
                <path d="M1451.77,1241.43C1443.96,1240.44 1442.14,1252.78 1451.67,1252.72" style="fill:none;stroke:rgb(24,24,24);stroke-width:1.04px;"/>
            </g>
            <g transform="matrix(0.967269,0,0,0.954522,-93.8314,-429.457)">
                <path d="M1450.79,1233.45L1450.97,1233.45L1451.15,1233.46L1451.33,1233.47L1451.51,1233.48L1451.68,1233.49L1451.86,1233.51L1452.04,1233.53L1452.21,1233.55L1452.39,1233.57L1452.56,1233.59L1452.74,1233.62L1452.91,1233.65L1453.08,1233.68L1453.25,1233.71L1453.42,1233.75L1453.59,1233.79L1453.76,1233.83L1453.93,1233.87L1454.1,1233.91L1454.26,1233.96L1454.43,1234.01L1454.59,1234.06L1454.76,1234.11L1454.92,1234.16L1455.08,1234.22L1455.25,1234.28L1455.41,1234.34L1455.57,1234.4L1455.72,1234.47L1455.88,1234.53L1456.04,1234.6L1456.19,1234.67L1456.35,1234.75L1456.5,1234.82L1456.66,1234.89L1456.81,1234.97L1456.96,1235.05L1457.11,1235.13L1457.26,1235.22L1457.4,1235.3L1457.55,1235.39L1457.7,1235.48L1457.84,1235.57L1457.98,1235.66L1458.12,1235.76L1458.27,1235.85L1458.4,1235.95L1458.54,1236.05L1458.68,1236.15L1458.82,1236.25L1458.95,1236.36L1459.08,1236.46L1459.21,1236.57L1459.35,1236.68L1459.47,1236.79L1459.6,1236.9L1459.73,1237.02L1459.85,1237.13L1459.98,1237.25L1460.1,1237.37L1460.22,1237.49L1460.34,1237.61L1460.46,1237.73L1460.58,1237.86L1460.69,1237.98L1460.81,1238.11L1460.92,1238.24L1461.03,1238.37L1461.14,1238.5L1461.25,1238.63L1461.36,1238.77L1461.46,1238.9L1461.57,1239.04L1461.67,1239.18L1461.77,1239.32L1461.87,1239.46L1461.96,1239.6L1462.06,1239.75L1462.15,1239.89L1462.25,1240.04L1462.34,1240.18L1462.43,1240.33L1462.52,1240.48L1462.6,1240.63L1462.69,1240.79L1462.77,1240.94L1462.85,1241.09L1462.93,1241.25L1463.01,1241.4L1463.08,1241.56L1463.16,1241.72L1463.23,1241.88L1463.3,1242.04L1463.37,1242.2L1463.43,1242.37L1463.5,1242.53L1463.56,1242.69L1463.62,1242.86L1463.68,1243.03L1463.74,1243.19L1463.8,1243.36L1463.85,1243.53L1463.9,1243.7L1463.95,1243.87L1464,1244.05L1464.04,1244.22L1464.09,1244.39L1464.13,1244.57L1464.17,1244.74L1464.21,1244.92L1464.24,1245.1L1464.28,1245.27L1464.31,1245.45L1464.34,1245.63L1464.36,1245.81L1464.39,1245.99L1464.41,1246.17L1464.43,1246.36L1464.45,1246.54L1464.47,1246.72L1464.48,1246.91L1464.5,1247.09L1464.51,1247.28L1464.51,1247.46L1464.52,1247.65L1464.52,1247.84L1464.52,1248.02L1464.52,1248.21L1464.52,1248.4L1464.51,1248.58L1464.51,1248.77L1464.5,1248.95L1464.48,1249.14L1464.47,1249.32L1464.45,1249.51L1464.43,1249.69L1464.41,1249.87L1464.39,1250.05L1464.36,1250.23L1464.34,1250.41L1464.31,1250.59L1464.28,1250.77L1464.24,1250.95L1464.21,1251.13L1464.17,1251.3L1464.13,1251.48L1464.09,1251.65L1464.04,1251.83L1464,1252L1463.95,1252.17L1463.9,1252.34L1463.85,1252.51L1463.8,1252.68L1463.74,1252.85L1463.68,1253.02L1463.62,1253.19L1463.56,1253.35L1463.5,1253.52L1463.43,1253.68L1463.37,1253.84L1463.3,1254.01L1463.23,1254.17L1463.16,1254.33L1463.08,1254.48L1463.01,1254.64L1462.93,1254.8L1462.85,1254.95L1462.77,1255.11L1462.69,1255.26L1462.6,1255.41L1462.52,1255.56L1462.43,1255.71L1462.34,1255.86L1462.25,1256.01L1462.15,1256.15L1462.06,1256.3L1461.96,1256.44L1461.87,1256.58L1461.77,1256.73L1461.67,1256.87L1461.57,1257L1461.46,1257.14L1461.36,1257.28L1461.25,1257.41L1461.14,1257.54L1461.03,1257.67L1460.92,1257.81L1460.81,1257.93L1460.69,1258.06L1460.58,1258.19L1460.46,1258.31L1460.34,1258.43L1460.22,1258.56L1460.1,1258.68L1459.98,1258.79L1459.85,1258.91L1459.73,1259.03L1459.6,1259.14L1459.47,1259.25L1459.35,1259.36L1459.21,1259.47L1459.08,1259.58L1458.95,1259.69L1458.82,1259.79L1458.68,1259.89L1458.54,1260L1458.4,1260.09L1458.27,1260.19L1458.12,1260.29L1457.98,1260.38L1457.84,1260.47L1457.7,1260.57L1457.55,1260.65L1457.4,1260.74L1457.26,1260.83L1457.11,1260.91L1456.96,1260.99L1456.81,1261.07L1456.66,1261.15L1456.5,1261.23L1456.35,1261.3L1456.19,1261.37L1456.04,1261.44L1455.88,1261.51L1455.73,1261.58L1455.57,1261.64L1455.41,1261.71L1455.25,1261.77L1455.08,1261.83L1454.92,1261.88L1454.76,1261.94L1454.59,1261.99L1454.43,1262.04L1454.26,1262.09L1454.1,1262.13L1453.93,1262.18L1453.76,1262.22L1453.59,1262.26L1453.42,1262.3L1453.25,1262.33L1453.08,1262.37L1452.91,1262.4L1452.74,1262.43L1452.56,1262.45L1452.39,1262.48L1452.21,1262.5L1452.04,1262.52L1451.86,1262.54L1451.68,1262.55L1451.51,1262.57L1451.33,1262.58L1451.15,1262.59L1450.97,1262.59L1450.79,1262.59L1450.61,1262.6L1450.43,1262.59L1450.25,1262.59L1450.08,1262.59L1449.9,1262.58L1449.72,1262.57L1449.54,1262.55L1449.37,1262.54L1449.19,1262.52L1449.01,1262.5L1448.84,1262.48L1448.66,1262.45L1448.49,1262.43L1448.32,1262.4L1448.15,1262.37L1447.98,1262.33L1447.81,1262.3L1447.63,1262.26L1447.47,1262.22L1447.3,1262.18L1447.13,1262.13L1446.96,1262.09L1446.8,1262.04L1446.63,1261.99L1446.47,1261.94L1446.31,1261.88L1446.14,1261.83L1445.98,1261.77L1445.82,1261.71L1445.66,1261.64L1445.5,1261.58L1445.34,1261.51L1445.19,1261.44L1445.03,1261.37L1444.88,1261.3L1444.72,1261.23L1444.57,1261.15L1444.42,1261.07L1444.27,1260.99L1444.12,1260.91L1443.97,1260.83L1443.82,1260.74L1443.68,1260.65L1443.53,1260.57L1443.39,1260.47L1443.24,1260.38L1443.1,1260.29L1442.96,1260.19L1442.82,1260.09L1442.68,1260L1442.55,1259.89L1442.41,1259.79L1442.28,1259.69L1442.14,1259.58L1442.01,1259.47L1441.88,1259.36L1441.75,1259.25L1441.62,1259.14L1441.5,1259.03L1441.37,1258.91L1441.25,1258.79L1441.13,1258.68L1441.01,1258.56L1440.88,1258.43L1440.77,1258.31L1440.65,1258.19L1440.53,1258.06L1440.42,1257.93L1440.31,1257.81L1440.19,1257.67L1440.09,1257.54L1439.98,1257.41L1439.87,1257.28L1439.77,1257.14L1439.66,1257L1439.56,1256.87L1439.46,1256.73L1439.36,1256.59L1439.26,1256.44L1439.17,1256.3L1439.07,1256.15L1438.98,1256.01L1438.89,1255.86L1438.8,1255.71L1438.71,1255.56L1438.62,1255.41L1438.54,1255.26L1438.46,1255.11L1438.38,1254.95L1438.3,1254.8L1438.22,1254.64L1438.14,1254.48L1438.07,1254.33L1438,1254.17L1437.93,1254.01L1437.86,1253.84L1437.79,1253.68L1437.73,1253.52L1437.66,1253.35L1437.6,1253.19L1437.55,1253.02L1437.49,1252.85L1437.43,1252.68L1437.38,1252.51L1437.33,1252.34L1437.28,1252.17L1437.23,1252L1437.18,1251.83L1437.14,1251.65L1437.1,1251.48L1437.06,1251.3L1437.02,1251.13L1436.99,1250.95L1436.95,1250.77L1436.92,1250.59L1436.89,1250.41L1436.86,1250.23L1436.84,1250.05L1436.82,1249.87L1436.79,1249.69L1436.78,1249.51L1436.76,1249.32L1436.74,1249.14L1436.73,1248.95L1436.72,1248.77L1436.71,1248.58L1436.71,1248.4L1436.7,1248.21L1436.7,1248.02L1436.7,1247.84L1436.71,1247.65L1436.71,1247.46L1436.72,1247.28L1436.73,1247.09L1436.74,1246.91L1436.76,1246.72L1436.78,1246.54L1436.79,1246.36L1436.82,1246.17L1436.84,1245.99L1436.86,1245.81L1436.89,1245.63L1436.92,1245.45L1436.95,1245.27L1436.99,1245.1L1437.02,1244.92L1437.06,1244.74L1437.1,1244.57L1437.14,1244.39L1437.18,1244.22L1437.23,1244.05L1437.28,1243.87L1437.33,1243.7L1437.38,1243.53L1437.43,1243.36L1437.49,1243.19L1437.55,1243.03L1437.6,1242.86L1437.66,1242.69L1437.73,1242.53L1437.79,1242.37L1437.86,1242.2L1437.93,1242.04L1438,1241.88L1438.07,1241.72L1438.14,1241.56L1438.22,1241.4L1438.3,1241.25L1438.38,1241.09L1438.46,1240.94L1438.54,1240.79L1438.62,1240.63L1438.71,1240.48L1438.8,1240.33L1438.89,1240.18L1438.98,1240.04L1439.07,1239.89L1439.17,1239.75L1439.26,1239.6L1439.36,1239.46L1439.46,1239.32L1439.56,1239.18L1439.66,1239.04L1439.77,1238.9L1439.87,1238.77L1439.98,1238.63L1440.09,1238.5L1440.19,1238.37L1440.31,1238.24L1440.42,1238.11L1440.53,1237.98L1440.65,1237.86L1440.77,1237.73L1440.88,1237.61L1441.01,1237.49L1441.13,1237.37L1441.25,1237.25L1441.37,1237.13L1441.5,1237.02L1441.62,1236.9L1441.75,1236.79L1441.88,1236.68L1442.01,1236.57L1442.14,1236.46L1442.28,1236.36L1442.41,1236.25L1442.55,1236.15L1442.68,1236.05L1442.82,1235.95L1442.96,1235.85L1443.1,1235.76L1443.24,1235.66L1443.39,1235.57L1443.53,1235.48L1443.68,1235.39L1443.82,1235.3L1443.97,1235.22L1444.12,1235.13L1444.27,1235.05L1444.42,1234.97L1444.57,1234.89L1444.72,1234.82L1444.88,1234.75L1445.03,1234.67L1445.19,1234.6L1445.35,1234.53L1445.5,1234.47L1445.66,1234.4L1445.82,1234.34L1445.98,1234.28L1446.14,1234.22L1446.31,1234.16L1446.47,1234.11L1446.63,1234.06L1446.8,1234.01L1446.96,1233.96L1447.13,1233.91L1447.3,1233.87L1447.47,1233.83L1447.63,1233.79L1447.81,1233.75L1447.98,1233.71L1448.15,1233.68L1448.32,1233.65L1448.49,1233.62L1448.66,1233.59L1448.84,1233.57L1449.01,1233.55L1449.19,1233.53L1449.37,1233.51L1449.54,1233.49L1449.72,1233.48L1449.9,1233.47L1450.08,1233.46L1450.25,1233.45L1450.43,1233.45L1450.61,1233.45L1450.79,1233.45ZM1450.45,1234.54L1450.28,1234.55L1450.12,1234.55L1449.95,1234.56L1449.79,1234.57L1449.63,1234.58L1449.46,1234.6L1449.3,1234.61L1449.14,1234.63L1448.98,1234.65L1448.82,1234.67L1448.66,1234.7L1448.5,1234.72L1448.34,1234.75L1448.19,1234.78L1448.03,1234.82L1447.87,1234.85L1447.72,1234.89L1447.56,1234.92L1447.41,1234.97L1447.26,1235.01L1447.1,1235.05L1446.95,1235.1L1446.8,1235.15L1446.65,1235.2L1446.5,1235.25L1446.35,1235.3L1446.2,1235.36L1446.06,1235.42L1445.91,1235.48L1445.77,1235.54L1445.62,1235.6L1445.48,1235.67L1445.33,1235.73L1445.19,1235.8L1445.05,1235.87L1444.91,1235.94L1444.77,1236.02L1444.64,1236.09L1444.5,1236.17L1444.36,1236.25L1444.23,1236.33L1444.09,1236.41L1443.96,1236.49L1443.83,1236.58L1443.7,1236.67L1443.57,1236.76L1443.44,1236.85L1443.31,1236.94L1443.19,1237.03L1443.06,1237.12L1442.94,1237.22L1442.82,1237.32L1442.69,1237.42L1442.57,1237.52L1442.45,1237.62L1442.34,1237.73L1442.22,1237.83L1442.1,1237.94L1441.99,1238.05L1441.87,1238.15L1441.76,1238.27L1441.65,1238.38L1441.54,1238.49L1441.43,1238.61L1441.33,1238.72L1441.22,1238.84L1441.12,1238.96L1441.01,1239.08L1440.91,1239.2L1440.81,1239.33L1440.71,1239.45L1440.62,1239.58L1440.52,1239.7L1440.42,1239.83L1440.33,1239.96L1440.24,1240.09L1440.15,1240.22L1440.06,1240.35L1439.97,1240.49L1439.89,1240.62L1439.8,1240.76L1439.72,1240.9L1439.64,1241.03L1439.56,1241.17L1439.48,1241.31L1439.41,1241.46L1439.33,1241.6L1439.26,1241.74L1439.19,1241.89L1439.12,1242.03L1439.05,1242.18L1438.98,1242.33L1438.91,1242.48L1438.85,1242.63L1438.79,1242.78L1438.73,1242.93L1438.67,1243.08L1438.62,1243.24L1438.56,1243.39L1438.51,1243.55L1438.46,1243.7L1438.41,1243.86L1438.36,1244.02L1438.31,1244.17L1438.27,1244.33L1438.23,1244.49L1438.18,1244.65L1438.15,1244.82L1438.11,1244.98L1438.08,1245.14L1438.04,1245.31L1438.01,1245.47L1437.98,1245.64L1437.95,1245.8L1437.93,1245.97L1437.91,1246.14L1437.88,1246.31L1437.87,1246.48L1437.85,1246.64L1437.83,1246.82L1437.82,1246.99L1437.81,1247.16L1437.8,1247.33L1437.79,1247.5L1437.79,1247.67L1437.78,1247.85L1437.78,1248.02L1437.78,1248.2L1437.79,1248.37L1437.79,1248.54L1437.8,1248.72L1437.81,1248.89L1437.82,1249.06L1437.83,1249.23L1437.85,1249.4L1437.87,1249.57L1437.88,1249.74L1437.91,1249.91L1437.93,1250.08L1437.95,1250.24L1437.98,1250.41L1438.01,1250.57L1438.04,1250.74L1438.08,1250.9L1438.11,1251.07L1438.15,1251.23L1438.18,1251.39L1438.23,1251.55L1438.27,1251.71L1438.31,1251.87L1438.36,1252.03L1438.41,1252.19L1438.46,1252.35L1438.51,1252.5L1438.56,1252.66L1438.62,1252.81L1438.67,1252.96L1438.73,1253.12L1438.79,1253.27L1438.85,1253.42L1438.91,1253.57L1438.98,1253.72L1439.05,1253.87L1439.12,1254.01L1439.19,1254.16L1439.26,1254.3L1439.33,1254.45L1439.41,1254.59L1439.48,1254.73L1439.56,1254.87L1439.64,1255.01L1439.72,1255.15L1439.8,1255.29L1439.89,1255.42L1439.97,1255.56L1440.06,1255.69L1440.15,1255.83L1440.24,1255.96L1440.33,1256.09L1440.42,1256.22L1440.52,1256.34L1440.62,1256.47L1440.71,1256.6L1440.81,1256.72L1440.91,1256.84L1441.01,1256.96L1441.12,1257.09L1441.22,1257.2L1441.33,1257.32L1441.43,1257.44L1441.54,1257.55L1441.65,1257.67L1441.76,1257.78L1441.87,1257.89L1441.99,1258L1442.1,1258.11L1442.22,1258.21L1442.34,1258.32L1442.45,1258.42L1442.57,1258.53L1442.69,1258.63L1442.82,1258.73L1442.94,1258.82L1443.06,1258.92L1443.19,1259.02L1443.31,1259.11L1443.44,1259.2L1443.57,1259.29L1443.7,1259.38L1443.83,1259.47L1443.96,1259.55L1444.09,1259.63L1444.23,1259.72L1444.36,1259.8L1444.5,1259.88L1444.64,1259.95L1444.77,1260.03L1444.91,1260.1L1445.05,1260.17L1445.19,1260.24L1445.33,1260.31L1445.48,1260.38L1445.62,1260.44L1445.77,1260.51L1445.91,1260.57L1446.06,1260.63L1446.2,1260.68L1446.35,1260.74L1446.5,1260.8L1446.65,1260.85L1446.8,1260.9L1446.95,1260.95L1447.1,1260.99L1447.26,1261.04L1447.41,1261.08L1447.56,1261.12L1447.72,1261.16L1447.87,1261.19L1448.03,1261.23L1448.19,1261.26L1448.34,1261.29L1448.5,1261.32L1448.66,1261.35L1448.82,1261.37L1448.98,1261.4L1449.14,1261.42L1449.3,1261.43L1449.46,1261.45L1449.63,1261.46L1449.79,1261.48L1449.95,1261.49L1450.12,1261.49L1450.28,1261.5L1450.45,1261.5L1450.61,1261.5L1450.78,1261.5L1450.94,1261.5L1451.11,1261.49L1451.27,1261.49L1451.44,1261.48L1451.6,1261.46L1451.76,1261.45L1451.92,1261.43L1452.09,1261.42L1452.25,1261.4L1452.41,1261.37L1452.57,1261.35L1452.73,1261.32L1452.88,1261.29L1453.04,1261.26L1453.2,1261.23L1453.36,1261.19L1453.51,1261.16L1453.66,1261.12L1453.82,1261.08L1453.97,1261.04L1454.12,1260.99L1454.28,1260.95L1454.43,1260.9L1454.58,1260.85L1454.73,1260.8L1454.88,1260.74L1455.02,1260.68L1455.17,1260.63L1455.32,1260.57L1455.46,1260.51L1455.61,1260.44L1455.75,1260.38L1455.89,1260.31L1456.03,1260.24L1456.17,1260.17L1456.32,1260.1L1456.45,1260.03L1456.59,1259.95L1456.73,1259.88L1456.86,1259.8L1457,1259.72L1457.13,1259.63L1457.27,1259.55L1457.4,1259.47L1457.53,1259.38L1457.66,1259.29L1457.79,1259.2L1457.91,1259.11L1458.04,1259.02L1458.16,1258.92L1458.29,1258.82L1458.41,1258.73L1458.53,1258.63L1458.65,1258.53L1458.77,1258.42L1458.89,1258.32L1459.01,1258.21L1459.12,1258.11L1459.24,1258L1459.35,1257.89L1459.46,1257.78L1459.58,1257.67L1459.69,1257.55L1459.79,1257.44L1459.9,1257.32L1460.01,1257.2L1460.11,1257.09L1460.21,1256.96L1460.32,1256.84L1460.41,1256.72L1460.51,1256.6L1460.61,1256.47L1460.71,1256.34L1460.8,1256.22L1460.89,1256.09L1460.99,1255.96L1461.08,1255.83L1461.17,1255.69L1461.25,1255.56L1461.34,1255.42L1461.42,1255.29L1461.51,1255.15L1461.59,1255.01L1461.67,1254.87L1461.75,1254.73L1461.82,1254.59L1461.9,1254.45L1461.97,1254.3L1462.04,1254.16L1462.11,1254.01L1462.18,1253.87L1462.25,1253.72L1462.31,1253.57L1462.38,1253.42L1462.44,1253.27L1462.5,1253.12L1462.56,1252.96L1462.61,1252.81L1462.67,1252.66L1462.72,1252.5L1462.77,1252.35L1462.82,1252.19L1462.87,1252.03L1462.91,1251.87L1462.96,1251.71L1463,1251.55L1463.04,1251.39L1463.08,1251.23L1463.12,1251.07L1463.15,1250.9L1463.18,1250.74L1463.22,1250.57L1463.25,1250.41L1463.27,1250.24L1463.3,1250.08L1463.32,1249.91L1463.34,1249.74L1463.36,1249.57L1463.38,1249.4L1463.39,1249.23L1463.41,1249.06L1463.42,1248.89L1463.43,1248.72L1463.44,1248.54L1463.44,1248.37L1463.44,1248.2L1463.45,1248.02L1463.44,1247.85L1463.44,1247.67L1463.44,1247.5L1463.43,1247.33L1463.42,1247.16L1463.41,1246.99L1463.39,1246.82L1463.38,1246.64L1463.36,1246.48L1463.34,1246.31L1463.32,1246.14L1463.3,1245.97L1463.27,1245.8L1463.25,1245.64L1463.22,1245.47L1463.18,1245.31L1463.15,1245.14L1463.12,1244.98L1463.08,1244.82L1463.04,1244.65L1463,1244.49L1462.96,1244.33L1462.91,1244.17L1462.87,1244.02L1462.82,1243.86L1462.77,1243.7L1462.72,1243.55L1462.67,1243.39L1462.61,1243.24L1462.56,1243.08L1462.5,1242.93L1462.44,1242.78L1462.38,1242.63L1462.31,1242.48L1462.25,1242.33L1462.18,1242.18L1462.11,1242.03L1462.04,1241.89L1461.97,1241.74L1461.9,1241.6L1461.82,1241.46L1461.75,1241.31L1461.67,1241.17L1461.59,1241.03L1461.51,1240.9L1461.42,1240.76L1461.34,1240.62L1461.25,1240.49L1461.17,1240.35L1461.08,1240.22L1460.99,1240.09L1460.89,1239.96L1460.8,1239.83L1460.71,1239.7L1460.61,1239.58L1460.51,1239.45L1460.41,1239.33L1460.32,1239.2L1460.21,1239.08L1460.11,1238.96L1460.01,1238.84L1459.9,1238.72L1459.79,1238.61L1459.69,1238.49L1459.58,1238.38L1459.46,1238.27L1459.35,1238.15L1459.24,1238.05L1459.12,1237.94L1459.01,1237.83L1458.89,1237.73L1458.77,1237.62L1458.65,1237.52L1458.53,1237.42L1458.41,1237.32L1458.29,1237.22L1458.16,1237.12L1458.04,1237.03L1457.91,1236.94L1457.79,1236.85L1457.66,1236.76L1457.53,1236.67L1457.4,1236.58L1457.27,1236.49L1457.13,1236.41L1457,1236.33L1456.86,1236.25L1456.73,1236.17L1456.59,1236.09L1456.45,1236.02L1456.32,1235.94L1456.17,1235.87L1456.03,1235.8L1455.89,1235.73L1455.75,1235.67L1455.61,1235.6L1455.46,1235.54L1455.32,1235.48L1455.17,1235.42L1455.02,1235.36L1454.88,1235.3L1454.73,1235.25L1454.58,1235.2L1454.43,1235.15L1454.28,1235.1L1454.12,1235.05L1453.97,1235.01L1453.82,1234.97L1453.66,1234.92L1453.51,1234.89L1453.36,1234.85L1453.2,1234.82L1453.04,1234.78L1452.88,1234.75L1452.73,1234.72L1452.57,1234.7L1452.41,1234.67L1452.25,1234.65L1452.09,1234.63L1451.92,1234.61L1451.76,1234.6L1451.6,1234.58L1451.44,1234.57L1451.27,1234.56L1451.11,1234.55L1450.94,1234.55L1450.78,1234.54L1450.61,1234.54L1450.45,1234.54Z" style="fill:rgb(24,24,24);"/>
            </g>
            <g transform="matrix(1,0,0,1,-139.352,-486.349)">
                <path d="M1387.14,1382.54L1392.61,1382.54" style="fill:none;stroke:rgb(24,24,24);stroke-width:1.04px;"/>
            </g>
            <g transform="matrix(1,0,0,1,-139.352,-486.349)">
                <path d="M1389,1386.86C1389,1386.86 1388.37,1388.48 1387.69,1388.62" style="fill:none;stroke:rgb(24,24,24);stroke-width:1.04px;"/>
            </g>
            <g transform="matrix(1,0,0,1,-139.352,-486.349)">
                <path d="M1394.43,1379.76C1393.91,1378.31 1392.98,1377.57 1391.56,1377.63C1389.92,1377.62 1389.07,1378.51 1388.86,1380.11L1388.99,1386.85C1390.54,1387.52 1391.6,1388.08 1392.1,1388.52C1393.14,1388.73 1394.33,1388.73 1395.14,1387.57" style="fill:none;stroke:rgb(24,24,24);stroke-width:1.04px;stroke-linecap:butt;"/>
            </g>
            <g transform="matrix(1,0,0,1,-60.0968,-584.352)">
                <path d="M1387.14,1382.54L1392.61,1382.54" style="fill:none;stroke:rgb(24,24,24);stroke-width:1.04px;"/>
            </g>
            <g transform="matrix(1,0,0,1,-60.0968,-584.352)">
                <path d="M1389,1386.86C1389,1386.86 1388.37,1388.48 1387.69,1388.62" style="fill:none;stroke:rgb(24,24,24);stroke-width:1.04px;"/>
            </g>
            <g transform="matrix(1,0,0,1,-60.0968,-584.352)">
                <path d="M1394.43,1379.76C1393.91,1378.31 1392.98,1377.57 1391.56,1377.63C1389.92,1377.62 1389.07,1378.51 1388.86,1380.11L1388.99,1386.85C1390.54,1387.52 1391.6,1388.08 1392.1,1388.52C1393.14,1388.73 1394.33,1388.73 1395.14,1387.57" style="fill:none;stroke:rgb(24,24,24);stroke-width:1.04px;stroke-linecap:butt;"/>
            </g>
            <g transform="matrix(1,0,0,1,-139.164,-629.431)">
                <path d="M1387.14,1382.54L1392.61,1382.54" style="fill:none;stroke:rgb(24,24,24);stroke-width:1.04px;"/>
            </g>
            <g transform="matrix(1,0,0,1,-139.164,-629.431)">
                <path d="M1389,1386.86C1389,1386.86 1388.37,1388.48 1387.69,1388.62" style="fill:none;stroke:rgb(24,24,24);stroke-width:1.04px;"/>
            </g>
            <g transform="matrix(1,0,0,1,-139.164,-629.431)">
                <path d="M1394.43,1379.76C1393.91,1378.31 1392.98,1377.57 1391.56,1377.63C1389.92,1377.62 1389.07,1378.51 1388.86,1380.11L1388.99,1386.85C1390.54,1387.52 1391.6,1388.08 1392.1,1388.52C1393.14,1388.73 1394.33,1388.73 1395.14,1387.57" style="fill:none;stroke:rgb(24,24,24);stroke-width:1.04px;stroke-linecap:butt;"/>
            </g>
            <g transform="matrix(1.04298,0,0,1.04298,-198.448,-543.026)">
                <path d="M1343.16,1270.17L1343.37,1270.17L1343.57,1270.18L1343.78,1270.18L1343.98,1270.2L1344.18,1270.21L1344.38,1270.23L1344.58,1270.25L1344.78,1270.27L1344.98,1270.29L1345.18,1270.32L1345.38,1270.35L1345.57,1270.38L1345.77,1270.41L1345.96,1270.45L1346.16,1270.49L1346.35,1270.53L1346.55,1270.57L1346.74,1270.62L1346.93,1270.67L1347.12,1270.72L1347.31,1270.77L1347.5,1270.82L1347.68,1270.88L1347.87,1270.94L1348.06,1271L1348.24,1271.06L1348.42,1271.13L1348.6,1271.2L1348.79,1271.27L1348.96,1271.34L1349.14,1271.41L1349.32,1271.49L1349.5,1271.57L1349.67,1271.65L1349.85,1271.73L1350.02,1271.82L1350.19,1271.9L1350.36,1271.99L1350.53,1272.09L1350.7,1272.18L1350.87,1272.27L1351.04,1272.37L1351.2,1272.47L1351.36,1272.57L1351.53,1272.67L1351.68,1272.78L1351.84,1272.88L1352,1272.99L1352.16,1273.1L1352.31,1273.21L1352.47,1273.33L1352.62,1273.44L1352.77,1273.56L1352.92,1273.68L1353.07,1273.8L1353.21,1273.92L1353.36,1274.04L1353.5,1274.17L1353.64,1274.3L1353.79,1274.42L1353.92,1274.56L1354.06,1274.69L1354.2,1274.82L1354.33,1274.96L1354.46,1275.1L1354.59,1275.23L1354.72,1275.37L1354.85,1275.52L1354.98,1275.66L1355.1,1275.8L1355.22,1275.95L1355.34,1276.1L1355.46,1276.25L1355.58,1276.4L1355.69,1276.55L1355.81,1276.7L1355.92,1276.86L1356.03,1277.02L1356.14,1277.17L1356.24,1277.33L1356.35,1277.49L1356.45,1277.66L1356.55,1277.82L1356.65,1277.98L1356.75,1278.15L1356.84,1278.32L1356.93,1278.49L1357.02,1278.65L1357.11,1278.83L1357.2,1279L1357.29,1279.17L1357.37,1279.34L1357.45,1279.52L1357.53,1279.7L1357.6,1279.87L1357.68,1280.05L1357.75,1280.23L1357.82,1280.41L1357.89,1280.6L1357.95,1280.78L1358.02,1280.96L1358.08,1281.15L1358.14,1281.34L1358.19,1281.52L1358.25,1281.71L1358.3,1281.9L1358.35,1282.09L1358.4,1282.28L1358.45,1282.47L1358.49,1282.66L1358.53,1282.86L1358.57,1283.05L1358.61,1283.25L1358.64,1283.44L1358.67,1283.64L1358.7,1283.84L1358.73,1284.04L1358.75,1284.24L1358.77,1284.44L1358.79,1284.64L1358.81,1284.84L1358.82,1285.04L1358.83,1285.24L1358.84,1285.45L1358.85,1285.65L1358.85,1285.85L1358.85,1286.06L1358.85,1286.26L1358.85,1286.47L1358.84,1286.67L1358.83,1286.88L1358.82,1287.08L1358.81,1287.28L1358.79,1287.48L1358.77,1287.68L1358.75,1287.88L1358.73,1288.08L1358.7,1288.28L1358.67,1288.48L1358.64,1288.67L1358.61,1288.87L1358.57,1289.07L1358.53,1289.26L1358.49,1289.45L1358.45,1289.65L1358.4,1289.84L1358.35,1290.03L1358.3,1290.22L1358.25,1290.41L1358.19,1290.6L1358.14,1290.78L1358.08,1290.97L1358.02,1291.15L1357.95,1291.34L1357.89,1291.52L1357.82,1291.7L1357.75,1291.89L1357.68,1292.07L1357.6,1292.24L1357.53,1292.42L1357.45,1292.6L1357.37,1292.77L1357.29,1292.95L1357.2,1293.12L1357.11,1293.29L1357.02,1293.46L1356.93,1293.63L1356.84,1293.8L1356.75,1293.97L1356.65,1294.13L1356.55,1294.3L1356.45,1294.46L1356.35,1294.62L1356.24,1294.79L1356.14,1294.94L1356.03,1295.1L1355.92,1295.26L1355.81,1295.41L1355.69,1295.57L1355.58,1295.72L1355.46,1295.87L1355.34,1296.02L1355.22,1296.17L1355.1,1296.31L1354.98,1296.46L1354.85,1296.6L1354.72,1296.75L1354.59,1296.88L1354.46,1297.02L1354.33,1297.16L1354.2,1297.3L1354.06,1297.43L1353.92,1297.56L1353.79,1297.69L1353.64,1297.82L1353.5,1297.95L1353.36,1298.08L1353.21,1298.2L1353.07,1298.32L1352.92,1298.44L1352.77,1298.56L1352.62,1298.68L1352.47,1298.79L1352.31,1298.91L1352.16,1299.02L1352,1299.13L1351.84,1299.24L1351.68,1299.34L1351.53,1299.45L1351.36,1299.55L1351.2,1299.65L1351.04,1299.75L1350.87,1299.85L1350.7,1299.94L1350.53,1300.03L1350.36,1300.12L1350.19,1300.21L1350.02,1300.3L1349.85,1300.38L1349.67,1300.47L1349.5,1300.55L1349.32,1300.63L1349.14,1300.7L1348.97,1300.78L1348.79,1300.85L1348.6,1300.92L1348.42,1300.99L1348.24,1301.05L1348.06,1301.12L1347.87,1301.18L1347.68,1301.24L1347.5,1301.3L1347.31,1301.35L1347.12,1301.4L1346.93,1301.45L1346.74,1301.5L1346.55,1301.55L1346.35,1301.59L1346.16,1301.63L1345.96,1301.67L1345.77,1301.7L1345.57,1301.74L1345.38,1301.77L1345.18,1301.8L1344.98,1301.83L1344.78,1301.85L1344.58,1301.87L1344.38,1301.89L1344.18,1301.91L1343.98,1301.92L1343.78,1301.93L1343.57,1301.94L1343.37,1301.95L1343.16,1301.95L1342.96,1301.95L1342.75,1301.95L1342.55,1301.95L1342.35,1301.94L1342.14,1301.93L1341.94,1301.92L1341.74,1301.91L1341.54,1301.89L1341.34,1301.87L1341.14,1301.85L1340.94,1301.83L1340.74,1301.8L1340.54,1301.77L1340.34,1301.74L1340.15,1301.7L1339.95,1301.67L1339.76,1301.63L1339.57,1301.59L1339.37,1301.55L1339.18,1301.5L1338.99,1301.45L1338.8,1301.4L1338.61,1301.35L1338.42,1301.3L1338.24,1301.24L1338.05,1301.18L1337.86,1301.12L1337.68,1301.05L1337.5,1300.99L1337.31,1300.92L1337.13,1300.85L1336.95,1300.78L1336.77,1300.7L1336.6,1300.63L1336.42,1300.55L1336.24,1300.47L1336.07,1300.38L1335.9,1300.3L1335.73,1300.21L1335.55,1300.12L1335.38,1300.03L1335.22,1299.94L1335.05,1299.85L1334.88,1299.75L1334.72,1299.65L1334.56,1299.55L1334.39,1299.45L1334.23,1299.34L1334.07,1299.24L1333.92,1299.13L1333.76,1299.02L1333.6,1298.91L1333.45,1298.79L1333.3,1298.68L1333.15,1298.56L1333,1298.44L1332.85,1298.32L1332.7,1298.2L1332.56,1298.08L1332.42,1297.95L1332.27,1297.82L1332.13,1297.69L1332,1297.56L1331.86,1297.43L1331.72,1297.3L1331.59,1297.16L1331.46,1297.02L1331.33,1296.88L1331.2,1296.74L1331.07,1296.6L1330.94,1296.46L1330.82,1296.31L1330.7,1296.17L1330.58,1296.02L1330.46,1295.87L1330.34,1295.72L1330.22,1295.57L1330.11,1295.41L1330,1295.26L1329.89,1295.1L1329.78,1294.94L1329.67,1294.79L1329.57,1294.62L1329.47,1294.46L1329.37,1294.3L1329.27,1294.13L1329.17,1293.97L1329.08,1293.8L1328.99,1293.63L1328.89,1293.46L1328.81,1293.29L1328.72,1293.12L1328.63,1292.95L1328.55,1292.77L1328.47,1292.6L1328.39,1292.42L1328.32,1292.24L1328.24,1292.07L1328.17,1291.88L1328.1,1291.7L1328.03,1291.52L1327.96,1291.34L1327.9,1291.15L1327.84,1290.97L1327.78,1290.78L1327.72,1290.6L1327.67,1290.41L1327.62,1290.22L1327.57,1290.03L1327.52,1289.84L1327.47,1289.65L1327.43,1289.45L1327.39,1289.26L1327.35,1289.07L1327.31,1288.87L1327.28,1288.67L1327.25,1288.48L1327.22,1288.28L1327.19,1288.08L1327.17,1287.88L1327.15,1287.68L1327.13,1287.48L1327.11,1287.28L1327.1,1287.08L1327.09,1286.88L1327.08,1286.67L1327.07,1286.47L1327.07,1286.27L1327.07,1286.06L1327.07,1285.85L1327.07,1285.65L1327.08,1285.45L1327.09,1285.24L1327.1,1285.04L1327.11,1284.84L1327.13,1284.64L1327.15,1284.44L1327.17,1284.24L1327.19,1284.04L1327.22,1283.84L1327.25,1283.64L1327.28,1283.44L1327.31,1283.25L1327.35,1283.05L1327.39,1282.86L1327.43,1282.66L1327.47,1282.47L1327.52,1282.28L1327.57,1282.09L1327.62,1281.9L1327.67,1281.71L1327.72,1281.52L1327.78,1281.34L1327.84,1281.15L1327.9,1280.96L1327.96,1280.78L1328.03,1280.6L1328.1,1280.41L1328.17,1280.23L1328.24,1280.05L1328.32,1279.87L1328.39,1279.7L1328.47,1279.52L1328.55,1279.34L1328.63,1279.17L1328.72,1279L1328.81,1278.83L1328.89,1278.65L1328.99,1278.49L1329.08,1278.32L1329.17,1278.15L1329.27,1277.98L1329.37,1277.82L1329.47,1277.66L1329.57,1277.49L1329.67,1277.33L1329.78,1277.17L1329.89,1277.02L1330,1276.86L1330.11,1276.7L1330.22,1276.55L1330.34,1276.4L1330.46,1276.25L1330.58,1276.1L1330.7,1275.95L1330.82,1275.8L1330.94,1275.66L1331.07,1275.52L1331.2,1275.37L1331.33,1275.23L1331.46,1275.1L1331.59,1274.96L1331.72,1274.82L1331.86,1274.69L1332,1274.56L1332.13,1274.42L1332.27,1274.3L1332.42,1274.17L1332.56,1274.04L1332.7,1273.92L1332.85,1273.8L1333,1273.68L1333.15,1273.56L1333.3,1273.44L1333.45,1273.33L1333.6,1273.21L1333.76,1273.1L1333.92,1272.99L1334.07,1272.88L1334.23,1272.78L1334.39,1272.67L1334.56,1272.57L1334.72,1272.47L1334.88,1272.37L1335.05,1272.27L1335.22,1272.18L1335.38,1272.09L1335.55,1271.99L1335.73,1271.9L1335.9,1271.82L1336.07,1271.73L1336.24,1271.65L1336.42,1271.57L1336.6,1271.49L1336.77,1271.41L1336.95,1271.34L1337.13,1271.27L1337.31,1271.2L1337.5,1271.13L1337.68,1271.06L1337.86,1271L1338.05,1270.94L1338.24,1270.88L1338.42,1270.82L1338.61,1270.77L1338.8,1270.72L1338.99,1270.67L1339.18,1270.62L1339.37,1270.57L1339.57,1270.53L1339.76,1270.49L1339.95,1270.45L1340.15,1270.41L1340.34,1270.38L1340.54,1270.35L1340.74,1270.32L1340.94,1270.29L1341.14,1270.27L1341.34,1270.25L1341.54,1270.23L1341.74,1270.21L1341.94,1270.2L1342.14,1270.18L1342.35,1270.18L1342.55,1270.17L1342.75,1270.17L1342.96,1270.16L1343.16,1270.17ZM1342.77,1271.16L1342.58,1271.17L1342.38,1271.17L1342.19,1271.18L1342,1271.19L1341.81,1271.21L1341.62,1271.22L1341.44,1271.24L1341.25,1271.26L1341.06,1271.28L1340.88,1271.31L1340.69,1271.34L1340.51,1271.37L1340.32,1271.4L1340.14,1271.43L1339.96,1271.47L1339.78,1271.51L1339.6,1271.55L1339.42,1271.59L1339.24,1271.63L1339.06,1271.68L1338.88,1271.73L1338.71,1271.78L1338.53,1271.83L1338.36,1271.89L1338.18,1271.95L1338.01,1272.01L1337.84,1272.07L1337.67,1272.13L1337.5,1272.2L1337.33,1272.27L1337.16,1272.34L1337,1272.41L1336.83,1272.48L1336.67,1272.56L1336.5,1272.63L1336.34,1272.71L1336.18,1272.79L1336.02,1272.88L1335.86,1272.96L1335.7,1273.05L1335.55,1273.14L1335.39,1273.23L1335.24,1273.32L1335.09,1273.42L1334.93,1273.51L1334.78,1273.61L1334.63,1273.71L1334.49,1273.81L1334.34,1273.91L1334.19,1274.02L1334.05,1274.12L1333.91,1274.23L1333.77,1274.34L1333.62,1274.45L1333.49,1274.57L1333.35,1274.68L1333.21,1274.8L1333.08,1274.92L1332.95,1275.04L1332.81,1275.16L1332.68,1275.28L1332.56,1275.4L1332.43,1275.53L1332.3,1275.66L1332.18,1275.78L1332.06,1275.91L1331.93,1276.05L1331.82,1276.18L1331.7,1276.31L1331.58,1276.45L1331.47,1276.59L1331.35,1276.73L1331.24,1276.87L1331.13,1277.01L1331.02,1277.15L1330.92,1277.29L1330.81,1277.44L1330.71,1277.59L1330.61,1277.73L1330.51,1277.88L1330.41,1278.03L1330.32,1278.18L1330.22,1278.34L1330.13,1278.49L1330.04,1278.65L1329.95,1278.8L1329.86,1278.96L1329.78,1279.12L1329.69,1279.28L1329.61,1279.44L1329.53,1279.6L1329.46,1279.77L1329.38,1279.93L1329.31,1280.1L1329.24,1280.26L1329.16,1280.43L1329.1,1280.6L1329.03,1280.77L1328.97,1280.94L1328.91,1281.11L1328.85,1281.28L1328.79,1281.46L1328.73,1281.63L1328.68,1281.81L1328.63,1281.98L1328.58,1282.16L1328.53,1282.34L1328.49,1282.52L1328.44,1282.7L1328.4,1282.88L1328.37,1283.06L1328.33,1283.24L1328.3,1283.42L1328.26,1283.61L1328.24,1283.79L1328.21,1283.98L1328.18,1284.16L1328.16,1284.35L1328.14,1284.54L1328.12,1284.73L1328.11,1284.91L1328.09,1285.1L1328.08,1285.29L1328.07,1285.48L1328.07,1285.67L1328.07,1285.87L1328.06,1286.06L1328.07,1286.25L1328.07,1286.44L1328.07,1286.63L1328.08,1286.83L1328.09,1287.02L1328.11,1287.2L1328.12,1287.39L1328.14,1287.58L1328.16,1287.77L1328.18,1287.95L1328.21,1288.14L1328.24,1288.33L1328.26,1288.51L1328.3,1288.69L1328.33,1288.88L1328.37,1289.06L1328.4,1289.24L1328.44,1289.42L1328.49,1289.6L1328.53,1289.78L1328.58,1289.96L1328.63,1290.13L1328.68,1290.31L1328.73,1290.49L1328.79,1290.66L1328.85,1290.84L1328.91,1291.01L1328.97,1291.18L1329.03,1291.35L1329.1,1291.52L1329.16,1291.69L1329.24,1291.86L1329.31,1292.02L1329.38,1292.19L1329.46,1292.35L1329.53,1292.52L1329.61,1292.68L1329.69,1292.84L1329.78,1293L1329.86,1293.16L1329.95,1293.32L1330.04,1293.47L1330.13,1293.63L1330.22,1293.78L1330.32,1293.93L1330.41,1294.09L1330.51,1294.24L1330.61,1294.38L1330.71,1294.53L1330.81,1294.68L1330.92,1294.83L1331.02,1294.97L1331.13,1295.11L1331.24,1295.25L1331.35,1295.39L1331.47,1295.53L1331.58,1295.67L1331.7,1295.81L1331.82,1295.94L1331.93,1296.07L1332.06,1296.2L1332.18,1296.33L1332.3,1296.46L1332.43,1296.59L1332.56,1296.72L1332.68,1296.84L1332.81,1296.96L1332.95,1297.08L1333.08,1297.2L1333.21,1297.32L1333.35,1297.44L1333.49,1297.55L1333.62,1297.66L1333.77,1297.78L1333.91,1297.89L1334.05,1297.99L1334.19,1298.1L1334.34,1298.2L1334.49,1298.31L1334.63,1298.41L1334.78,1298.51L1334.93,1298.61L1335.09,1298.7L1335.24,1298.8L1335.39,1298.89L1335.55,1298.98L1335.7,1299.07L1335.86,1299.16L1336.02,1299.24L1336.18,1299.33L1336.34,1299.41L1336.5,1299.49L1336.67,1299.56L1336.83,1299.64L1337,1299.71L1337.16,1299.78L1337.33,1299.85L1337.5,1299.92L1337.67,1299.99L1337.84,1300.05L1338.01,1300.11L1338.18,1300.17L1338.36,1300.23L1338.53,1300.29L1338.71,1300.34L1338.88,1300.39L1339.06,1300.44L1339.24,1300.49L1339.42,1300.53L1339.6,1300.57L1339.78,1300.61L1339.96,1300.65L1340.14,1300.69L1340.32,1300.72L1340.51,1300.75L1340.69,1300.78L1340.88,1300.81L1341.06,1300.84L1341.25,1300.86L1341.44,1300.88L1341.62,1300.9L1341.81,1300.91L1342,1300.92L1342.19,1300.94L1342.38,1300.94L1342.58,1300.95L1342.77,1300.95L1342.96,1300.95L1343.15,1300.95L1343.34,1300.95L1343.54,1300.94L1343.73,1300.94L1343.91,1300.92L1344.11,1300.91L1344.29,1300.9L1344.48,1300.88L1344.67,1300.86L1344.86,1300.84L1345.04,1300.81L1345.23,1300.78L1345.41,1300.75L1345.6,1300.72L1345.78,1300.69L1345.96,1300.65L1346.14,1300.61L1346.32,1300.57L1346.5,1300.53L1346.68,1300.49L1346.86,1300.44L1347.04,1300.39L1347.21,1300.34L1347.39,1300.29L1347.56,1300.23L1347.74,1300.17L1347.91,1300.11L1348.08,1300.05L1348.25,1299.99L1348.42,1299.92L1348.59,1299.85L1348.76,1299.78L1348.92,1299.71L1349.09,1299.64L1349.25,1299.56L1349.41,1299.49L1349.58,1299.41L1349.74,1299.33L1349.9,1299.24L1350.06,1299.16L1350.21,1299.07L1350.37,1298.98L1350.53,1298.89L1350.68,1298.8L1350.83,1298.7L1350.99,1298.61L1351.14,1298.51L1351.29,1298.41L1351.43,1298.31L1351.58,1298.2L1351.73,1298.1L1351.87,1297.99L1352.01,1297.89L1352.15,1297.78L1352.29,1297.66L1352.43,1297.55L1352.57,1297.44L1352.7,1297.32L1352.84,1297.2L1352.97,1297.08L1353.1,1296.96L1353.23,1296.84L1353.36,1296.72L1353.49,1296.59L1353.62,1296.46L1353.74,1296.33L1353.86,1296.2L1353.98,1296.07L1354.1,1295.94L1354.22,1295.81L1354.34,1295.67L1354.45,1295.53L1354.57,1295.39L1354.68,1295.25L1354.79,1295.11L1354.89,1294.97L1355,1294.83L1355.11,1294.68L1355.21,1294.53L1355.31,1294.38L1355.41,1294.24L1355.51,1294.09L1355.6,1293.93L1355.7,1293.78L1355.79,1293.63L1355.88,1293.47L1355.97,1293.32L1356.06,1293.16L1356.14,1293L1356.22,1292.84L1356.31,1292.68L1356.38,1292.52L1356.46,1292.35L1356.54,1292.19L1356.61,1292.02L1356.68,1291.86L1356.75,1291.69L1356.82,1291.52L1356.89,1291.35L1356.95,1291.18L1357.01,1291.01L1357.07,1290.84L1357.13,1290.66L1357.18,1290.49L1357.24,1290.31L1357.29,1290.13L1357.34,1289.96L1357.39,1289.78L1357.43,1289.6L1357.47,1289.42L1357.51,1289.24L1357.55,1289.06L1357.59,1288.88L1357.62,1288.69L1357.65,1288.51L1357.68,1288.33L1357.71,1288.14L1357.74,1287.95L1357.76,1287.77L1357.78,1287.58L1357.8,1287.39L1357.81,1287.2L1357.83,1287.02L1357.84,1286.83L1357.84,1286.63L1357.85,1286.44L1357.85,1286.25L1357.86,1286.06L1357.85,1285.87L1357.85,1285.67L1357.84,1285.48L1357.84,1285.29L1357.83,1285.1L1357.81,1284.91L1357.8,1284.73L1357.78,1284.54L1357.76,1284.35L1357.74,1284.16L1357.71,1283.98L1357.68,1283.79L1357.65,1283.61L1357.62,1283.42L1357.59,1283.24L1357.55,1283.06L1357.51,1282.88L1357.47,1282.7L1357.43,1282.52L1357.39,1282.34L1357.34,1282.16L1357.29,1281.98L1357.24,1281.81L1357.18,1281.63L1357.13,1281.46L1357.07,1281.28L1357.01,1281.11L1356.95,1280.94L1356.89,1280.77L1356.82,1280.6L1356.75,1280.43L1356.68,1280.26L1356.61,1280.1L1356.54,1279.93L1356.46,1279.77L1356.38,1279.6L1356.31,1279.44L1356.22,1279.28L1356.14,1279.12L1356.06,1278.96L1355.97,1278.8L1355.88,1278.65L1355.79,1278.49L1355.7,1278.34L1355.6,1278.18L1355.51,1278.03L1355.41,1277.88L1355.31,1277.73L1355.21,1277.59L1355.11,1277.44L1355,1277.29L1354.89,1277.15L1354.79,1277.01L1354.68,1276.87L1354.57,1276.73L1354.45,1276.59L1354.34,1276.45L1354.22,1276.31L1354.1,1276.18L1353.98,1276.05L1353.86,1275.91L1353.74,1275.78L1353.62,1275.66L1353.49,1275.53L1353.36,1275.4L1353.23,1275.28L1353.1,1275.16L1352.97,1275.04L1352.84,1274.92L1352.7,1274.8L1352.57,1274.68L1352.43,1274.57L1352.29,1274.45L1352.15,1274.34L1352.01,1274.23L1351.87,1274.12L1351.73,1274.02L1351.58,1273.91L1351.43,1273.81L1351.29,1273.71L1351.14,1273.61L1350.99,1273.51L1350.83,1273.42L1350.68,1273.32L1350.53,1273.23L1350.37,1273.14L1350.21,1273.05L1350.06,1272.96L1349.9,1272.88L1349.74,1272.79L1349.58,1272.71L1349.41,1272.63L1349.25,1272.56L1349.09,1272.48L1348.92,1272.41L1348.76,1272.34L1348.59,1272.27L1348.42,1272.2L1348.25,1272.13L1348.08,1272.07L1347.91,1272.01L1347.74,1271.95L1347.56,1271.89L1347.39,1271.83L1347.21,1271.78L1347.04,1271.73L1346.86,1271.68L1346.68,1271.63L1346.5,1271.59L1346.32,1271.55L1346.14,1271.51L1345.96,1271.47L1345.78,1271.43L1345.6,1271.4L1345.41,1271.37L1345.23,1271.34L1345.04,1271.31L1344.86,1271.28L1344.67,1271.26L1344.48,1271.24L1344.29,1271.22L1344.11,1271.21L1343.91,1271.19L1343.73,1271.18L1343.54,1271.17L1343.34,1271.17L1343.15,1271.16L1342.96,1271.16L1342.77,1271.16Z" style="fill:rgb(24,24,24);"/>
            </g>
            <g transform="matrix(0.824572,0,0,0.824572,144.844,-163.593)">
                <path d="M1343.17,1269.9L1343.38,1269.9L1343.58,1269.91L1343.79,1269.92L1344,1269.93L1344.2,1269.95L1344.4,1269.96L1344.61,1269.98L1344.81,1270.01L1345.02,1270.03L1345.22,1270.06L1345.42,1270.09L1345.62,1270.12L1345.82,1270.15L1346.02,1270.19L1346.21,1270.23L1346.41,1270.27L1346.61,1270.31L1346.8,1270.36L1347,1270.41L1347.19,1270.46L1347.38,1270.51L1347.57,1270.57L1347.76,1270.63L1347.95,1270.69L1348.14,1270.75L1348.33,1270.82L1348.51,1270.88L1348.7,1270.95L1348.88,1271.02L1349.07,1271.1L1349.25,1271.17L1349.43,1271.25L1349.61,1271.33L1349.79,1271.41L1349.96,1271.5L1350.14,1271.58L1350.31,1271.67L1350.49,1271.76L1350.66,1271.85L1350.83,1271.95L1351,1272.04L1351.17,1272.14L1351.34,1272.24L1351.5,1272.34L1351.67,1272.45L1351.83,1272.55L1351.99,1272.66L1352.15,1272.77L1352.31,1272.88L1352.47,1273L1352.63,1273.11L1352.78,1273.23L1352.93,1273.35L1353.09,1273.47L1353.24,1273.59L1353.38,1273.72L1353.53,1273.84L1353.68,1273.97L1353.82,1274.1L1353.96,1274.23L1354.11,1274.36L1354.25,1274.5L1354.38,1274.63L1354.52,1274.77L1354.65,1274.91L1354.79,1275.05L1354.92,1275.2L1355.05,1275.34L1355.17,1275.49L1355.3,1275.63L1355.43,1275.78L1355.55,1275.93L1355.67,1276.08L1355.79,1276.24L1355.91,1276.39L1356.02,1276.55L1356.13,1276.71L1356.25,1276.87L1356.36,1277.03L1356.46,1277.19L1356.57,1277.35L1356.67,1277.52L1356.78,1277.68L1356.88,1277.85L1356.98,1278.02L1357.07,1278.19L1357.17,1278.36L1357.26,1278.53L1357.35,1278.7L1357.44,1278.88L1357.52,1279.06L1357.61,1279.23L1357.69,1279.41L1357.77,1279.59L1357.85,1279.77L1357.92,1279.95L1358,1280.14L1358.07,1280.32L1358.14,1280.51L1358.2,1280.69L1358.27,1280.88L1358.33,1281.07L1358.39,1281.26L1358.45,1281.45L1358.51,1281.64L1358.56,1281.83L1358.61,1282.02L1358.66,1282.22L1358.7,1282.41L1358.75,1282.61L1358.79,1282.81L1358.83,1283L1358.87,1283.2L1358.9,1283.4L1358.93,1283.6L1358.96,1283.8L1358.99,1284L1359.01,1284.21L1359.04,1284.41L1359.05,1284.61L1359.07,1284.82L1359.09,1285.02L1359.1,1285.23L1359.11,1285.44L1359.11,1285.64L1359.12,1285.85L1359.12,1286.06L1359.12,1286.27L1359.11,1286.48L1359.11,1286.68L1359.1,1286.89L1359.09,1287.1L1359.07,1287.3L1359.05,1287.51L1359.04,1287.71L1359.01,1287.91L1358.99,1288.12L1358.96,1288.32L1358.93,1288.52L1358.9,1288.72L1358.87,1288.92L1358.83,1289.12L1358.79,1289.31L1358.75,1289.51L1358.7,1289.71L1358.66,1289.9L1358.61,1290.1L1358.56,1290.29L1358.51,1290.48L1358.45,1290.67L1358.39,1290.86L1358.33,1291.05L1358.27,1291.24L1358.2,1291.43L1358.14,1291.61L1358.07,1291.8L1358,1291.98L1357.92,1292.17L1357.85,1292.35L1357.77,1292.53L1357.69,1292.71L1357.61,1292.89L1357.52,1293.06L1357.44,1293.24L1357.35,1293.41L1357.26,1293.59L1357.17,1293.76L1357.07,1293.93L1356.98,1294.1L1356.88,1294.27L1356.78,1294.44L1356.67,1294.6L1356.57,1294.77L1356.46,1294.93L1356.36,1295.09L1356.25,1295.25L1356.13,1295.41L1356.02,1295.57L1355.91,1295.73L1355.79,1295.88L1355.67,1296.03L1355.55,1296.19L1355.43,1296.34L1355.3,1296.49L1355.18,1296.63L1355.05,1296.78L1354.92,1296.92L1354.79,1297.07L1354.65,1297.21L1354.52,1297.35L1354.38,1297.48L1354.25,1297.62L1354.11,1297.75L1353.96,1297.89L1353.82,1298.02L1353.68,1298.15L1353.53,1298.28L1353.38,1298.4L1353.24,1298.53L1353.09,1298.65L1352.93,1298.77L1352.78,1298.89L1352.63,1299.01L1352.47,1299.12L1352.31,1299.24L1352.15,1299.35L1351.99,1299.46L1351.83,1299.56L1351.67,1299.67L1351.5,1299.78L1351.34,1299.88L1351.17,1299.98L1351,1300.08L1350.83,1300.17L1350.66,1300.27L1350.49,1300.36L1350.31,1300.45L1350.14,1300.54L1349.96,1300.62L1349.79,1300.71L1349.61,1300.79L1349.43,1300.87L1349.25,1300.95L1349.07,1301.02L1348.88,1301.1L1348.7,1301.17L1348.51,1301.24L1348.33,1301.3L1348.14,1301.37L1347.95,1301.43L1347.76,1301.49L1347.57,1301.55L1347.38,1301.61L1347.19,1301.66L1347,1301.71L1346.8,1301.76L1346.61,1301.8L1346.41,1301.85L1346.21,1301.89L1346.02,1301.93L1345.82,1301.97L1345.62,1302L1345.42,1302.03L1345.22,1302.06L1345.02,1302.09L1344.81,1302.11L1344.61,1302.13L1344.4,1302.15L1344.2,1302.17L1344,1302.19L1343.79,1302.2L1343.58,1302.21L1343.38,1302.21L1343.17,1302.22L1342.96,1302.22L1342.75,1302.22L1342.54,1302.21L1342.34,1302.21L1342.13,1302.2L1341.92,1302.19L1341.72,1302.17L1341.51,1302.15L1341.31,1302.13L1341.11,1302.11L1340.9,1302.09L1340.7,1302.06L1340.5,1302.03L1340.3,1302L1340.1,1301.97L1339.9,1301.93L1339.7,1301.89L1339.51,1301.85L1339.31,1301.8L1339.12,1301.76L1338.92,1301.71L1338.73,1301.66L1338.54,1301.61L1338.35,1301.55L1338.16,1301.49L1337.97,1301.43L1337.78,1301.37L1337.59,1301.3L1337.4,1301.24L1337.22,1301.17L1337.04,1301.1L1336.85,1301.02L1336.67,1300.95L1336.49,1300.87L1336.31,1300.79L1336.13,1300.71L1335.95,1300.62L1335.78,1300.54L1335.6,1300.45L1335.43,1300.36L1335.26,1300.27L1335.09,1300.17L1334.92,1300.08L1334.75,1299.98L1334.58,1299.88L1334.41,1299.78L1334.25,1299.67L1334.09,1299.57L1333.93,1299.46L1333.77,1299.35L1333.61,1299.24L1333.45,1299.12L1333.29,1299.01L1333.14,1298.89L1332.98,1298.77L1332.83,1298.65L1332.68,1298.53L1332.53,1298.4L1332.39,1298.28L1332.24,1298.15L1332.1,1298.02L1331.95,1297.89L1331.81,1297.75L1331.67,1297.62L1331.54,1297.48L1331.4,1297.35L1331.26,1297.21L1331.13,1297.07L1331,1296.92L1330.87,1296.78L1330.74,1296.63L1330.62,1296.49L1330.49,1296.34L1330.37,1296.19L1330.25,1296.03L1330.13,1295.88L1330.01,1295.73L1329.9,1295.57L1329.78,1295.41L1329.67,1295.25L1329.56,1295.09L1329.45,1294.93L1329.35,1294.77L1329.24,1294.6L1329.14,1294.44L1329.04,1294.27L1328.94,1294.1L1328.85,1293.93L1328.75,1293.76L1328.66,1293.59L1328.57,1293.41L1328.48,1293.24L1328.39,1293.06L1328.31,1292.89L1328.23,1292.71L1328.15,1292.53L1328.07,1292.35L1328,1292.17L1327.92,1291.98L1327.85,1291.8L1327.78,1291.61L1327.71,1291.43L1327.65,1291.24L1327.59,1291.05L1327.53,1290.86L1327.47,1290.67L1327.41,1290.48L1327.36,1290.29L1327.31,1290.1L1327.26,1289.9L1327.21,1289.71L1327.17,1289.51L1327.13,1289.31L1327.09,1289.12L1327.05,1288.92L1327.02,1288.72L1326.99,1288.52L1326.96,1288.32L1326.93,1288.12L1326.9,1287.91L1326.88,1287.71L1326.86,1287.51L1326.85,1287.3L1326.83,1287.1L1326.82,1286.89L1326.81,1286.68L1326.81,1286.48L1326.8,1286.27L1326.8,1286.06L1326.8,1285.85L1326.81,1285.64L1326.81,1285.44L1326.82,1285.23L1326.83,1285.02L1326.85,1284.82L1326.86,1284.61L1326.88,1284.41L1326.9,1284.21L1326.93,1284L1326.96,1283.8L1326.99,1283.6L1327.02,1283.4L1327.05,1283.2L1327.09,1283L1327.13,1282.81L1327.17,1282.61L1327.21,1282.41L1327.26,1282.22L1327.31,1282.02L1327.36,1281.83L1327.41,1281.64L1327.47,1281.45L1327.53,1281.26L1327.59,1281.07L1327.65,1280.88L1327.71,1280.69L1327.78,1280.51L1327.85,1280.32L1327.92,1280.14L1328,1279.95L1328.07,1279.77L1328.15,1279.59L1328.23,1279.41L1328.31,1279.23L1328.39,1279.06L1328.48,1278.88L1328.57,1278.7L1328.66,1278.53L1328.75,1278.36L1328.85,1278.19L1328.94,1278.02L1329.04,1277.85L1329.14,1277.68L1329.24,1277.52L1329.35,1277.35L1329.45,1277.19L1329.56,1277.03L1329.67,1276.87L1329.78,1276.71L1329.9,1276.55L1330.01,1276.39L1330.13,1276.24L1330.25,1276.08L1330.37,1275.93L1330.49,1275.78L1330.62,1275.63L1330.74,1275.49L1330.87,1275.34L1331,1275.2L1331.13,1275.05L1331.26,1274.91L1331.4,1274.77L1331.54,1274.63L1331.67,1274.5L1331.81,1274.36L1331.95,1274.23L1332.1,1274.1L1332.24,1273.97L1332.39,1273.84L1332.53,1273.72L1332.68,1273.59L1332.83,1273.47L1332.98,1273.35L1333.14,1273.23L1333.29,1273.11L1333.45,1273L1333.61,1272.88L1333.77,1272.77L1333.93,1272.66L1334.09,1272.55L1334.25,1272.45L1334.41,1272.34L1334.58,1272.24L1334.75,1272.14L1334.92,1272.04L1335.09,1271.95L1335.26,1271.85L1335.43,1271.76L1335.6,1271.67L1335.78,1271.58L1335.95,1271.5L1336.13,1271.41L1336.31,1271.33L1336.49,1271.25L1336.67,1271.17L1336.85,1271.1L1337.04,1271.02L1337.22,1270.95L1337.4,1270.88L1337.59,1270.82L1337.78,1270.75L1337.97,1270.69L1338.16,1270.63L1338.35,1270.57L1338.54,1270.51L1338.73,1270.46L1338.92,1270.41L1339.12,1270.36L1339.31,1270.31L1339.51,1270.27L1339.7,1270.23L1339.9,1270.19L1340.1,1270.15L1340.3,1270.12L1340.5,1270.09L1340.7,1270.06L1340.9,1270.03L1341.11,1270.01L1341.31,1269.98L1341.51,1269.96L1341.72,1269.95L1341.92,1269.93L1342.13,1269.92L1342.34,1269.91L1342.54,1269.9L1342.75,1269.9L1342.96,1269.9L1343.17,1269.9ZM1342.77,1271.16L1342.58,1271.17L1342.38,1271.17L1342.19,1271.18L1342,1271.19L1341.81,1271.21L1341.62,1271.22L1341.44,1271.24L1341.25,1271.26L1341.06,1271.28L1340.88,1271.31L1340.69,1271.34L1340.51,1271.37L1340.32,1271.4L1340.14,1271.43L1339.96,1271.47L1339.78,1271.51L1339.6,1271.55L1339.42,1271.59L1339.24,1271.63L1339.06,1271.68L1338.88,1271.73L1338.71,1271.78L1338.53,1271.83L1338.36,1271.89L1338.18,1271.95L1338.01,1272.01L1337.84,1272.07L1337.67,1272.13L1337.5,1272.2L1337.33,1272.27L1337.16,1272.34L1337,1272.41L1336.83,1272.48L1336.67,1272.56L1336.5,1272.63L1336.34,1272.71L1336.18,1272.79L1336.02,1272.88L1335.86,1272.96L1335.7,1273.05L1335.55,1273.14L1335.39,1273.23L1335.24,1273.32L1335.09,1273.42L1334.93,1273.51L1334.78,1273.61L1334.63,1273.71L1334.49,1273.81L1334.34,1273.91L1334.19,1274.02L1334.05,1274.12L1333.91,1274.23L1333.77,1274.34L1333.62,1274.45L1333.49,1274.57L1333.35,1274.68L1333.21,1274.8L1333.08,1274.92L1332.95,1275.04L1332.81,1275.16L1332.68,1275.28L1332.56,1275.4L1332.43,1275.53L1332.3,1275.66L1332.18,1275.78L1332.06,1275.91L1331.93,1276.05L1331.82,1276.18L1331.7,1276.31L1331.58,1276.45L1331.47,1276.59L1331.35,1276.73L1331.24,1276.87L1331.13,1277.01L1331.02,1277.15L1330.92,1277.29L1330.81,1277.44L1330.71,1277.59L1330.61,1277.73L1330.51,1277.88L1330.41,1278.03L1330.32,1278.18L1330.22,1278.34L1330.13,1278.49L1330.04,1278.65L1329.95,1278.8L1329.86,1278.96L1329.78,1279.12L1329.69,1279.28L1329.61,1279.44L1329.53,1279.6L1329.46,1279.77L1329.38,1279.93L1329.31,1280.1L1329.24,1280.26L1329.16,1280.43L1329.1,1280.6L1329.03,1280.77L1328.97,1280.94L1328.91,1281.11L1328.85,1281.28L1328.79,1281.46L1328.73,1281.63L1328.68,1281.81L1328.63,1281.98L1328.58,1282.16L1328.53,1282.34L1328.49,1282.52L1328.44,1282.7L1328.4,1282.88L1328.37,1283.06L1328.33,1283.24L1328.3,1283.42L1328.26,1283.61L1328.24,1283.79L1328.21,1283.98L1328.18,1284.16L1328.16,1284.35L1328.14,1284.54L1328.12,1284.73L1328.11,1284.91L1328.09,1285.1L1328.08,1285.29L1328.07,1285.48L1328.07,1285.67L1328.07,1285.87L1328.06,1286.06L1328.07,1286.25L1328.07,1286.44L1328.07,1286.63L1328.08,1286.83L1328.09,1287.02L1328.11,1287.2L1328.12,1287.39L1328.14,1287.58L1328.16,1287.77L1328.18,1287.95L1328.21,1288.14L1328.24,1288.33L1328.26,1288.51L1328.3,1288.69L1328.33,1288.88L1328.37,1289.06L1328.4,1289.24L1328.44,1289.42L1328.49,1289.6L1328.53,1289.78L1328.58,1289.96L1328.63,1290.13L1328.68,1290.31L1328.73,1290.49L1328.79,1290.66L1328.85,1290.84L1328.91,1291.01L1328.97,1291.18L1329.03,1291.35L1329.1,1291.52L1329.16,1291.69L1329.24,1291.86L1329.31,1292.02L1329.38,1292.19L1329.46,1292.35L1329.53,1292.52L1329.61,1292.68L1329.69,1292.84L1329.78,1293L1329.86,1293.16L1329.95,1293.32L1330.04,1293.47L1330.13,1293.63L1330.22,1293.78L1330.32,1293.93L1330.41,1294.09L1330.51,1294.24L1330.61,1294.38L1330.71,1294.53L1330.81,1294.68L1330.92,1294.83L1331.02,1294.97L1331.13,1295.11L1331.24,1295.25L1331.35,1295.39L1331.47,1295.53L1331.58,1295.67L1331.7,1295.81L1331.82,1295.94L1331.93,1296.07L1332.06,1296.2L1332.18,1296.33L1332.3,1296.46L1332.43,1296.59L1332.56,1296.72L1332.68,1296.84L1332.81,1296.96L1332.95,1297.08L1333.08,1297.2L1333.21,1297.32L1333.35,1297.44L1333.49,1297.55L1333.62,1297.66L1333.77,1297.78L1333.91,1297.89L1334.05,1297.99L1334.19,1298.1L1334.34,1298.2L1334.49,1298.31L1334.63,1298.41L1334.78,1298.51L1334.93,1298.61L1335.09,1298.7L1335.24,1298.8L1335.39,1298.89L1335.55,1298.98L1335.7,1299.07L1335.86,1299.16L1336.02,1299.24L1336.18,1299.33L1336.34,1299.41L1336.5,1299.49L1336.67,1299.56L1336.83,1299.64L1337,1299.71L1337.16,1299.78L1337.33,1299.85L1337.5,1299.92L1337.67,1299.99L1337.84,1300.05L1338.01,1300.11L1338.18,1300.17L1338.36,1300.23L1338.53,1300.29L1338.71,1300.34L1338.88,1300.39L1339.06,1300.44L1339.24,1300.49L1339.42,1300.53L1339.6,1300.57L1339.78,1300.61L1339.96,1300.65L1340.14,1300.69L1340.32,1300.72L1340.51,1300.75L1340.69,1300.78L1340.88,1300.81L1341.06,1300.84L1341.25,1300.86L1341.44,1300.88L1341.62,1300.9L1341.81,1300.91L1342,1300.92L1342.19,1300.94L1342.38,1300.94L1342.58,1300.95L1342.77,1300.95L1342.96,1300.95L1343.15,1300.95L1343.34,1300.95L1343.54,1300.94L1343.73,1300.94L1343.91,1300.92L1344.11,1300.91L1344.29,1300.9L1344.48,1300.88L1344.67,1300.86L1344.86,1300.84L1345.04,1300.81L1345.23,1300.78L1345.41,1300.75L1345.6,1300.72L1345.78,1300.69L1345.96,1300.65L1346.14,1300.61L1346.32,1300.57L1346.5,1300.53L1346.68,1300.49L1346.86,1300.44L1347.04,1300.39L1347.21,1300.34L1347.39,1300.29L1347.56,1300.23L1347.74,1300.17L1347.91,1300.11L1348.08,1300.05L1348.25,1299.99L1348.42,1299.92L1348.59,1299.85L1348.76,1299.78L1348.92,1299.71L1349.09,1299.64L1349.25,1299.56L1349.41,1299.49L1349.58,1299.41L1349.74,1299.33L1349.9,1299.24L1350.06,1299.16L1350.21,1299.07L1350.37,1298.98L1350.53,1298.89L1350.68,1298.8L1350.83,1298.7L1350.99,1298.61L1351.14,1298.51L1351.29,1298.41L1351.43,1298.31L1351.58,1298.2L1351.73,1298.1L1351.87,1297.99L1352.01,1297.89L1352.15,1297.78L1352.29,1297.66L1352.43,1297.55L1352.57,1297.44L1352.7,1297.32L1352.84,1297.2L1352.97,1297.08L1353.1,1296.96L1353.23,1296.84L1353.36,1296.72L1353.49,1296.59L1353.62,1296.46L1353.74,1296.33L1353.86,1296.2L1353.98,1296.07L1354.1,1295.94L1354.22,1295.81L1354.34,1295.67L1354.45,1295.53L1354.57,1295.39L1354.68,1295.25L1354.79,1295.11L1354.89,1294.97L1355,1294.83L1355.11,1294.68L1355.21,1294.53L1355.31,1294.38L1355.41,1294.24L1355.51,1294.09L1355.6,1293.93L1355.7,1293.78L1355.79,1293.63L1355.88,1293.47L1355.97,1293.32L1356.06,1293.16L1356.14,1293L1356.22,1292.84L1356.31,1292.68L1356.38,1292.52L1356.46,1292.35L1356.54,1292.19L1356.61,1292.02L1356.68,1291.86L1356.75,1291.69L1356.82,1291.52L1356.89,1291.35L1356.95,1291.18L1357.01,1291.01L1357.07,1290.84L1357.13,1290.66L1357.18,1290.49L1357.24,1290.31L1357.29,1290.13L1357.34,1289.96L1357.39,1289.78L1357.43,1289.6L1357.47,1289.42L1357.51,1289.24L1357.55,1289.06L1357.59,1288.88L1357.62,1288.69L1357.65,1288.51L1357.68,1288.33L1357.71,1288.14L1357.74,1287.95L1357.76,1287.77L1357.78,1287.58L1357.8,1287.39L1357.81,1287.2L1357.83,1287.02L1357.84,1286.83L1357.84,1286.63L1357.85,1286.44L1357.85,1286.25L1357.86,1286.06L1357.85,1285.87L1357.85,1285.67L1357.84,1285.48L1357.84,1285.29L1357.83,1285.1L1357.81,1284.91L1357.8,1284.73L1357.78,1284.54L1357.76,1284.35L1357.74,1284.16L1357.71,1283.98L1357.68,1283.79L1357.65,1283.61L1357.62,1283.42L1357.59,1283.24L1357.55,1283.06L1357.51,1282.88L1357.47,1282.7L1357.43,1282.52L1357.39,1282.34L1357.34,1282.16L1357.29,1281.98L1357.24,1281.81L1357.18,1281.63L1357.13,1281.46L1357.07,1281.28L1357.01,1281.11L1356.95,1280.94L1356.89,1280.77L1356.82,1280.6L1356.75,1280.43L1356.68,1280.26L1356.61,1280.1L1356.54,1279.93L1356.46,1279.77L1356.38,1279.6L1356.31,1279.44L1356.22,1279.28L1356.14,1279.12L1356.06,1278.96L1355.97,1278.8L1355.88,1278.65L1355.79,1278.49L1355.7,1278.34L1355.6,1278.18L1355.51,1278.03L1355.41,1277.88L1355.31,1277.73L1355.21,1277.59L1355.11,1277.44L1355,1277.29L1354.89,1277.15L1354.79,1277.01L1354.68,1276.87L1354.57,1276.73L1354.45,1276.59L1354.34,1276.45L1354.22,1276.31L1354.1,1276.18L1353.98,1276.05L1353.86,1275.91L1353.74,1275.78L1353.62,1275.66L1353.49,1275.53L1353.36,1275.4L1353.23,1275.28L1353.1,1275.16L1352.97,1275.04L1352.84,1274.92L1352.7,1274.8L1352.57,1274.68L1352.43,1274.57L1352.29,1274.45L1352.15,1274.34L1352.01,1274.23L1351.87,1274.12L1351.73,1274.02L1351.58,1273.91L1351.43,1273.81L1351.29,1273.71L1351.14,1273.61L1350.99,1273.51L1350.83,1273.42L1350.68,1273.32L1350.53,1273.23L1350.37,1273.14L1350.21,1273.05L1350.06,1272.96L1349.9,1272.88L1349.74,1272.79L1349.58,1272.71L1349.41,1272.63L1349.25,1272.56L1349.09,1272.48L1348.92,1272.41L1348.76,1272.34L1348.59,1272.27L1348.42,1272.2L1348.25,1272.13L1348.08,1272.07L1347.91,1272.01L1347.74,1271.95L1347.56,1271.89L1347.39,1271.83L1347.21,1271.78L1347.04,1271.73L1346.86,1271.68L1346.68,1271.63L1346.5,1271.59L1346.32,1271.55L1346.14,1271.51L1345.96,1271.47L1345.78,1271.43L1345.6,1271.4L1345.41,1271.37L1345.23,1271.34L1345.04,1271.31L1344.86,1271.28L1344.67,1271.26L1344.48,1271.24L1344.29,1271.22L1344.11,1271.21L1343.91,1271.19L1343.73,1271.18L1343.54,1271.17L1343.34,1271.17L1343.15,1271.16L1342.96,1271.16L1342.77,1271.16Z" style="fill:rgb(24,24,24);"/>
            </g>
            <g transform="matrix(1.00301,0,0,1,-143.635,-486.407)">
                <rect x="1385.22" y="1286.96" width="53.909" height="58.724" style="fill:white;stroke:rgb(39,39,39);stroke-width:1.04px;stroke-linecap:butt;"/>
            </g>
            <g transform="matrix(1,0,0,1,-141.471,-487.924)">
                <circle cx="1404.74" cy="1300.94" r="8.83" style="fill:rgb(184,226,255);"/>
            </g>
            <g transform="matrix(1.01912,0,0,1.12262,-166.288,-643.666)">
                <path d="M1385.06,1286.96L1385.06,1277.65L1390.22,1277.65C1391.98,1280.33 1393.64,1280.33 1395.26,1277.65L1398.18,1277.65C1399.89,1280.51 1401.59,1280.39 1403.31,1277.65L1406.12,1277.65C1407.88,1280.74 1409.53,1280.38 1411.11,1277.65L1413.96,1277.65C1415.63,1280.69 1417.28,1280.64 1418.91,1277.65L1421.91,1277.65C1423.68,1280.45 1425.28,1280.36 1426.73,1277.65L1429.72,1277.65C1431.24,1280.58 1432.94,1280.4 1434.79,1277.65L1439.13,1277.65L1439.13,1286.96L1385.06,1286.96Z" style="fill:white;"/>
                <path d="M1390.3,1277.77L1390.38,1277.89L1390.47,1278.01L1390.55,1278.12L1390.63,1278.23L1390.71,1278.33L1390.8,1278.43L1390.88,1278.53L1390.96,1278.62L1391.04,1278.71L1391.12,1278.79L1391.2,1278.87L1391.28,1278.95L1391.32,1278.99L1391.36,1279.02L1391.4,1279.06L1391.44,1279.09L1391.48,1279.12L1391.52,1279.16L1391.56,1279.19L1391.6,1279.22L1391.64,1279.25L1391.68,1279.28L1391.72,1279.3L1391.76,1279.33L1391.8,1279.35L1391.84,1279.38L1391.88,1279.4L1391.92,1279.42L1391.96,1279.44L1392,1279.46L1392.04,1279.48L1392.08,1279.5L1392.12,1279.52L1392.16,1279.53L1392.2,1279.55L1392.24,1279.56L1392.28,1279.58L1392.32,1279.59L1392.36,1279.6L1392.4,1279.61L1392.44,1279.62L1392.48,1279.63L1392.52,1279.63L1392.56,1279.64L1392.6,1279.65L1392.64,1279.65L1392.67,1279.65L1392.71,1279.66L1392.75,1279.66L1392.79,1279.66L1392.83,1279.66L1392.87,1279.66L1392.91,1279.65L1392.95,1279.65L1392.99,1279.65L1393.03,1279.64L1393.07,1279.63L1393.11,1279.63L1393.14,1279.62L1393.18,1279.61L1393.22,1279.6L1393.26,1279.59L1393.3,1279.58L1393.34,1279.56L1393.38,1279.55L1393.42,1279.53L1393.46,1279.52L1393.5,1279.5L1393.53,1279.48L1393.57,1279.46L1393.61,1279.44L1393.65,1279.42L1393.69,1279.4L1393.73,1279.38L1393.77,1279.35L1393.8,1279.33L1393.84,1279.3L1393.88,1279.27L1393.92,1279.25L1393.96,1279.22L1394,1279.19L1394.04,1279.16L1394.07,1279.12L1394.11,1279.09L1394.15,1279.06L1394.19,1279.02L1394.23,1278.99L1394.27,1278.95L1394.3,1278.91L1394.34,1278.87L1394.42,1278.79L1394.5,1278.71L1394.57,1278.62L1394.65,1278.53L1394.73,1278.43L1394.8,1278.33L1394.88,1278.23L1394.95,1278.12L1395.03,1278.01L1395.11,1277.89L1395.18,1277.77L1395.26,1277.65L1398.18,1277.65L1398.26,1277.78L1398.34,1277.91L1398.42,1278.03L1398.5,1278.15L1398.58,1278.26L1398.66,1278.37L1398.74,1278.48L1398.82,1278.58L1398.9,1278.68L1398.98,1278.77L1399.02,1278.82L1399.06,1278.86L1399.1,1278.9L1399.14,1278.94L1399.18,1278.99L1399.22,1279.03L1399.26,1279.06L1399.3,1279.1L1399.34,1279.14L1399.38,1279.17L1399.42,1279.21L1399.46,1279.24L1399.5,1279.27L1399.54,1279.3L1399.58,1279.33L1399.62,1279.36L1399.66,1279.39L1399.7,1279.42L1399.74,1279.44L1399.78,1279.47L1399.82,1279.49L1399.86,1279.51L1399.9,1279.54L1399.94,1279.56L1399.98,1279.58L1400.02,1279.59L1400.06,1279.61L1400.1,1279.63L1400.14,1279.64L1400.18,1279.66L1400.22,1279.67L1400.26,1279.68L1400.3,1279.69L1400.34,1279.7L1400.38,1279.71L1400.42,1279.72L1400.46,1279.73L1400.5,1279.73L1400.54,1279.74L1400.58,1279.74L1400.62,1279.75L1400.66,1279.75L1400.7,1279.75L1400.74,1279.75L1400.78,1279.75L1400.82,1279.74L1400.86,1279.74L1400.9,1279.74L1400.94,1279.73L1400.98,1279.73L1401.02,1279.72L1401.06,1279.71L1401.1,1279.7L1401.14,1279.69L1401.18,1279.68L1401.22,1279.67L1401.26,1279.65L1401.3,1279.64L1401.34,1279.62L1401.38,1279.61L1401.42,1279.59L1401.46,1279.57L1401.5,1279.55L1401.54,1279.53L1401.58,1279.51L1401.62,1279.49L1401.66,1279.46L1401.7,1279.44L1401.74,1279.41L1401.78,1279.39L1401.82,1279.36L1401.86,1279.33L1401.9,1279.3L1401.94,1279.27L1401.98,1279.24L1402.02,1279.21L1402.06,1279.17L1402.1,1279.14L1402.14,1279.1L1402.18,1279.07L1402.22,1279.03L1402.26,1278.99L1402.34,1278.91L1402.42,1278.83L1402.5,1278.74L1402.58,1278.65L1402.66,1278.55L1402.74,1278.45L1402.82,1278.35L1402.9,1278.24L1402.99,1278.13L1403.07,1278.02L1403.14,1277.9L1403.23,1277.78L1403.31,1277.65L1406.12,1277.65L1406.21,1277.79L1406.29,1277.93L1406.37,1278.06L1406.45,1278.19L1406.54,1278.31L1406.62,1278.43L1406.7,1278.54L1406.78,1278.65L1406.82,1278.7L1406.86,1278.75L1406.9,1278.8L1406.94,1278.85L1406.98,1278.9L1407.02,1278.94L1407.06,1278.99L1407.1,1279.03L1407.14,1279.07L1407.18,1279.11L1407.22,1279.15L1407.26,1279.19L1407.3,1279.23L1407.34,1279.27L1407.38,1279.3L1407.42,1279.34L1407.46,1279.37L1407.5,1279.4L1407.54,1279.43L1407.58,1279.46L1407.62,1279.49L1407.66,1279.52L1407.7,1279.54L1407.74,1279.57L1407.78,1279.59L1407.82,1279.61L1407.86,1279.63L1407.9,1279.66L1407.94,1279.67L1407.98,1279.69L1408.02,1279.71L1408.06,1279.73L1408.1,1279.74L1408.14,1279.75L1408.18,1279.77L1408.22,1279.78L1408.26,1279.79L1408.3,1279.8L1408.33,1279.81L1408.37,1279.81L1408.41,1279.82L1408.45,1279.82L1408.49,1279.83L1408.53,1279.83L1408.57,1279.83L1408.61,1279.83L1408.65,1279.83L1408.68,1279.83L1408.72,1279.83L1408.76,1279.82L1408.8,1279.82L1408.84,1279.81L1408.88,1279.81L1408.92,1279.8L1408.96,1279.79L1409,1279.78L1409.03,1279.77L1409.07,1279.76L1409.11,1279.74L1409.15,1279.73L1409.19,1279.71L1409.23,1279.7L1409.26,1279.68L1409.3,1279.66L1409.34,1279.64L1409.38,1279.62L1409.42,1279.6L1409.45,1279.58L1409.49,1279.56L1409.53,1279.53L1409.57,1279.51L1409.61,1279.48L1409.65,1279.45L1409.68,1279.42L1409.72,1279.39L1409.76,1279.36L1409.8,1279.33L1409.84,1279.3L1409.87,1279.27L1409.91,1279.23L1409.95,1279.2L1409.99,1279.16L1410.06,1279.09L1410.14,1279.01L1410.21,1278.93L1410.29,1278.84L1410.36,1278.75L1410.44,1278.66L1410.51,1278.56L1410.59,1278.46L1410.66,1278.35L1410.74,1278.24L1410.81,1278.13L1410.88,1278.02L1410.96,1277.9L1411.03,1277.77L1411.11,1277.65L1413.96,1277.65L1414.04,1277.79L1414.12,1277.92L1414.2,1278.06L1414.27,1278.18L1414.35,1278.3L1414.43,1278.42L1414.51,1278.54L1414.59,1278.64L1414.66,1278.75L1414.74,1278.85L1414.82,1278.94L1414.86,1278.99L1414.9,1279.03L1414.94,1279.08L1414.98,1279.12L1415.02,1279.16L1415.06,1279.2L1415.09,1279.24L1415.13,1279.28L1415.17,1279.32L1415.21,1279.35L1415.25,1279.39L1415.29,1279.42L1415.33,1279.45L1415.37,1279.48L1415.4,1279.51L1415.44,1279.54L1415.48,1279.57L1415.52,1279.6L1415.56,1279.62L1415.6,1279.65L1415.64,1279.67L1415.68,1279.69L1415.72,1279.72L1415.76,1279.74L1415.79,1279.76L1415.83,1279.77L1415.87,1279.79L1415.91,1279.81L1415.95,1279.82L1415.99,1279.83L1416.03,1279.85L1416.07,1279.86L1416.1,1279.87L1416.14,1279.88L1416.18,1279.89L1416.22,1279.89L1416.26,1279.9L1416.3,1279.9L1416.34,1279.91L1416.37,1279.91L1416.41,1279.91L1416.45,1279.91L1416.49,1279.91L1416.53,1279.91L1416.57,1279.9L1416.61,1279.9L1416.64,1279.9L1416.68,1279.89L1416.72,1279.88L1416.76,1279.87L1416.8,1279.86L1416.84,1279.85L1416.88,1279.84L1416.91,1279.83L1416.95,1279.81L1416.99,1279.8L1417.03,1279.78L1417.07,1279.77L1417.11,1279.75L1417.15,1279.73L1417.18,1279.71L1417.22,1279.68L1417.26,1279.66L1417.3,1279.64L1417.34,1279.61L1417.38,1279.59L1417.41,1279.56L1417.45,1279.53L1417.49,1279.5L1417.53,1279.47L1417.57,1279.44L1417.61,1279.41L1417.64,1279.37L1417.68,1279.34L1417.72,1279.3L1417.76,1279.27L1417.8,1279.23L1417.84,1279.19L1417.88,1279.15L1417.91,1279.11L1417.95,1279.06L1417.99,1279.02L1418.03,1278.98L1418.07,1278.93L1418.14,1278.84L1418.22,1278.74L1418.3,1278.63L1418.37,1278.52L1418.45,1278.41L1418.53,1278.3L1418.6,1278.17L1418.68,1278.05L1418.75,1277.92L1418.83,1277.79L1418.91,1277.65L1421.91,1277.65L1422,1277.78L1422.08,1277.9L1422.16,1278.02L1422.24,1278.14L1422.33,1278.25L1422.41,1278.36L1422.49,1278.46L1422.57,1278.56L1422.65,1278.66L1422.73,1278.75L1422.81,1278.84L1422.89,1278.92L1422.97,1279L1423.01,1279.04L1423.05,1279.07L1423.09,1279.11L1423.13,1279.14L1423.17,1279.18L1423.21,1279.21L1423.25,1279.24L1423.29,1279.27L1423.33,1279.3L1423.37,1279.33L1423.41,1279.36L1423.44,1279.39L1423.48,1279.41L1423.52,1279.44L1423.56,1279.46L1423.6,1279.48L1423.64,1279.5L1423.68,1279.52L1423.72,1279.54L1423.76,1279.56L1423.8,1279.58L1423.83,1279.59L1423.87,1279.61L1423.91,1279.62L1423.95,1279.64L1423.99,1279.65L1424.03,1279.66L1424.06,1279.67L1424.1,1279.68L1424.14,1279.69L1424.18,1279.69L1424.22,1279.7L1424.25,1279.71L1424.29,1279.71L1424.33,1279.71L1424.37,1279.71L1424.4,1279.72L1424.44,1279.72L1424.48,1279.71L1424.52,1279.71L1424.56,1279.71L1424.59,1279.71L1424.63,1279.7L1424.67,1279.69L1424.7,1279.69L1424.74,1279.68L1424.78,1279.67L1424.82,1279.66L1424.85,1279.65L1424.89,1279.64L1424.93,1279.62L1424.96,1279.61L1425,1279.6L1425.04,1279.58L1425.07,1279.56L1425.11,1279.54L1425.15,1279.53L1425.18,1279.51L1425.22,1279.48L1425.26,1279.46L1425.29,1279.44L1425.33,1279.41L1425.36,1279.39L1425.4,1279.36L1425.44,1279.34L1425.47,1279.31L1425.51,1279.28L1425.54,1279.25L1425.58,1279.22L1425.62,1279.19L1425.65,1279.15L1425.69,1279.12L1425.72,1279.09L1425.76,1279.05L1425.79,1279.01L1425.83,1278.98L1425.9,1278.9L1425.97,1278.81L1426.04,1278.73L1426.11,1278.64L1426.18,1278.54L1426.25,1278.44L1426.32,1278.34L1426.39,1278.24L1426.46,1278.13L1426.53,1278.01L1426.59,1277.89L1426.66,1277.77L1426.73,1277.65L1429.72,1277.65L1429.79,1277.78L1429.86,1277.91L1429.93,1278.04L1430,1278.16L1430.08,1278.28L1430.15,1278.39L1430.22,1278.5L1430.29,1278.6L1430.33,1278.65L1430.37,1278.7L1430.4,1278.75L1430.44,1278.8L1430.48,1278.84L1430.52,1278.89L1430.55,1278.93L1430.59,1278.97L1430.63,1279.01L1430.66,1279.06L1430.7,1279.09L1430.74,1279.13L1430.78,1279.17L1430.81,1279.2L1430.85,1279.24L1430.89,1279.27L1430.93,1279.31L1430.96,1279.34L1431,1279.37L1431.04,1279.4L1431.08,1279.42L1431.12,1279.45L1431.15,1279.48L1431.19,1279.5L1431.23,1279.53L1431.27,1279.55L1431.31,1279.57L1431.35,1279.59L1431.38,1279.61L1431.42,1279.63L1431.46,1279.65L1431.5,1279.66L1431.54,1279.68L1431.58,1279.69L1431.62,1279.71L1431.65,1279.72L1431.69,1279.73L1431.73,1279.74L1431.77,1279.75L1431.81,1279.76L1431.85,1279.76L1431.89,1279.77L1431.93,1279.77L1431.97,1279.78L1432.01,1279.78L1432.05,1279.78L1432.09,1279.78L1432.13,1279.78L1432.17,1279.78L1432.21,1279.78L1432.25,1279.77L1432.29,1279.77L1432.33,1279.76L1432.37,1279.76L1432.41,1279.75L1432.45,1279.74L1432.49,1279.73L1432.53,1279.72L1432.57,1279.71L1432.61,1279.69L1432.65,1279.68L1432.69,1279.66L1432.73,1279.65L1432.77,1279.63L1432.81,1279.61L1432.85,1279.6L1432.89,1279.58L1432.93,1279.55L1432.97,1279.53L1433.02,1279.51L1433.06,1279.49L1433.1,1279.46L1433.14,1279.43L1433.18,1279.41L1433.22,1279.38L1433.26,1279.35L1433.3,1279.32L1433.35,1279.29L1433.39,1279.26L1433.43,1279.22L1433.47,1279.19L1433.51,1279.15L1433.55,1279.12L1433.6,1279.08L1433.68,1279L1433.76,1278.92L1433.85,1278.84L1433.93,1278.75L1434.02,1278.66L1434.1,1278.56L1434.19,1278.46L1434.27,1278.36L1434.36,1278.25L1434.44,1278.13L1434.53,1278.02L1434.62,1277.9L1434.7,1277.78L1434.79,1277.65L1439.13,1277.65L1439.13,1286.96L1385.06,1286.96L1385.06,1277.65L1390.22,1277.65L1390.3,1277.77ZM1386.08,1278.58L1386.08,1286.04L1438.11,1286.04L1438.11,1278.58L1435.35,1278.58L1435.29,1278.66L1435.19,1278.78L1435.1,1278.9L1435,1279.02L1434.9,1279.13L1434.81,1279.24L1434.71,1279.35L1434.61,1279.45L1434.51,1279.55L1434.41,1279.65L1434.32,1279.74L1434.26,1279.79L1434.21,1279.83L1434.16,1279.87L1434.11,1279.92L1434.06,1279.96L1434,1280L1433.95,1280.04L1433.89,1280.08L1433.84,1280.12L1433.79,1280.15L1433.73,1280.19L1433.67,1280.23L1433.62,1280.26L1433.56,1280.29L1433.51,1280.33L1433.45,1280.36L1433.39,1280.39L1433.33,1280.41L1433.27,1280.44L1433.21,1280.47L1433.15,1280.5L1433.09,1280.52L1433.02,1280.54L1432.96,1280.57L1432.9,1280.59L1432.83,1280.61L1432.77,1280.62L1432.7,1280.64L1432.63,1280.65L1432.57,1280.67L1432.5,1280.68L1432.43,1280.69L1432.36,1280.69L1432.3,1280.7L1432.23,1280.71L1432.16,1280.71L1432.09,1280.71L1432.02,1280.71L1431.95,1280.71L1431.88,1280.7L1431.81,1280.69L1431.74,1280.69L1431.67,1280.68L1431.61,1280.66L1431.54,1280.65L1431.47,1280.64L1431.4,1280.62L1431.34,1280.6L1431.27,1280.58L1431.21,1280.56L1431.14,1280.53L1431.08,1280.51L1431.02,1280.48L1430.96,1280.45L1430.9,1280.43L1430.84,1280.4L1430.78,1280.36L1430.72,1280.33L1430.66,1280.3L1430.6,1280.26L1430.55,1280.23L1430.49,1280.19L1430.44,1280.15L1430.38,1280.11L1430.33,1280.07L1430.28,1280.03L1430.23,1279.98L1430.18,1279.94L1430.13,1279.89L1430.08,1279.85L1430.03,1279.8L1429.98,1279.76L1429.93,1279.71L1429.89,1279.66L1429.84,1279.61L1429.79,1279.56L1429.75,1279.5L1429.7,1279.45L1429.66,1279.4L1429.61,1279.34L1429.57,1279.29L1429.53,1279.23L1429.48,1279.17L1429.44,1279.11L1429.36,1278.99L1429.27,1278.87L1429.19,1278.74L1429.11,1278.61L1429.09,1278.58L1427.35,1278.58L1427.35,1278.58L1427.27,1278.7L1427.19,1278.82L1427.12,1278.94L1427.03,1279.05L1426.95,1279.16L1426.87,1279.27L1426.79,1279.37L1426.7,1279.47L1426.62,1279.57L1426.57,1279.62L1426.52,1279.66L1426.48,1279.71L1426.43,1279.76L1426.39,1279.8L1426.34,1279.84L1426.29,1279.89L1426.24,1279.93L1426.19,1279.97L1426.14,1280.01L1426.1,1280.05L1426.04,1280.09L1425.99,1280.12L1425.94,1280.16L1425.89,1280.19L1425.83,1280.23L1425.78,1280.26L1425.72,1280.29L1425.67,1280.32L1425.61,1280.35L1425.55,1280.38L1425.49,1280.41L1425.43,1280.44L1425.37,1280.46L1425.31,1280.48L1425.25,1280.51L1425.19,1280.53L1425.12,1280.55L1425.06,1280.56L1424.99,1280.58L1424.93,1280.59L1424.86,1280.61L1424.79,1280.62L1424.73,1280.63L1424.66,1280.63L1424.59,1280.64L1424.53,1280.64L1424.46,1280.64L1424.39,1280.64L1424.32,1280.64L1424.25,1280.64L1424.19,1280.63L1424.12,1280.63L1424.05,1280.62L1423.99,1280.61L1423.92,1280.59L1423.86,1280.58L1423.79,1280.57L1423.73,1280.55L1423.66,1280.53L1423.6,1280.51L1423.54,1280.49L1423.48,1280.46L1423.41,1280.44L1423.35,1280.41L1423.29,1280.39L1423.24,1280.36L1423.18,1280.33L1423.12,1280.3L1423.06,1280.27L1423.01,1280.24L1422.95,1280.2L1422.9,1280.17L1422.84,1280.13L1422.79,1280.1L1422.73,1280.06L1422.68,1280.02L1422.63,1279.98L1422.58,1279.94L1422.53,1279.9L1422.48,1279.86L1422.42,1279.82L1422.38,1279.77L1422.33,1279.73L1422.28,1279.68L1422.23,1279.63L1422.13,1279.54L1422.03,1279.44L1421.94,1279.34L1421.85,1279.23L1421.75,1279.12L1421.66,1279.01L1421.57,1278.89L1421.48,1278.77L1421.39,1278.65L1421.34,1278.58L1419.53,1278.58L1419.49,1278.63L1419.41,1278.76L1419.32,1278.89L1419.24,1279.02L1419.15,1279.14L1419.06,1279.26L1418.97,1279.38L1418.89,1279.49L1418.84,1279.54L1418.79,1279.59L1418.75,1279.65L1418.7,1279.7L1418.65,1279.75L1418.61,1279.8L1418.56,1279.85L1418.51,1279.9L1418.46,1279.94L1418.41,1279.99L1418.36,1280.03L1418.31,1280.08L1418.26,1280.12L1418.21,1280.16L1418.16,1280.21L1418.11,1280.25L1418.05,1280.29L1418,1280.32L1417.94,1280.36L1417.89,1280.4L1417.83,1280.43L1417.77,1280.47L1417.71,1280.5L1417.65,1280.53L1417.6,1280.56L1417.54,1280.59L1417.47,1280.62L1417.41,1280.65L1417.35,1280.67L1417.28,1280.69L1417.22,1280.71L1417.15,1280.74L1417.09,1280.76L1417.02,1280.77L1416.95,1280.79L1416.88,1280.8L1416.81,1280.81L1416.74,1280.82L1416.67,1280.83L1416.6,1280.83L1416.53,1280.84L1416.46,1280.84L1416.39,1280.84L1416.32,1280.84L1416.25,1280.83L1416.18,1280.83L1416.11,1280.82L1416.04,1280.81L1415.97,1280.79L1415.9,1280.78L1415.83,1280.76L1415.76,1280.75L1415.7,1280.73L1415.63,1280.7L1415.57,1280.68L1415.5,1280.66L1415.44,1280.63L1415.38,1280.61L1415.32,1280.58L1415.26,1280.55L1415.2,1280.52L1415.14,1280.48L1415.08,1280.45L1415.02,1280.41L1414.97,1280.38L1414.91,1280.34L1414.86,1280.3L1414.8,1280.27L1414.75,1280.22L1414.69,1280.18L1414.64,1280.14L1414.59,1280.1L1414.54,1280.05L1414.49,1280.01L1414.44,1279.96L1414.39,1279.91L1414.34,1279.87L1414.29,1279.82L1414.24,1279.77L1414.2,1279.72L1414.15,1279.67L1414.1,1279.61L1414.06,1279.56L1414.01,1279.5L1413.92,1279.39L1413.83,1279.28L1413.74,1279.16L1413.65,1279.04L1413.56,1278.91L1413.47,1278.78L1413.39,1278.64L1413.35,1278.58L1411.71,1278.58L1411.69,1278.61L1411.61,1278.73L1411.53,1278.85L1411.44,1278.97L1411.36,1279.08L1411.27,1279.19L1411.18,1279.3L1411.1,1279.41L1411.01,1279.51L1410.92,1279.61L1410.83,1279.7L1410.74,1279.8L1410.68,1279.84L1410.64,1279.89L1410.59,1279.93L1410.54,1279.97L1410.49,1280.02L1410.44,1280.06L1410.39,1280.1L1410.34,1280.14L1410.29,1280.17L1410.23,1280.21L1410.18,1280.25L1410.13,1280.29L1410.07,1280.32L1410.02,1280.35L1409.96,1280.39L1409.9,1280.42L1409.85,1280.45L1409.79,1280.48L1409.73,1280.51L1409.67,1280.53L1409.61,1280.56L1409.55,1280.58L1409.48,1280.61L1409.42,1280.63L1409.36,1280.65L1409.29,1280.67L1409.22,1280.68L1409.16,1280.7L1409.09,1280.71L1409.02,1280.73L1408.95,1280.74L1408.88,1280.75L1408.82,1280.75L1408.75,1280.76L1408.68,1280.76L1408.61,1280.76L1408.54,1280.76L1408.47,1280.76L1408.4,1280.75L1408.33,1280.75L1408.26,1280.74L1408.19,1280.73L1408.12,1280.71L1408.05,1280.7L1407.99,1280.68L1407.92,1280.67L1407.85,1280.65L1407.79,1280.63L1407.72,1280.6L1407.66,1280.58L1407.59,1280.55L1407.53,1280.53L1407.47,1280.5L1407.41,1280.47L1407.35,1280.44L1407.29,1280.4L1407.23,1280.37L1407.17,1280.34L1407.11,1280.3L1407.06,1280.26L1407,1280.23L1406.94,1280.19L1406.89,1280.14L1406.84,1280.1L1406.78,1280.06L1406.73,1280.02L1406.68,1279.97L1406.62,1279.93L1406.57,1279.88L1406.52,1279.83L1406.47,1279.78L1406.42,1279.73L1406.37,1279.68L1406.32,1279.63L1406.28,1279.58L1406.23,1279.53L1406.18,1279.47L1406.13,1279.41L1406.08,1279.36L1406.04,1279.3L1405.99,1279.24L1405.94,1279.18L1405.85,1279.06L1405.76,1278.93L1405.66,1278.8L1405.57,1278.66L1405.52,1278.58L1403.88,1278.58L1403.84,1278.63L1403.76,1278.76L1403.66,1278.88L1403.57,1278.99L1403.48,1279.11L1403.39,1279.22L1403.3,1279.32L1403.2,1279.43L1403.11,1279.53L1403.01,1279.62L1402.96,1279.67L1402.91,1279.72L1402.86,1279.76L1402.81,1279.81L1402.76,1279.85L1402.71,1279.89L1402.66,1279.93L1402.61,1279.98L1402.55,1280.02L1402.5,1280.06L1402.45,1280.09L1402.39,1280.13L1402.34,1280.17L1402.28,1280.2L1402.23,1280.24L1402.17,1280.27L1402.11,1280.3L1402.05,1280.33L1401.99,1280.36L1401.93,1280.39L1401.88,1280.42L1401.82,1280.45L1401.75,1280.47L1401.69,1280.5L1401.63,1280.52L1401.56,1280.54L1401.5,1280.56L1401.43,1280.58L1401.37,1280.6L1401.3,1280.61L1401.24,1280.62L1401.17,1280.64L1401.1,1280.65L1401.04,1280.66L1400.97,1280.66L1400.9,1280.67L1400.83,1280.67L1400.76,1280.67L1400.69,1280.68L1400.62,1280.67L1400.56,1280.67L1400.49,1280.67L1400.42,1280.66L1400.35,1280.65L1400.28,1280.64L1400.21,1280.63L1400.15,1280.62L1400.08,1280.6L1400.01,1280.58L1399.95,1280.57L1399.88,1280.55L1399.82,1280.52L1399.76,1280.5L1399.69,1280.48L1399.63,1280.45L1399.57,1280.42L1399.51,1280.4L1399.45,1280.37L1399.39,1280.34L1399.33,1280.31L1399.27,1280.27L1399.21,1280.24L1399.16,1280.2L1399.1,1280.17L1399.05,1280.13L1398.99,1280.09L1398.94,1280.05L1398.88,1280.01L1398.83,1279.97L1398.78,1279.93L1398.73,1279.89L1398.67,1279.84L1398.62,1279.8L1398.57,1279.75L1398.52,1279.7L1398.47,1279.66L1398.42,1279.61L1398.38,1279.56L1398.33,1279.51L1398.28,1279.46L1398.23,1279.4L1398.18,1279.35L1398.09,1279.24L1398,1279.13L1397.9,1279.01L1397.81,1278.89L1397.72,1278.77L1397.63,1278.64L1397.59,1278.58L1395.84,1278.58L1395.82,1278.61L1395.73,1278.73L1395.65,1278.85L1395.56,1278.97L1395.47,1279.08L1395.38,1279.19L1395.29,1279.29L1395.2,1279.39L1395.11,1279.49L1395.06,1279.54L1395.01,1279.58L1394.96,1279.63L1394.92,1279.67L1394.87,1279.72L1394.82,1279.76L1394.77,1279.8L1394.72,1279.85L1394.67,1279.89L1394.62,1279.93L1394.57,1279.97L1394.51,1280L1394.46,1280.04L1394.41,1280.08L1394.35,1280.11L1394.3,1280.15L1394.24,1280.18L1394.18,1280.21L1394.13,1280.24L1394.07,1280.27L1394.01,1280.3L1393.95,1280.33L1393.89,1280.36L1393.83,1280.38L1393.77,1280.4L1393.71,1280.43L1393.65,1280.45L1393.59,1280.47L1393.52,1280.49L1393.46,1280.5L1393.39,1280.52L1393.33,1280.53L1393.26,1280.55L1393.19,1280.56L1393.13,1280.57L1393.06,1280.57L1393,1280.58L1392.93,1280.58L1392.86,1280.59L1392.79,1280.59L1392.73,1280.59L1392.66,1280.58L1392.59,1280.58L1392.53,1280.57L1392.46,1280.57L1392.39,1280.56L1392.33,1280.55L1392.26,1280.53L1392.19,1280.52L1392.13,1280.51L1392.07,1280.49L1392,1280.47L1391.94,1280.45L1391.88,1280.43L1391.82,1280.41L1391.75,1280.38L1391.69,1280.36L1391.63,1280.33L1391.57,1280.31L1391.52,1280.28L1391.46,1280.25L1391.4,1280.22L1391.34,1280.19L1391.29,1280.15L1391.23,1280.12L1391.18,1280.09L1391.12,1280.05L1391.07,1280.02L1391.01,1279.98L1390.96,1279.94L1390.91,1279.9L1390.86,1279.86L1390.81,1279.82L1390.75,1279.78L1390.7,1279.73L1390.65,1279.69L1390.6,1279.65L1390.55,1279.6L1390.45,1279.51L1390.36,1279.41L1390.26,1279.31L1390.17,1279.21L1390.07,1279.1L1389.98,1278.99L1389.89,1278.88L1389.8,1278.76L1389.7,1278.64L1389.66,1278.58L1386.08,1278.58Z" style="fill:rgb(39,39,39);"/>
            </g>
            <g transform="matrix(1.02466,0,0,0.78081,-332.958,-199.908)">
                <rect x="1541.24" y="1279.26" width="51.75" height="4.151" style="fill:white;"/>
            </g>
            <g transform="matrix(1,0,0,1,-139.298,-486.407)">
                <path d="M1428.19,1292.62C1427.66,1291.22 1426.92,1290.13 1425.51,1290.08C1423.29,1290.4 1422.4,1291.48 1422.62,1293.08C1422.8,1294.97 1423.82,1295.67 1425.29,1295.73C1427.06,1295.75 1428.12,1296.65 1428.38,1298.56C1428.39,1300.66 1427.3,1301.53 1425.63,1301.75C1424.51,1301.91 1423.34,1301.17 1422.13,1299.42" style="fill:none;stroke:rgb(40,40,40);stroke-width:1.46px;stroke-linecap:butt;"/>
            </g>
            <g transform="matrix(1,0,0,1,-139.298,-486.292)">
                <path d="M1393.73,1318.95L1429.6,1318.95" style="fill:none;stroke:rgb(163,165,171);stroke-width:1.87px;"/>
            </g>
            <g transform="matrix(1,0,0,1,-139.298,-478.351)">
                <path d="M1393.73,1318.95L1429.6,1318.95" style="fill:none;stroke:rgb(163,165,171);stroke-width:1.87px;"/>
            </g>
            <g transform="matrix(0.362854,0,0,1,771.567,-470.348)">
                <path d="M1393.73,1318.95L1429.6,1318.95" style="fill:none;stroke:rgb(163,165,171);stroke-width:2.49px;"/>
            </g>
            <g transform="matrix(1,0,0,1.10824,-139.298,-626.615)">
                <path d="M1425.51,1290.08L1425.51,1301.77" style="fill:none;stroke:rgb(82,82,82);stroke-width:1.38px;"/>
            </g>
            <g transform="matrix(1,0,0,1,-104.29,-437.267)">
                <path d="M1428.19,1292.62C1427.66,1291.22 1426.92,1290.13 1425.51,1290.08C1423.29,1290.4 1422.4,1291.48 1422.62,1293.08C1422.8,1294.97 1423.82,1295.67 1425.29,1295.73C1427.06,1295.75 1428.12,1296.65 1428.38,1298.56C1428.39,1300.66 1427.3,1301.53 1425.63,1301.75C1424.51,1301.91 1423.34,1301.17 1422.13,1299.42" style="fill:none;stroke:rgb(24,24,24);stroke-width:1.46px;stroke-linecap:butt;"/>
            </g>
            <g transform="matrix(1,0,0,1.10824,-104.29,-577.475)">
                <path d="M1425.51,1290.08L1425.51,1301.77" style="fill:none;stroke:rgb(24,24,24);stroke-width:1.38px;"/>
            </g>
            <g transform="matrix(1.34947,0,0,1.34947,-721.11,-951.48)">
                <path d="M1428.19,1292.62C1427.66,1291.22 1426.92,1290.13 1425.51,1290.08C1423.29,1290.4 1422.4,1291.48 1422.62,1293.08C1422.8,1294.97 1423.82,1295.67 1425.29,1295.73C1427.06,1295.75 1428.12,1296.65 1428.38,1298.56C1428.39,1300.66 1427.3,1301.53 1425.63,1301.75C1424.51,1301.91 1423.34,1301.17 1422.13,1299.42" style="fill:none;stroke:rgb(24,24,24);stroke-width:1.08px;stroke-linecap:butt;"/>
            </g>
            <g transform="matrix(1.34947,0,0,1.49553,-721.11,-1140.69)">
                <path d="M1425.51,1290.08L1425.51,1301.77" style="fill:none;stroke:rgb(24,24,24);stroke-width:1.02px;"/>
            </g>
            <g transform="matrix(1,0,0,1,-138.988,-486.329)">
                <path d="M1443.67,1246.55L1451.6,1246.55" style="fill:none;stroke:rgb(24,24,24);stroke-width:1.04px;"/>
            </g>
            <g transform="matrix(0.899383,0,0,1,6.27014,-484.339)">
                <path d="M1443.67,1246.55L1451.6,1246.55" style="fill:none;stroke:rgb(24,24,24);stroke-width:1.1px;"/>
            </g>
            <g transform="matrix(1,0,0,1,-228.367,-405.319)">
                <path d="M1451.77,1241.43C1443.96,1240.44 1442.14,1252.78 1451.67,1252.72" style="fill:none;stroke:rgb(24,24,24);stroke-width:1.04px;"/>
            </g>
            <g transform="matrix(1,0,0,1,-228.003,-405.299)">
                <path d="M1443.67,1246.55L1451.6,1246.55" style="fill:none;stroke:rgb(24,24,24);stroke-width:1.04px;"/>
            </g>
            <g transform="matrix(0.899383,0,0,1,-82.7453,-403.309)">
                <path d="M1443.67,1246.55L1451.6,1246.55" style="fill:none;stroke:rgb(24,24,24);stroke-width:1.1px;"/>
            </g>
            <g transform="matrix(1.27117,0,0,1.22846,861.802,-225.221)">
                <rect x="245.155" y="779.157" width="148.663" height="153.832" style="fill:none;"/>
            </g>
        </g>
    </g>
</svg>
