<?xml version="1.0" encoding="UTF-8" standalone="no"?>
<!DOCTYPE svg PUBLIC "-//W3C//DTD SVG 1.1//EN" "http://www.w3.org/Graphics/SVG/1.1/DTD/svg11.dtd">
<svg width="100%" height="100%" viewBox="0 0 189 189" version="1.1" xmlns="http://www.w3.org/2000/svg" xmlns:xlink="http://www.w3.org/1999/xlink" xml:space="preserve" style="fill-rule:evenodd;clip-rule:evenodd;stroke-linecap:round;stroke-linejoin:round;stroke-miterlimit:1.5;">
    <g transform="matrix(1,0,0,1,-225.246,-757.002)">
        <g>
            <g transform="matrix(1.11967,0,0,1.03224,-277.696,-499.404)">
                <path d="M561.793,1324.6C561.793,1321.49 559.469,1318.97 556.606,1318.97L508.57,1318.97C505.707,1318.97 503.382,1321.49 503.382,1324.6L503.382,1337.1C503.382,1340.21 505.707,1342.73 508.57,1342.73L556.606,1342.73C559.469,1342.73 561.793,1340.21 561.793,1337.1L561.793,1324.6Z" style="fill:white;stroke:black;stroke-width:0.58px;"/>
            </g>
            <g transform="matrix(1,0,0,1,-195.314,-461.701)">
                <path d="M534.938,1323.79L546.641,1323.79C546.641,1323.79 546.641,1335.95 546.641,1343.15C546.641,1344.52 546.097,1345.83 545.129,1346.8C544.16,1347.77 542.847,1348.31 541.477,1348.31C541.477,1348.31 541.476,1348.31 541.476,1348.31C537.865,1348.31 534.938,1345.38 534.938,1341.77C534.938,1334.51 534.938,1323.79 534.938,1323.79Z" style="fill:rgb(170,176,187);stroke:black;stroke-width:0.63px;stroke-linejoin:miter;"/>
            </g>
            <g transform="matrix(1.0004,0,0,0.976794,-124.945,-431.122)">
                <rect x="410.398" y="1275.73" width="54.309" height="67.004" style="fill:white;"/>
                <path d="M464.707,1342.73L410.398,1342.73L410.398,1275.73L464.707,1275.73L464.707,1342.73ZM411.022,1276.37L411.022,1342.09L464.082,1342.09L464.082,1276.37L411.022,1276.37Z"/>
            </g>
            <g transform="matrix(0.989202,0,0,1,-189.819,-461.701)">
                <path d="M534.938,1341.93C534.938,1340.91 534.103,1340.08 533.075,1340.08L483.104,1340.08C482.075,1340.08 481.24,1340.91 481.24,1341.93C481.24,1342.94 482.075,1343.77 483.104,1343.77L533.075,1343.77C534.103,1343.77 534.938,1342.94 534.938,1341.93Z" style="fill:white;"/>
            </g>
            <g transform="matrix(1,0,0,1,-124.418,-462.65)">
                <circle cx="424.3" cy="1318.56" r="4.153" style="fill:white;stroke:rgb(49,49,49);stroke-width:1.25px;stroke-linecap:butt;stroke-linejoin:miter;"/>
            </g>
            <g transform="matrix(1,0,0,1,-124.418,-449.736)">
                <circle cx="424.3" cy="1318.56" r="4.153" style="fill:white;stroke:rgb(49,49,49);stroke-width:1.25px;stroke-linecap:butt;stroke-linejoin:miter;"/>
            </g>
            <g transform="matrix(1.0034,0,0,1,-125.257,-461.602)">
                <path d="M433.628,1291.42L453.548,1291.42" style="fill:none;stroke:rgb(42,42,42);stroke-width:1.25px;stroke-linecap:butt;stroke-linejoin:miter;"/>
            </g>
            <g transform="matrix(1.0034,0,0,1,-125.257,-448.439)">
                <path d="M433.628,1291.42L453.548,1291.42" style="fill:none;stroke:rgb(42,42,42);stroke-width:1.25px;stroke-linecap:butt;stroke-linejoin:miter;"/>
            </g>
            <g transform="matrix(1.0034,0,0,1,-125.257,-435.504)">
                <path d="M433.628,1291.42L453.548,1291.42" style="fill:none;stroke:rgb(42,42,42);stroke-width:1.25px;stroke-linecap:butt;stroke-linejoin:miter;"/>
            </g>
            <g transform="matrix(1.0034,0,0,1,-125.257,-422.59)">
                <path d="M433.628,1291.42L453.548,1291.42" style="fill:none;stroke:rgb(42,42,42);stroke-width:1.25px;stroke-linecap:butt;stroke-linejoin:miter;"/>
            </g>
            <g transform="matrix(1,0,0,1,-123.728,-461.89)">
                <path d="M419.679,1291.19L422.504,1293.98L427.542,1288.16" style="fill:none;stroke:rgb(28,203,127);stroke-width:1.25px;stroke-linecap:butt;stroke-linejoin:miter;"/>
            </g>
            <g transform="matrix(1,0,0,1,-121.052,-500.13)">
                <path d="M419.517,1291.05L422.504,1293.98L429.732,1286.92" style="fill:none;stroke:black;stroke-width:1.25px;stroke-linecap:butt;stroke-linejoin:miter;"/>
            </g>
            <g transform="matrix(1,0,0,1,-61.2291,-480.065)">
                <path d="M419.517,1291.05L422.504,1293.98L429.732,1286.92" style="fill:none;stroke:black;stroke-width:1.25px;stroke-linecap:butt;stroke-linejoin:miter;"/>
            </g>
            <g transform="matrix(1,0,0,1,-64.6471,-443.177)">
                <path d="M419.839,1291.65L422.504,1293.98L427.461,1288.88" style="fill:none;stroke:black;stroke-width:1.25px;stroke-linecap:butt;stroke-linejoin:miter;"/>
            </g>
            <g transform="matrix(1,0,0,1,-34.6577,-410.795)">
                <path d="M419.839,1291.65L422.504,1293.98L427.461,1288.88" style="fill:none;stroke:black;stroke-width:1.25px;stroke-linecap:butt;stroke-linejoin:miter;"/>
            </g>
            <g transform="matrix(1,0,0,1,-127.616,-387.907)">
                <path d="M419.839,1291.65L422.504,1293.98L427.461,1288.88" style="fill:none;stroke:black;stroke-width:1.25px;stroke-linecap:butt;stroke-linejoin:miter;"/>
            </g>
            <g transform="matrix(1,0,0,1,-174.684,-425.816)">
                <path d="M419.839,1291.65L422.504,1293.98L427.461,1288.88" style="fill:none;stroke:black;stroke-width:1.25px;stroke-linecap:butt;stroke-linejoin:miter;"/>
            </g>
            <g transform="matrix(1,0,0,1,-123.728,-448.832)">
                <path d="M419.679,1291.19L422.504,1293.98L427.542,1288.16" style="fill:none;stroke:rgb(28,203,127);stroke-width:1.25px;stroke-linecap:butt;stroke-linejoin:miter;"/>
            </g>
            <g transform="matrix(0.842067,0,0,0.842067,-56.8055,-256.032)">
                <path d="M383.195,1281.17L383.285,1281.17L383.374,1281.17L383.463,1281.18L383.552,1281.18L383.64,1281.19L383.728,1281.2L383.817,1281.2L383.904,1281.21L383.992,1281.23L384.079,1281.24L384.165,1281.25L384.252,1281.26L384.337,1281.28L384.423,1281.29L384.509,1281.31L384.593,1281.33L384.681,1281.35L384.846,1281.39L385.012,1281.43L385.177,1281.48L385.34,1281.54L385.501,1281.59L385.66,1281.65L385.818,1281.72L385.973,1281.79L386.127,1281.86L386.278,1281.93L386.427,1282.01L386.574,1282.09L386.719,1282.18L386.862,1282.27L387.002,1282.36L387.139,1282.46L387.275,1282.56L387.408,1282.66L387.538,1282.76L387.665,1282.87L387.79,1282.98L387.913,1283.09L388.032,1283.21L388.149,1283.33L388.262,1283.45L388.373,1283.58L388.481,1283.7L388.586,1283.84L388.688,1283.97L388.787,1284.1L388.882,1284.24L388.975,1284.38L389.064,1284.52L389.149,1284.67L389.231,1284.82L389.31,1284.96L389.385,1285.12L389.457,1285.27L389.525,1285.42L389.59,1285.58L389.65,1285.74L389.707,1285.9L389.76,1286.07L389.809,1286.23L389.854,1286.4L389.894,1286.56L389.914,1286.65L389.932,1286.73L389.949,1286.82L389.965,1286.9L389.98,1286.99L389.993,1287.08L390.006,1287.16L390.018,1287.25L390.028,1287.34L390.038,1287.43L390.046,1287.51L390.053,1287.6L390.059,1287.69L390.065,1287.78L390.068,1287.87L390.071,1287.96L390.073,1288.05L390.074,1288.14L390.073,1288.23L390.071,1288.32L390.068,1288.4L390.065,1288.49L390.059,1288.58L390.053,1288.67L390.046,1288.76L390.038,1288.85L390.028,1288.93L390.018,1289.02L390.006,1289.11L389.993,1289.2L389.98,1289.28L389.965,1289.37L389.949,1289.45L389.932,1289.54L389.914,1289.62L389.894,1289.71L389.854,1289.88L389.809,1290.04L389.76,1290.21L389.707,1290.37L389.65,1290.53L389.59,1290.69L389.525,1290.85L389.457,1291L389.385,1291.16L389.31,1291.31L389.231,1291.46L389.149,1291.61L389.063,1291.75L388.975,1291.89L388.882,1292.03L388.787,1292.17L388.688,1292.31L388.586,1292.44L388.481,1292.57L388.373,1292.7L388.262,1292.82L388.149,1292.94L388.032,1293.06L387.912,1293.18L387.79,1293.29L387.665,1293.4L387.538,1293.51L387.408,1293.62L387.275,1293.72L387.14,1293.82L387.002,1293.91L386.861,1294.01L386.719,1294.1L386.575,1294.18L386.427,1294.26L386.278,1294.34L386.127,1294.42L385.973,1294.49L385.818,1294.56L385.66,1294.62L385.501,1294.68L385.34,1294.74L385.177,1294.79L385.012,1294.84L384.846,1294.88L384.682,1294.92L384.594,1294.94L384.509,1294.96L384.423,1294.98L384.337,1295L384.252,1295.01L384.165,1295.03L384.078,1295.04L383.992,1295.05L383.904,1295.06L383.817,1295.07L383.729,1295.08L383.641,1295.08L383.552,1295.09L383.463,1295.1L383.374,1295.1L383.286,1295.1L383.195,1295.1L383.106,1295.11L383.016,1295.1L382.926,1295.1L382.837,1295.1L382.749,1295.1L382.66,1295.09L382.571,1295.08L382.483,1295.08L382.395,1295.07L382.307,1295.06L382.22,1295.05L382.133,1295.04L382.047,1295.03L381.96,1295.01L381.874,1295L381.789,1294.98L381.703,1294.96L381.618,1294.94L381.53,1294.92L381.366,1294.88L381.199,1294.84L381.035,1294.79L380.872,1294.74L380.711,1294.68L380.551,1294.62L380.394,1294.56L380.238,1294.49L380.085,1294.42L379.934,1294.34L379.785,1294.26L379.637,1294.18L379.492,1294.1L379.35,1294.01L379.21,1293.91L379.072,1293.82L378.937,1293.72L378.804,1293.62L378.674,1293.51L378.546,1293.4L378.421,1293.29L378.299,1293.18L378.18,1293.06L378.063,1292.94L377.949,1292.82L377.838,1292.7L377.73,1292.57L377.626,1292.44L377.524,1292.31L377.425,1292.17L377.33,1292.03L377.237,1291.89L377.148,1291.75L377.063,1291.61L376.98,1291.46L376.902,1291.31L376.826,1291.16L376.755,1291L376.687,1290.85L376.622,1290.69L376.562,1290.53L376.505,1290.37L376.452,1290.21L376.403,1290.04L376.358,1289.88L376.318,1289.71L376.298,1289.62L376.28,1289.54L376.263,1289.45L376.247,1289.37L376.232,1289.28L376.218,1289.2L376.206,1289.11L376.194,1289.02L376.184,1288.93L376.174,1288.85L376.166,1288.76L376.158,1288.67L376.152,1288.58L376.147,1288.5L376.143,1288.4L376.14,1288.32L376.139,1288.23L376.138,1288.14L376.139,1288.05L376.14,1287.96L376.143,1287.87L376.147,1287.78L376.152,1287.69L376.158,1287.6L376.166,1287.51L376.174,1287.43L376.184,1287.34L376.194,1287.25L376.206,1287.16L376.218,1287.08L376.232,1286.99L376.247,1286.9L376.263,1286.82L376.28,1286.73L376.298,1286.65L376.318,1286.56L376.358,1286.4L376.403,1286.23L376.452,1286.07L376.505,1285.9L376.562,1285.74L376.622,1285.58L376.687,1285.42L376.755,1285.27L376.826,1285.12L376.901,1284.96L376.98,1284.82L377.063,1284.67L377.148,1284.52L377.237,1284.38L377.33,1284.24L377.425,1284.1L377.524,1283.97L377.625,1283.84L377.73,1283.7L377.838,1283.58L377.949,1283.45L378.063,1283.33L378.18,1283.21L378.299,1283.09L378.421,1282.98L378.546,1282.87L378.674,1282.76L378.804,1282.66L378.937,1282.56L379.072,1282.46L379.21,1282.36L379.35,1282.27L379.493,1282.18L379.638,1282.09L379.785,1282.01L379.934,1281.93L380.085,1281.86L380.238,1281.79L380.394,1281.72L380.551,1281.65L380.711,1281.59L380.872,1281.54L381.035,1281.48L381.2,1281.43L381.366,1281.39L381.53,1281.35L381.619,1281.33L381.703,1281.31L381.789,1281.29L381.874,1281.28L381.96,1281.26L382.046,1281.25L382.133,1281.24L382.22,1281.23L382.307,1281.21L382.395,1281.2L382.484,1281.2L382.572,1281.19L382.659,1281.18L382.748,1281.18L382.837,1281.17L382.927,1281.17L383.016,1281.17L383.106,1281.17L383.195,1281.17ZM383.032,1282.41L382.958,1282.41L382.884,1282.41L382.811,1282.41L382.738,1282.42L382.665,1282.42L382.593,1282.43L382.52,1282.44L382.448,1282.44L382.376,1282.45L382.305,1282.46L382.234,1282.47L382.163,1282.48L382.092,1282.5L382.022,1282.51L381.952,1282.52L381.882,1282.54L381.812,1282.55L381.674,1282.59L381.538,1282.62L381.403,1282.66L381.269,1282.71L381.136,1282.75L381.005,1282.8L380.876,1282.86L380.748,1282.91L380.622,1282.97L380.498,1283.03L380.375,1283.1L380.254,1283.17L380.135,1283.24L380.018,1283.31L379.903,1283.39L379.789,1283.46L379.678,1283.55L379.569,1283.63L379.462,1283.72L379.356,1283.81L379.254,1283.9L379.153,1283.99L379.054,1284.09L378.958,1284.18L378.865,1284.29L378.773,1284.39L378.684,1284.49L378.598,1284.6L378.514,1284.71L378.433,1284.82L378.354,1284.93L378.279,1285.05L378.205,1285.17L378.135,1285.29L378.067,1285.41L378.003,1285.53L377.941,1285.65L377.882,1285.78L377.826,1285.91L377.773,1286.04L377.723,1286.17L377.677,1286.3L377.633,1286.43L377.593,1286.57L377.556,1286.71L377.522,1286.84L377.506,1286.91L377.492,1286.98L377.478,1287.05L377.465,1287.12L377.453,1287.19L377.441,1287.27L377.431,1287.34L377.421,1287.41L377.413,1287.48L377.405,1287.55L377.398,1287.62L377.392,1287.7L377.387,1287.77L377.383,1287.84L377.379,1287.92L377.377,1287.99L377.376,1288.06L377.375,1288.14L377.376,1288.21L377.377,1288.29L377.379,1288.36L377.383,1288.43L377.387,1288.51L377.392,1288.58L377.398,1288.65L377.405,1288.72L377.413,1288.8L377.421,1288.87L377.431,1288.94L377.441,1289.01L377.453,1289.08L377.465,1289.15L377.478,1289.22L377.492,1289.29L377.506,1289.36L377.522,1289.43L377.556,1289.57L377.593,1289.7L377.633,1289.84L377.677,1289.97L377.723,1290.11L377.773,1290.24L377.826,1290.37L377.882,1290.49L377.941,1290.62L378.003,1290.75L378.067,1290.87L378.135,1290.99L378.205,1291.11L378.279,1291.23L378.354,1291.34L378.433,1291.45L378.514,1291.57L378.598,1291.67L378.684,1291.78L378.773,1291.89L378.865,1291.99L378.958,1292.09L379.054,1292.19L379.153,1292.29L379.254,1292.38L379.356,1292.47L379.462,1292.56L379.569,1292.64L379.678,1292.73L379.789,1292.81L379.903,1292.89L380.018,1292.96L380.135,1293.04L380.254,1293.11L380.375,1293.18L380.498,1293.24L380.622,1293.3L380.748,1293.36L380.876,1293.42L381.005,1293.47L381.136,1293.52L381.269,1293.57L381.403,1293.61L381.538,1293.65L381.674,1293.69L381.812,1293.72L381.882,1293.74L381.952,1293.75L382.022,1293.77L382.092,1293.78L382.163,1293.79L382.234,1293.8L382.305,1293.81L382.376,1293.82L382.448,1293.83L382.52,1293.84L382.593,1293.85L382.665,1293.85L382.738,1293.86L382.811,1293.86L382.884,1293.86L382.958,1293.87L383.032,1293.87L383.106,1293.87L383.18,1293.87L383.254,1293.87L383.327,1293.86L383.401,1293.86L383.474,1293.86L383.547,1293.85L383.619,1293.85L383.691,1293.84L383.764,1293.83L383.835,1293.82L383.907,1293.81L383.978,1293.8L384.049,1293.79L384.12,1293.78L384.19,1293.77L384.26,1293.75L384.33,1293.74L384.399,1293.72L384.537,1293.69L384.674,1293.65L384.809,1293.61L384.943,1293.57L385.075,1293.52L385.206,1293.47L385.336,1293.42L385.463,1293.36L385.589,1293.3L385.714,1293.24L385.836,1293.18L385.957,1293.11L386.076,1293.04L386.194,1292.96L386.309,1292.89L386.422,1292.81L386.534,1292.73L386.643,1292.64L386.75,1292.56L386.855,1292.47L386.958,1292.38L387.059,1292.29L387.157,1292.19L387.253,1292.09L387.347,1291.99L387.438,1291.89L387.527,1291.78L387.614,1291.67L387.697,1291.57L387.779,1291.45L387.857,1291.34L387.933,1291.23L388.006,1291.11L388.077,1290.99L388.144,1290.87L388.209,1290.75L388.271,1290.62L388.33,1290.49L388.386,1290.37L388.439,1290.24L388.489,1290.11L388.535,1289.97L388.579,1289.84L388.619,1289.7L388.656,1289.57L388.69,1289.43L388.705,1289.36L388.72,1289.29L388.734,1289.22L388.747,1289.15L388.759,1289.08L388.77,1289.01L388.781,1288.94L388.79,1288.87L388.799,1288.8L388.807,1288.72L388.814,1288.65L388.82,1288.58L388.825,1288.51L388.829,1288.43L388.832,1288.36L388.835,1288.29L388.836,1288.21L388.837,1288.14L388.836,1288.06L388.835,1287.99L388.832,1287.92L388.829,1287.84L388.825,1287.77L388.82,1287.7L388.814,1287.62L388.807,1287.55L388.799,1287.48L388.79,1287.41L388.781,1287.34L388.77,1287.27L388.759,1287.19L388.747,1287.12L388.734,1287.05L388.72,1286.98L388.705,1286.91L388.69,1286.84L388.656,1286.71L388.619,1286.57L388.579,1286.43L388.535,1286.3L388.489,1286.17L388.439,1286.04L388.386,1285.91L388.33,1285.78L388.271,1285.65L388.209,1285.53L388.144,1285.41L388.077,1285.29L388.006,1285.17L387.933,1285.05L387.857,1284.93L387.779,1284.82L387.697,1284.71L387.614,1284.6L387.527,1284.49L387.438,1284.39L387.347,1284.29L387.253,1284.18L387.157,1284.09L387.059,1283.99L386.958,1283.9L386.855,1283.81L386.75,1283.72L386.643,1283.63L386.534,1283.55L386.422,1283.46L386.309,1283.39L386.194,1283.31L386.076,1283.24L385.957,1283.17L385.836,1283.1L385.714,1283.03L385.589,1282.97L385.463,1282.91L385.336,1282.86L385.206,1282.8L385.075,1282.75L384.943,1282.71L384.809,1282.66L384.674,1282.62L384.537,1282.59L384.399,1282.55L384.33,1282.54L384.26,1282.52L384.19,1282.51L384.12,1282.5L384.049,1282.48L383.978,1282.47L383.907,1282.46L383.835,1282.45L383.764,1282.44L383.691,1282.44L383.619,1282.43L383.547,1282.42L383.474,1282.42L383.401,1282.41L383.327,1282.41L383.254,1282.41L383.18,1282.41L383.106,1282.41L383.032,1282.41Z"/>
            </g>
            <g transform="matrix(0.842067,0,0,0.842067,66.3917,-244.048)">
                <path d="M383.195,1281.17L383.286,1281.17L383.374,1281.17L383.463,1281.18L383.552,1281.18L383.641,1281.19L383.729,1281.2L383.817,1281.2L383.904,1281.21L383.992,1281.23L384.078,1281.24L384.165,1281.25L384.252,1281.26L384.337,1281.28L384.423,1281.29L384.509,1281.31L384.594,1281.33L384.682,1281.35L384.846,1281.39L385.012,1281.43L385.177,1281.48L385.34,1281.54L385.501,1281.59L385.66,1281.65L385.818,1281.72L385.973,1281.79L386.127,1281.86L386.278,1281.93L386.427,1282.01L386.574,1282.09L386.719,1282.18L386.861,1282.27L387.002,1282.36L387.14,1282.46L387.275,1282.56L387.408,1282.66L387.538,1282.76L387.665,1282.87L387.79,1282.98L387.912,1283.09L388.032,1283.21L388.149,1283.33L388.262,1283.45L388.373,1283.58L388.481,1283.7L388.586,1283.84L388.688,1283.97L388.787,1284.1L388.882,1284.24L388.975,1284.38L389.064,1284.52L389.149,1284.67L389.231,1284.82L389.31,1284.96L389.385,1285.12L389.457,1285.27L389.525,1285.42L389.589,1285.58L389.65,1285.74L389.707,1285.9L389.76,1286.07L389.809,1286.23L389.854,1286.4L389.894,1286.56L389.914,1286.65L389.932,1286.73L389.949,1286.82L389.965,1286.9L389.98,1286.99L389.993,1287.08L390.006,1287.16L390.018,1287.25L390.028,1287.34L390.038,1287.43L390.046,1287.51L390.053,1287.6L390.059,1287.69L390.065,1287.78L390.068,1287.87L390.071,1287.96L390.073,1288.05L390.074,1288.14L390.073,1288.23L390.071,1288.32L390.068,1288.4L390.065,1288.5L390.059,1288.58L390.053,1288.67L390.046,1288.76L390.038,1288.85L390.028,1288.93L390.018,1289.02L390.006,1289.11L389.993,1289.2L389.98,1289.28L389.965,1289.37L389.949,1289.45L389.932,1289.54L389.914,1289.62L389.894,1289.71L389.854,1289.88L389.809,1290.04L389.76,1290.21L389.707,1290.37L389.65,1290.53L389.589,1290.69L389.525,1290.85L389.457,1291L389.385,1291.16L389.31,1291.31L389.231,1291.46L389.149,1291.61L389.064,1291.75L388.975,1291.89L388.882,1292.03L388.787,1292.17L388.688,1292.31L388.586,1292.44L388.481,1292.57L388.373,1292.7L388.262,1292.82L388.149,1292.94L388.032,1293.06L387.913,1293.18L387.79,1293.29L387.665,1293.4L387.538,1293.51L387.408,1293.62L387.275,1293.72L387.139,1293.82L387.002,1293.91L386.862,1294.01L386.719,1294.1L386.574,1294.18L386.427,1294.26L386.278,1294.34L386.127,1294.42L385.973,1294.49L385.818,1294.56L385.66,1294.62L385.501,1294.68L385.34,1294.74L385.177,1294.79L385.012,1294.84L384.846,1294.88L384.682,1294.92L384.593,1294.94L384.508,1294.96L384.423,1294.98L384.338,1295L384.252,1295.01L384.165,1295.02L384.079,1295.04L383.992,1295.05L383.904,1295.06L383.817,1295.07L383.728,1295.08L383.64,1295.08L383.552,1295.09L383.463,1295.1L383.374,1295.1L383.285,1295.1L383.195,1295.1L383.106,1295.11L383.016,1295.1L382.927,1295.1L382.837,1295.1L382.748,1295.1L382.659,1295.09L382.572,1295.08L382.484,1295.08L382.395,1295.07L382.307,1295.06L382.22,1295.05L382.133,1295.04L382.047,1295.02L381.96,1295.01L381.874,1295L381.789,1294.98L381.704,1294.96L381.619,1294.94L381.53,1294.92L381.366,1294.88L381.199,1294.84L381.035,1294.79L380.872,1294.74L380.711,1294.68L380.551,1294.62L380.394,1294.56L380.239,1294.49L380.085,1294.42L379.934,1294.34L379.785,1294.26L379.638,1294.18L379.493,1294.1L379.35,1294.01L379.21,1293.91L379.072,1293.82L378.937,1293.72L378.804,1293.62L378.674,1293.51L378.546,1293.4L378.421,1293.29L378.299,1293.18L378.18,1293.06L378.063,1292.94L377.949,1292.82L377.838,1292.7L377.73,1292.57L377.626,1292.44L377.524,1292.31L377.425,1292.17L377.33,1292.03L377.237,1291.89L377.148,1291.75L377.063,1291.61L376.98,1291.46L376.901,1291.31L376.826,1291.16L376.755,1291L376.687,1290.85L376.622,1290.69L376.562,1290.53L376.505,1290.37L376.452,1290.21L376.403,1290.04L376.358,1289.88L376.318,1289.71L376.298,1289.62L376.28,1289.54L376.263,1289.45L376.247,1289.37L376.232,1289.28L376.218,1289.2L376.206,1289.11L376.194,1289.02L376.184,1288.93L376.174,1288.85L376.166,1288.76L376.158,1288.67L376.152,1288.58L376.147,1288.5L376.143,1288.4L376.14,1288.32L376.139,1288.23L376.138,1288.14L376.139,1288.05L376.14,1287.96L376.143,1287.87L376.147,1287.78L376.152,1287.69L376.158,1287.6L376.166,1287.51L376.174,1287.43L376.184,1287.34L376.194,1287.25L376.206,1287.16L376.218,1287.08L376.232,1286.99L376.247,1286.9L376.263,1286.82L376.28,1286.73L376.298,1286.65L376.318,1286.56L376.358,1286.4L376.403,1286.23L376.452,1286.07L376.505,1285.9L376.562,1285.74L376.622,1285.58L376.687,1285.42L376.755,1285.27L376.826,1285.12L376.901,1284.96L376.98,1284.82L377.063,1284.67L377.148,1284.52L377.237,1284.38L377.33,1284.24L377.425,1284.1L377.524,1283.97L377.626,1283.84L377.73,1283.7L377.838,1283.58L377.949,1283.45L378.063,1283.33L378.18,1283.21L378.299,1283.09L378.421,1282.98L378.546,1282.87L378.674,1282.76L378.804,1282.66L378.937,1282.56L379.072,1282.46L379.21,1282.36L379.35,1282.27L379.492,1282.18L379.637,1282.09L379.785,1282.01L379.934,1281.93L380.085,1281.86L380.239,1281.79L380.394,1281.72L380.551,1281.65L380.711,1281.59L380.872,1281.54L381.035,1281.48L381.199,1281.43L381.366,1281.39L381.53,1281.35L381.618,1281.33L381.703,1281.31L381.789,1281.29L381.874,1281.28L381.96,1281.26L382.047,1281.25L382.133,1281.24L382.22,1281.23L382.307,1281.21L382.395,1281.2L382.483,1281.2L382.571,1281.19L382.66,1281.18L382.749,1281.18L382.837,1281.17L382.926,1281.17L383.016,1281.17L383.106,1281.17L383.195,1281.17ZM383.032,1282.41L382.958,1282.41L382.884,1282.41L382.811,1282.41L382.738,1282.42L382.665,1282.42L382.593,1282.43L382.52,1282.44L382.448,1282.44L382.376,1282.45L382.305,1282.46L382.234,1282.47L382.163,1282.48L382.092,1282.5L382.022,1282.51L381.952,1282.52L381.882,1282.54L381.812,1282.55L381.674,1282.59L381.538,1282.62L381.403,1282.66L381.269,1282.71L381.136,1282.75L381.005,1282.8L380.876,1282.86L380.748,1282.91L380.622,1282.97L380.498,1283.03L380.375,1283.1L380.254,1283.17L380.135,1283.24L380.018,1283.31L379.903,1283.39L379.789,1283.46L379.678,1283.55L379.569,1283.63L379.462,1283.72L379.356,1283.81L379.254,1283.9L379.153,1283.99L379.054,1284.09L378.958,1284.18L378.865,1284.29L378.773,1284.39L378.684,1284.49L378.598,1284.6L378.514,1284.71L378.433,1284.82L378.354,1284.93L378.279,1285.05L378.205,1285.17L378.135,1285.29L378.067,1285.41L378.003,1285.53L377.941,1285.65L377.882,1285.78L377.826,1285.91L377.773,1286.04L377.723,1286.17L377.677,1286.3L377.633,1286.43L377.593,1286.57L377.556,1286.71L377.522,1286.84L377.506,1286.91L377.492,1286.98L377.478,1287.05L377.465,1287.12L377.453,1287.19L377.441,1287.27L377.431,1287.34L377.421,1287.41L377.413,1287.48L377.405,1287.55L377.398,1287.62L377.392,1287.7L377.387,1287.77L377.383,1287.84L377.379,1287.92L377.377,1287.99L377.376,1288.06L377.375,1288.14L377.376,1288.21L377.377,1288.29L377.379,1288.36L377.383,1288.43L377.387,1288.51L377.392,1288.58L377.398,1288.65L377.405,1288.72L377.413,1288.8L377.421,1288.87L377.431,1288.94L377.441,1289.01L377.453,1289.08L377.465,1289.15L377.478,1289.22L377.492,1289.29L377.506,1289.36L377.522,1289.43L377.556,1289.57L377.593,1289.7L377.633,1289.84L377.677,1289.97L377.723,1290.11L377.773,1290.24L377.826,1290.37L377.882,1290.49L377.941,1290.62L378.003,1290.75L378.067,1290.87L378.135,1290.99L378.205,1291.11L378.279,1291.23L378.354,1291.34L378.433,1291.45L378.514,1291.57L378.598,1291.67L378.684,1291.78L378.773,1291.89L378.865,1291.99L378.958,1292.09L379.054,1292.19L379.153,1292.29L379.254,1292.38L379.356,1292.47L379.462,1292.56L379.569,1292.64L379.678,1292.73L379.789,1292.81L379.903,1292.89L380.018,1292.96L380.135,1293.04L380.254,1293.11L380.375,1293.18L380.498,1293.24L380.622,1293.3L380.748,1293.36L380.876,1293.42L381.005,1293.47L381.136,1293.52L381.269,1293.57L381.403,1293.61L381.538,1293.65L381.674,1293.69L381.812,1293.72L381.882,1293.74L381.952,1293.75L382.022,1293.77L382.092,1293.78L382.163,1293.79L382.234,1293.8L382.305,1293.81L382.376,1293.82L382.448,1293.83L382.52,1293.84L382.593,1293.85L382.665,1293.85L382.738,1293.86L382.811,1293.86L382.884,1293.86L382.958,1293.87L383.032,1293.87L383.106,1293.87L383.18,1293.87L383.254,1293.87L383.327,1293.86L383.401,1293.86L383.474,1293.86L383.547,1293.85L383.619,1293.85L383.691,1293.84L383.764,1293.83L383.835,1293.82L383.907,1293.81L383.978,1293.8L384.049,1293.79L384.12,1293.78L384.19,1293.77L384.26,1293.75L384.33,1293.74L384.399,1293.72L384.537,1293.69L384.674,1293.65L384.809,1293.61L384.943,1293.57L385.075,1293.52L385.206,1293.47L385.336,1293.42L385.463,1293.36L385.589,1293.3L385.714,1293.24L385.836,1293.18L385.957,1293.11L386.076,1293.04L386.194,1292.96L386.309,1292.89L386.422,1292.81L386.534,1292.73L386.643,1292.64L386.75,1292.56L386.855,1292.47L386.958,1292.38L387.059,1292.29L387.157,1292.19L387.253,1292.09L387.347,1291.99L387.438,1291.89L387.527,1291.78L387.614,1291.67L387.697,1291.57L387.779,1291.45L387.857,1291.34L387.933,1291.23L388.006,1291.11L388.077,1290.99L388.144,1290.87L388.209,1290.75L388.271,1290.62L388.33,1290.49L388.386,1290.37L388.439,1290.24L388.489,1290.11L388.535,1289.97L388.579,1289.84L388.619,1289.7L388.656,1289.57L388.69,1289.43L388.705,1289.36L388.72,1289.29L388.734,1289.22L388.747,1289.15L388.759,1289.08L388.77,1289.01L388.781,1288.94L388.79,1288.87L388.799,1288.8L388.807,1288.72L388.814,1288.65L388.82,1288.58L388.825,1288.51L388.829,1288.43L388.832,1288.36L388.835,1288.29L388.836,1288.21L388.837,1288.14L388.836,1288.06L388.835,1287.99L388.832,1287.92L388.829,1287.84L388.825,1287.77L388.82,1287.7L388.814,1287.62L388.807,1287.55L388.799,1287.48L388.79,1287.41L388.781,1287.34L388.77,1287.27L388.759,1287.19L388.747,1287.12L388.734,1287.05L388.72,1286.98L388.705,1286.91L388.69,1286.84L388.656,1286.71L388.619,1286.57L388.579,1286.43L388.535,1286.3L388.489,1286.17L388.439,1286.04L388.386,1285.91L388.33,1285.78L388.271,1285.65L388.209,1285.53L388.144,1285.41L388.077,1285.29L388.006,1285.17L387.933,1285.05L387.857,1284.93L387.779,1284.82L387.697,1284.71L387.614,1284.6L387.527,1284.49L387.438,1284.39L387.347,1284.29L387.253,1284.18L387.157,1284.09L387.059,1283.99L386.958,1283.9L386.855,1283.81L386.75,1283.72L386.643,1283.63L386.534,1283.55L386.422,1283.46L386.309,1283.39L386.194,1283.31L386.076,1283.24L385.957,1283.17L385.836,1283.1L385.714,1283.03L385.589,1282.97L385.463,1282.91L385.336,1282.86L385.206,1282.8L385.075,1282.75L384.943,1282.71L384.809,1282.66L384.674,1282.62L384.537,1282.59L384.399,1282.55L384.33,1282.54L384.26,1282.52L384.19,1282.51L384.12,1282.5L384.049,1282.48L383.978,1282.47L383.907,1282.46L383.835,1282.45L383.764,1282.44L383.691,1282.44L383.619,1282.43L383.547,1282.42L383.474,1282.42L383.401,1282.41L383.327,1282.41L383.254,1282.41L383.18,1282.41L383.106,1282.41L383.032,1282.41Z"/>
            </g>
            <g transform="matrix(0.842067,0,0,0.842067,14.5317,-172.068)">
                <path d="M383.195,1281.17L383.285,1281.17L383.374,1281.17L383.463,1281.18L383.552,1281.18L383.641,1281.19L383.729,1281.2L383.817,1281.2L383.904,1281.21L383.991,1281.23L384.078,1281.24L384.165,1281.25L384.251,1281.26L384.337,1281.28L384.423,1281.29L384.509,1281.31L384.594,1281.33L384.682,1281.35L384.846,1281.39L385.012,1281.43L385.177,1281.48L385.34,1281.54L385.501,1281.59L385.66,1281.65L385.818,1281.72L385.973,1281.79L386.127,1281.86L386.278,1281.93L386.427,1282.01L386.574,1282.09L386.719,1282.18L386.862,1282.27L387.002,1282.36L387.139,1282.46L387.275,1282.56L387.408,1282.66L387.538,1282.76L387.665,1282.87L387.79,1282.98L387.913,1283.09L388.032,1283.21L388.149,1283.33L388.262,1283.45L388.373,1283.58L388.481,1283.7L388.586,1283.84L388.688,1283.97L388.787,1284.1L388.882,1284.24L388.975,1284.38L389.064,1284.52L389.149,1284.67L389.231,1284.82L389.31,1284.96L389.386,1285.12L389.457,1285.27L389.525,1285.42L389.59,1285.58L389.65,1285.74L389.707,1285.9L389.76,1286.07L389.809,1286.23L389.854,1286.4L389.894,1286.56L389.914,1286.65L389.932,1286.74L389.949,1286.82L389.965,1286.9L389.98,1286.99L389.993,1287.08L390.006,1287.16L390.018,1287.25L390.028,1287.34L390.038,1287.43L390.046,1287.51L390.053,1287.6L390.059,1287.69L390.065,1287.78L390.068,1287.87L390.071,1287.96L390.073,1288.05L390.074,1288.14L390.073,1288.23L390.071,1288.32L390.068,1288.4L390.065,1288.49L390.059,1288.58L390.053,1288.67L390.046,1288.76L390.038,1288.85L390.028,1288.93L390.018,1289.02L390.006,1289.11L389.993,1289.2L389.98,1289.28L389.965,1289.37L389.949,1289.45L389.932,1289.54L389.914,1289.62L389.894,1289.71L389.854,1289.88L389.809,1290.04L389.76,1290.21L389.707,1290.37L389.65,1290.53L389.59,1290.69L389.525,1290.85L389.457,1291L389.386,1291.16L389.31,1291.31L389.231,1291.46L389.149,1291.61L389.064,1291.75L388.975,1291.89L388.882,1292.03L388.787,1292.17L388.688,1292.31L388.586,1292.44L388.481,1292.57L388.373,1292.7L388.262,1292.82L388.149,1292.94L388.032,1293.06L387.913,1293.18L387.79,1293.29L387.665,1293.4L387.538,1293.51L387.408,1293.62L387.275,1293.72L387.139,1293.82L387.002,1293.91L386.862,1294.01L386.719,1294.1L386.574,1294.18L386.427,1294.26L386.278,1294.34L386.127,1294.42L385.973,1294.49L385.818,1294.56L385.66,1294.62L385.501,1294.68L385.34,1294.74L385.177,1294.79L385.012,1294.84L384.846,1294.88L384.682,1294.92L384.594,1294.94L384.509,1294.96L384.423,1294.98L384.337,1295L384.251,1295.01L384.165,1295.02L384.078,1295.04L383.991,1295.05L383.904,1295.06L383.817,1295.07L383.729,1295.08L383.641,1295.08L383.552,1295.09L383.463,1295.1L383.374,1295.1L383.285,1295.1L383.196,1295.1L383.106,1295.11L383.016,1295.1L382.927,1295.1L382.837,1295.1L382.748,1295.1L382.66,1295.09L382.571,1295.08L382.483,1295.08L382.395,1295.07L382.307,1295.06L382.221,1295.05L382.133,1295.04L382.046,1295.02L381.96,1295.01L381.874,1295L381.789,1294.98L381.703,1294.96L381.618,1294.94L381.53,1294.92L381.366,1294.88L381.199,1294.84L381.035,1294.79L380.872,1294.74L380.711,1294.68L380.551,1294.62L380.394,1294.56L380.238,1294.49L380.085,1294.42L379.934,1294.34L379.784,1294.26L379.637,1294.18L379.493,1294.1L379.35,1294.01L379.21,1293.91L379.072,1293.82L378.937,1293.72L378.804,1293.62L378.674,1293.51L378.546,1293.4L378.421,1293.29L378.299,1293.18L378.18,1293.06L378.063,1292.94L377.949,1292.82L377.838,1292.7L377.73,1292.57L377.625,1292.44L377.524,1292.31L377.425,1292.17L377.329,1292.03L377.237,1291.89L377.148,1291.75L377.063,1291.61L376.98,1291.46L376.902,1291.31L376.826,1291.16L376.755,1291L376.686,1290.85L376.622,1290.69L376.562,1290.53L376.505,1290.37L376.452,1290.21L376.403,1290.04L376.358,1289.88L376.318,1289.71L376.298,1289.62L376.28,1289.54L376.263,1289.45L376.247,1289.37L376.232,1289.28L376.218,1289.2L376.206,1289.11L376.194,1289.02L376.184,1288.93L376.174,1288.85L376.166,1288.76L376.158,1288.67L376.152,1288.58L376.147,1288.49L376.143,1288.4L376.14,1288.32L376.139,1288.23L376.138,1288.14L376.139,1288.05L376.14,1287.96L376.143,1287.87L376.147,1287.78L376.152,1287.69L376.158,1287.6L376.166,1287.51L376.174,1287.43L376.184,1287.34L376.194,1287.25L376.206,1287.16L376.218,1287.08L376.232,1286.99L376.247,1286.9L376.263,1286.82L376.28,1286.73L376.298,1286.65L376.318,1286.56L376.358,1286.4L376.403,1286.23L376.452,1286.07L376.505,1285.9L376.562,1285.74L376.622,1285.58L376.686,1285.42L376.755,1285.27L376.826,1285.12L376.902,1284.96L376.98,1284.82L377.063,1284.67L377.148,1284.52L377.237,1284.38L377.329,1284.24L377.425,1284.1L377.524,1283.97L377.625,1283.84L377.73,1283.7L377.838,1283.58L377.949,1283.45L378.063,1283.33L378.18,1283.21L378.299,1283.09L378.421,1282.98L378.546,1282.87L378.674,1282.76L378.804,1282.66L378.937,1282.56L379.072,1282.46L379.21,1282.36L379.35,1282.27L379.493,1282.18L379.637,1282.09L379.784,1282.01L379.934,1281.93L380.085,1281.86L380.238,1281.79L380.394,1281.72L380.551,1281.65L380.711,1281.59L380.872,1281.54L381.035,1281.48L381.199,1281.43L381.366,1281.39L381.53,1281.35L381.618,1281.33L381.703,1281.31L381.789,1281.29L381.874,1281.28L381.96,1281.26L382.046,1281.25L382.133,1281.24L382.221,1281.23L382.307,1281.21L382.395,1281.2L382.483,1281.2L382.571,1281.19L382.66,1281.18L382.748,1281.18L382.837,1281.17L382.927,1281.17L383.016,1281.17L383.106,1281.17L383.195,1281.17ZM383.032,1282.41L382.958,1282.41L382.884,1282.41L382.811,1282.41L382.738,1282.42L382.665,1282.42L382.593,1282.43L382.52,1282.44L382.448,1282.44L382.376,1282.45L382.305,1282.46L382.234,1282.47L382.163,1282.48L382.092,1282.5L382.022,1282.51L381.952,1282.52L381.882,1282.54L381.812,1282.55L381.674,1282.59L381.538,1282.62L381.403,1282.66L381.269,1282.71L381.136,1282.75L381.005,1282.8L380.876,1282.86L380.748,1282.91L380.622,1282.97L380.498,1283.03L380.375,1283.1L380.254,1283.17L380.135,1283.24L380.018,1283.31L379.903,1283.39L379.789,1283.46L379.678,1283.55L379.569,1283.63L379.462,1283.72L379.356,1283.81L379.254,1283.9L379.153,1283.99L379.054,1284.09L378.958,1284.18L378.865,1284.29L378.773,1284.39L378.684,1284.49L378.598,1284.6L378.514,1284.71L378.433,1284.82L378.354,1284.93L378.279,1285.05L378.205,1285.17L378.135,1285.29L378.067,1285.41L378.003,1285.53L377.941,1285.65L377.882,1285.78L377.826,1285.91L377.773,1286.04L377.723,1286.17L377.677,1286.3L377.633,1286.43L377.593,1286.57L377.556,1286.71L377.522,1286.84L377.506,1286.91L377.492,1286.98L377.478,1287.05L377.465,1287.12L377.453,1287.19L377.441,1287.27L377.431,1287.34L377.421,1287.41L377.413,1287.48L377.405,1287.55L377.398,1287.62L377.392,1287.7L377.387,1287.77L377.383,1287.84L377.379,1287.92L377.377,1287.99L377.376,1288.06L377.375,1288.14L377.376,1288.21L377.377,1288.29L377.379,1288.36L377.383,1288.43L377.387,1288.51L377.392,1288.58L377.398,1288.65L377.405,1288.72L377.413,1288.8L377.421,1288.87L377.431,1288.94L377.441,1289.01L377.453,1289.08L377.465,1289.15L377.478,1289.22L377.492,1289.29L377.506,1289.36L377.522,1289.43L377.556,1289.57L377.593,1289.7L377.633,1289.84L377.677,1289.97L377.723,1290.11L377.773,1290.24L377.826,1290.37L377.882,1290.49L377.941,1290.62L378.003,1290.75L378.067,1290.87L378.135,1290.99L378.205,1291.11L378.279,1291.23L378.354,1291.34L378.433,1291.45L378.514,1291.57L378.598,1291.67L378.684,1291.78L378.773,1291.89L378.865,1291.99L378.958,1292.09L379.054,1292.19L379.153,1292.29L379.254,1292.38L379.356,1292.47L379.462,1292.56L379.569,1292.64L379.678,1292.73L379.789,1292.81L379.903,1292.89L380.018,1292.96L380.135,1293.04L380.254,1293.11L380.375,1293.18L380.498,1293.24L380.622,1293.3L380.748,1293.36L380.876,1293.42L381.005,1293.47L381.136,1293.52L381.269,1293.57L381.403,1293.61L381.538,1293.65L381.674,1293.69L381.812,1293.72L381.882,1293.74L381.952,1293.75L382.022,1293.77L382.092,1293.78L382.163,1293.79L382.234,1293.8L382.305,1293.81L382.376,1293.82L382.448,1293.83L382.52,1293.84L382.593,1293.85L382.665,1293.85L382.738,1293.86L382.811,1293.86L382.884,1293.86L382.958,1293.87L383.032,1293.87L383.106,1293.87L383.18,1293.87L383.254,1293.87L383.327,1293.86L383.401,1293.86L383.474,1293.86L383.547,1293.85L383.619,1293.85L383.691,1293.84L383.764,1293.83L383.835,1293.82L383.907,1293.81L383.978,1293.8L384.049,1293.79L384.12,1293.78L384.19,1293.77L384.26,1293.75L384.33,1293.74L384.399,1293.72L384.537,1293.69L384.674,1293.65L384.809,1293.61L384.943,1293.57L385.075,1293.52L385.206,1293.47L385.336,1293.42L385.463,1293.36L385.589,1293.3L385.714,1293.24L385.836,1293.18L385.957,1293.11L386.076,1293.04L386.194,1292.96L386.309,1292.89L386.422,1292.81L386.534,1292.73L386.643,1292.64L386.75,1292.56L386.855,1292.47L386.958,1292.38L387.059,1292.29L387.157,1292.19L387.253,1292.09L387.347,1291.99L387.438,1291.89L387.527,1291.78L387.614,1291.67L387.697,1291.57L387.779,1291.45L387.857,1291.34L387.933,1291.23L388.006,1291.11L388.077,1290.99L388.144,1290.87L388.209,1290.75L388.271,1290.62L388.33,1290.49L388.386,1290.37L388.439,1290.24L388.489,1290.11L388.535,1289.97L388.579,1289.84L388.619,1289.7L388.656,1289.57L388.69,1289.43L388.705,1289.36L388.72,1289.29L388.734,1289.22L388.747,1289.15L388.759,1289.08L388.77,1289.01L388.781,1288.94L388.79,1288.87L388.799,1288.8L388.807,1288.72L388.814,1288.65L388.82,1288.58L388.825,1288.51L388.829,1288.43L388.832,1288.36L388.835,1288.29L388.836,1288.21L388.837,1288.14L388.836,1288.06L388.835,1287.99L388.832,1287.92L388.829,1287.84L388.825,1287.77L388.82,1287.7L388.814,1287.62L388.807,1287.55L388.799,1287.48L388.79,1287.41L388.781,1287.34L388.77,1287.27L388.759,1287.19L388.747,1287.12L388.734,1287.05L388.72,1286.98L388.705,1286.91L388.69,1286.84L388.656,1286.71L388.619,1286.57L388.579,1286.43L388.535,1286.3L388.489,1286.17L388.439,1286.04L388.386,1285.91L388.33,1285.78L388.271,1285.65L388.209,1285.53L388.144,1285.41L388.077,1285.29L388.006,1285.17L387.933,1285.05L387.857,1284.93L387.779,1284.82L387.697,1284.71L387.614,1284.6L387.527,1284.49L387.438,1284.39L387.347,1284.29L387.253,1284.18L387.157,1284.09L387.059,1283.99L386.958,1283.9L386.855,1283.81L386.75,1283.72L386.643,1283.63L386.534,1283.55L386.422,1283.46L386.309,1283.39L386.194,1283.31L386.076,1283.24L385.957,1283.17L385.836,1283.1L385.714,1283.03L385.589,1282.97L385.463,1282.91L385.336,1282.86L385.206,1282.8L385.075,1282.75L384.943,1282.71L384.809,1282.66L384.674,1282.62L384.537,1282.59L384.399,1282.55L384.33,1282.54L384.26,1282.52L384.19,1282.51L384.12,1282.5L384.049,1282.48L383.978,1282.47L383.907,1282.46L383.835,1282.45L383.764,1282.44L383.691,1282.44L383.619,1282.43L383.547,1282.42L383.474,1282.42L383.401,1282.41L383.327,1282.41L383.254,1282.41L383.18,1282.41L383.106,1282.41L383.032,1282.41Z"/>
            </g>
            <g transform="matrix(1.27117,0,0,1.22846,-86.3877,-200.158)">
                <rect x="245.155" y="779.157" width="148.663" height="153.832" style="fill:none;"/>
            </g>
        </g>
    </g>
</svg>
