<?xml version="1.0" encoding="UTF-8" standalone="no"?>
<!DOCTYPE svg PUBLIC "-//W3C//DTD SVG 1.1//EN" "http://www.w3.org/Graphics/SVG/1.1/DTD/svg11.dtd">
<svg width="100%" height="100%" viewBox="0 0 189 189" version="1.1" xmlns="http://www.w3.org/2000/svg" xmlns:xlink="http://www.w3.org/1999/xlink" xml:space="preserve" style="fill-rule:evenodd;clip-rule:evenodd;stroke-miterlimit:1.5;">
    <g transform="matrix(1,0,0,1,-549.288,-752.669)">
        <g>
            <g transform="matrix(1.27117,0,0,1.22846,237.654,-204.491)">
                <rect x="245.155" y="779.157" width="148.663" height="153.832" style="fill:none;"/>
            </g>
            <g transform="matrix(1.03923,0,0,1.04888,-156.369,-528.909)">
                <path d="M781.973,1294.48C781.973,1282.09 771.827,1272.04 759.331,1272.04L719.197,1272.04C706.7,1272.04 696.555,1282.09 696.555,1294.48C696.555,1306.86 706.7,1316.91 719.197,1316.91L759.331,1316.91C771.827,1316.91 781.973,1306.86 781.973,1294.48Z" style="fill:white;stroke:rgb(39,39,39);stroke-width:1.2px;"/>
            </g>
            <g transform="matrix(1,0,0,1,-129.698,-465.166)">
                <path d="M711.141,1315.49C711.141,1315.49 711.061,1322.23 711.012,1326.34C711.005,1326.88 711.32,1327.38 711.816,1327.61C712.312,1327.85 712.898,1327.76 713.313,1327.41C717.226,1324.04 724.681,1317.62 724.681,1317.62C720.192,1318 715.776,1317.46 711.141,1315.49Z" style="fill:white;stroke:rgb(39,39,39);stroke-width:1.25px;"/>
            </g>
            <g transform="matrix(-0.637234,0,0,0.819145,1139.95,-181.346)">
                <path d="M781.973,1294.48C781.973,1282.09 769.051,1272.04 753.135,1272.04L725.393,1272.04C709.477,1272.04 696.555,1282.09 696.555,1294.48C696.555,1306.86 709.477,1316.91 725.393,1316.91L753.135,1316.91C769.051,1316.91 781.973,1306.86 781.973,1294.48Z" style="fill:rgb(232,232,232);stroke:rgb(46,46,46);stroke-width:1.7px;"/>
            </g>
            <g transform="matrix(-0.833408,0,0,0.887168,1278.36,-271.615)">
                <path d="M711.083,1315.6C711.083,1315.6 711.036,1321.58 711.004,1325.67C710.999,1326.31 711.399,1326.88 712.018,1327.13C712.637,1327.38 713.355,1327.25 713.838,1326.81C717.633,1323.35 723.854,1317.68 723.854,1317.68C719.366,1318.07 715.718,1317.57 711.083,1315.6Z" style="fill:rgb(232,232,232);stroke:rgb(46,46,46);stroke-width:1.45px;stroke-linejoin:round;"/>
            </g>
            <g transform="matrix(1.00694,0,0,1.00694,-140.789,-474.531)">
                <circle cx="726.95" cy="1294.39" r="15.975" style="fill:rgb(250,235,165);stroke:rgb(157,144,12);stroke-width:1.24px;stroke-linejoin:round;"/>
            </g>
            <g transform="matrix(1,0,0,1,-119.959,-465.619)">
                <circle cx="716.106" cy="1289.95" r="1.7" style="fill:rgb(157,144,12);stroke:rgb(157,144,12);stroke-width:1.25px;stroke-linejoin:round;"/>
            </g>
            <g transform="matrix(1,0,0,1,-130.029,-465.619)">
                <circle cx="716.106" cy="1289.95" r="1.7" style="fill:rgb(157,144,12);stroke:rgb(157,144,12);stroke-width:1.25px;stroke-linejoin:round;"/>
            </g>
            <g transform="matrix(0.92226,0,0,0.73352,-73.5522,-120.316)">
                <path d="M711.132,1297.63C711.224,1302.9 715.523,1307.13 720.794,1307.13C726.131,1307.13 730.458,1302.8 730.458,1297.47L720.794,1297.47L711.132,1297.63Z" style="fill:white;stroke:rgb(157,144,12);stroke-width:1.5px;stroke-linejoin:round;"/>
            </g>
            <g transform="matrix(1,0,0,1,-129.698,-464.985)">
                <path d="M746.419,1284.87L765.639,1284.87" style="fill:none;stroke:rgb(163,165,171);stroke-width:1.87px;stroke-linecap:square;stroke-linejoin:round;"/>
            </g>
            <g transform="matrix(1,0,0,1,-129.698,-448.992)">
                <path d="M746.419,1284.87L765.639,1284.87" style="fill:none;stroke:rgb(163,165,171);stroke-width:1.87px;stroke-linecap:square;stroke-linejoin:round;"/>
            </g>
            <g transform="matrix(0.790269,0,0,1,26.8492,-456.966)">
                <path d="M746.419,1284.87L765.639,1284.87" style="fill:none;stroke:rgb(163,165,171);stroke-width:2.08px;stroke-linecap:square;stroke-linejoin:round;"/>
            </g>
            <g transform="matrix(1.06752,0,0,1,-177.758,-465.166)">
                <path d="M711.743,1314.22L711.743,1318.69L721.803,1318.69L724.619,1315.95L711.743,1314.22Z" style="fill:white;"/>
            </g>
            <g transform="matrix(-0.746383,0,0,1,1216.35,-419.755)">
                <path d="M711.743,1314.22L711.743,1318.69L721.803,1318.69L725.55,1316L711.743,1314.22Z" style="fill:rgb(232,232,232);"/>
            </g>
            <g transform="matrix(0.913016,0,0,0.913016,-61.5131,-348.462)">
                <circle cx="787.932" cy="1344.52" r="3.878" style="fill:white;stroke:rgb(87,92,103);stroke-width:1.6px;stroke-linecap:round;stroke-linejoin:round;"/>
            </g>
            <g transform="matrix(0.913016,0,0,0.913016,-50.5381,-348.462)">
                <circle cx="787.932" cy="1344.52" r="3.878" style="fill:white;stroke:rgb(87,92,103);stroke-width:1.6px;stroke-linecap:round;stroke-linejoin:round;"/>
            </g>
            <g transform="matrix(0.913016,0,0,0.913016,-39.3562,-348.462)">
                <circle cx="787.932" cy="1344.52" r="3.878" style="fill:white;stroke:rgb(87,92,103);stroke-width:1.6px;stroke-linecap:round;stroke-linejoin:round;"/>
            </g>
            <g transform="matrix(1,0,0,1,-129.757,-464.891)">
                <path d="M684.922,1325.29L704.262,1325.29" style="fill:none;stroke:black;stroke-width:1.04px;stroke-linecap:square;stroke-linejoin:round;"/>
            </g>
            <g transform="matrix(1,0,0,1,-7.71417,-515.947)">
                <path d="M684.922,1325.29L704.262,1325.29" style="fill:none;stroke:black;stroke-width:1.04px;stroke-linecap:square;stroke-linejoin:round;"/>
            </g>
            <g transform="matrix(1,0,0,1,27.2401,-439.877)">
                <path d="M684.922,1325.29L704.262,1325.29" style="fill:none;stroke:black;stroke-width:1.04px;stroke-linecap:square;stroke-linejoin:round;"/>
            </g>
            <g transform="matrix(0.471211,0,0,1,285.702,-449.869)">
                <path d="M684.922,1325.29L704.262,1325.29" style="fill:none;stroke:black;stroke-width:1.33px;stroke-linecap:square;stroke-linejoin:round;"/>
            </g>
            <g transform="matrix(0.471211,0,0,1,341.49,-485.97)">
                <path d="M684.922,1325.29L704.262,1325.29" style="fill:none;stroke:black;stroke-width:1.33px;stroke-linecap:square;stroke-linejoin:round;"/>
            </g>
            <g transform="matrix(0.471211,0,0,1,278.591,-534.886)">
                <path d="M684.922,1325.29L704.262,1325.29" style="fill:none;stroke:black;stroke-width:1.33px;stroke-linecap:square;stroke-linejoin:round;"/>
            </g>
        </g>
    </g>
</svg>
