<?xml version="1.0" encoding="UTF-8" standalone="no"?>
<!DOCTYPE svg PUBLIC "-//W3C//DTD SVG 1.1//EN" "http://www.w3.org/Graphics/SVG/1.1/DTD/svg11.dtd">
<svg width="100%" height="100%" viewBox="0 0 189 189" version="1.1" xmlns="http://www.w3.org/2000/svg" xmlns:xlink="http://www.w3.org/1999/xlink" xml:space="preserve" style="fill-rule:evenodd;clip-rule:evenodd;stroke-linejoin:round;stroke-miterlimit:1.5;">
    <g transform="matrix(1,0,0,1,-865.856,-734.177)">
        <g>
            <g transform="matrix(0.947839,0,0,0.947839,-64.6644,-424.819)">
                <path d="M1082.64,1404.72L1082.58,1404.72L1082.31,1404.72L1082.05,1404.72L1081.78,1404.72L1081.51,1404.72L1081.25,1404.72L1080.98,1404.72L1080.97,1404.72L1080.98,1403.62L1080.99,1403.62L1081.25,1403.62L1081.51,1403.62L1081.78,1403.62L1082.04,1403.62L1082.3,1403.62L1082.56,1403.62L1082.63,1403.62L1082.64,1404.72ZM1077.34,1403.52L1077.6,1403.53L1077.86,1403.54L1078.12,1403.56L1078.38,1403.57L1078.64,1403.58L1078.78,1403.58L1078.75,1404.68L1078.6,1404.67L1078.34,1404.66L1078.07,1404.65L1077.81,1404.64L1077.55,1404.63L1077.28,1404.62L1077.08,1404.61L1077.14,1403.51L1077.34,1403.52ZM1086.54,1404.57L1086.53,1404.57L1086.27,1404.59L1086.01,1404.6L1085.74,1404.62L1085.48,1404.63L1085.22,1404.64L1084.95,1404.65L1084.87,1404.66L1084.83,1403.56L1084.91,1403.56L1085.17,1403.54L1085.43,1403.53L1085.69,1403.52L1085.95,1403.51L1086.21,1403.49L1086.46,1403.48L1086.47,1403.48L1086.54,1404.57ZM1073.48,1403.23L1073.73,1403.26L1073.99,1403.28L1074.25,1403.3L1074.5,1403.33L1074.76,1403.35L1074.94,1403.36L1074.85,1404.46L1074.67,1404.44L1074.41,1404.42L1074.15,1404.4L1073.89,1404.37L1073.63,1404.35L1073.37,1404.33L1073.19,1404.31L1073.3,1403.21L1073.48,1403.23ZM1090.42,1404.25L1090.18,1404.27L1089.92,1404.3L1089.66,1404.33L1089.4,1404.35L1089.14,1404.37L1088.88,1404.4L1088.76,1404.41L1088.66,1403.31L1088.78,1403.3L1089.04,1403.28L1089.3,1403.26L1089.55,1403.23L1089.81,1403.21L1090.06,1403.18L1090.31,1403.15L1090.42,1404.25ZM1069.66,1402.77L1069.92,1402.8L1070.17,1402.84L1070.42,1402.87L1070.68,1402.91L1070.93,1402.94L1071.12,1402.96L1070.98,1404.05L1070.79,1404.03L1070.53,1404L1070.27,1403.96L1070.02,1403.92L1069.76,1403.89L1069.51,1403.85L1069.32,1403.83L1069.49,1402.74L1069.66,1402.77ZM1094.29,1403.74L1094.03,1403.78L1093.78,1403.81L1093.52,1403.85L1093.27,1403.89L1093.01,1403.92L1092.75,1403.96L1092.63,1403.98L1092.49,1402.89L1092.61,1402.87L1092.86,1402.84L1093.11,1402.8L1093.36,1402.77L1093.62,1402.73L1093.87,1402.69L1094.12,1402.65L1094.29,1403.74ZM1065.91,1402.12L1066.16,1402.17L1066.41,1402.22L1066.66,1402.27L1066.9,1402.31L1067.15,1402.36L1067.32,1402.38L1067.12,1403.47L1066.96,1403.44L1066.71,1403.39L1066.46,1403.35L1066.2,1403.3L1065.95,1403.25L1065.7,1403.2L1065.48,1403.16L1065.69,1402.08L1065.91,1402.12ZM1098.12,1403.04L1098.08,1403.05L1097.83,1403.1L1097.58,1403.15L1097.33,1403.2L1097.08,1403.25L1096.82,1403.3L1096.57,1403.35L1096.48,1403.36L1096.29,1402.28L1096.37,1402.27L1096.62,1402.22L1096.87,1402.17L1097.12,1402.12L1097.37,1402.08L1097.61,1402.03L1097.86,1401.98L1097.9,1401.97L1098.12,1403.04ZM1062.21,1401.31L1062.7,1401.43L1063.19,1401.55L1063.55,1401.62L1063.3,1402.7L1062.95,1402.62L1062.45,1402.5L1061.95,1402.38L1061.68,1402.31L1061.94,1401.25L1062.21,1401.31ZM1101.92,1402.17L1101.57,1402.26L1101.07,1402.38L1100.58,1402.5L1100.3,1402.57L1100.05,1401.5L1100.32,1401.43L1100.81,1401.31L1101.3,1401.19L1101.65,1401.1L1101.92,1402.17ZM1058.35,1400.26L1058.83,1400.41L1059.31,1400.54L1059.79,1400.68L1059.82,1400.69L1059.53,1401.75L1059.49,1401.74L1059.01,1401.6L1058.52,1401.46L1058.03,1401.32L1057.91,1401.28L1058.23,1400.23L1058.35,1400.26ZM1105.68,1401.11L1105.48,1401.17L1105,1401.32L1104.51,1401.46L1104.08,1401.59L1103.77,1400.53L1104.2,1400.41L1104.68,1400.26L1105.16,1400.12L1105.35,1400.06L1105.68,1401.11ZM1055.02,1399.2L1055.5,1399.36L1055.97,1399.52L1056.13,1399.57L1055.79,1400.62L1055.62,1400.56L1055.14,1400.4L1054.66,1400.24L1054.21,1400.08L1054.57,1399.04L1055.02,1399.2ZM1109.38,1399.88L1109.31,1399.9L1108.84,1400.07L1108.36,1400.24L1107.88,1400.4L1107.79,1400.43L1107.44,1399.39L1107.53,1399.36L1108,1399.2L1108.47,1399.03L1108.94,1398.87L1109,1398.84L1109.38,1399.88ZM1051.31,1397.81L1051.77,1397.99L1052.23,1398.17L1052.51,1398.28L1052.12,1399.31L1051.83,1399.2L1051.36,1399.01L1050.9,1398.83L1050.57,1398.69L1050.98,1397.67L1051.31,1397.81ZM1113.01,1398.47L1112.6,1398.64L1112.13,1398.83L1111.66,1399.01L1111.46,1399.09L1111.06,1398.07L1111.26,1397.99L1111.72,1397.81L1112.18,1397.62L1112.59,1397.45L1113.01,1398.47ZM1047.68,1396.25L1048.13,1396.45L1048.58,1396.65L1048.95,1396.82L1048.51,1397.83L1048.13,1397.66L1047.67,1397.45L1047.22,1397.25L1046.99,1397.14L1047.45,1396.14L1047.68,1396.25ZM1116.57,1396.89L1116.26,1397.04L1115.81,1397.25L1115.35,1397.45L1115.06,1397.59L1114.61,1396.58L1114.9,1396.45L1115.35,1396.25L1115.8,1396.04L1116.1,1395.89L1116.57,1396.89ZM1044.14,1394.52L1044.58,1394.74L1045.02,1394.96L1045.46,1395.18L1045.47,1395.19L1044.98,1396.18L1044.97,1396.17L1044.52,1395.94L1044.08,1395.72L1043.63,1395.49L1043.49,1395.41L1044,1394.44L1044.14,1394.52ZM1120.06,1395.14L1119.83,1395.26L1119.39,1395.49L1118.95,1395.72L1118.58,1395.91L1118.08,1394.93L1118.45,1394.74L1118.89,1394.52L1119.32,1394.29L1119.54,1394.17L1120.06,1395.14ZM1040.7,1392.62L1041.13,1392.87L1041.56,1393.11L1041.98,1393.35L1042.07,1393.4L1041.53,1394.36L1041.45,1394.31L1041.01,1394.07L1040.58,1393.82L1040.15,1393.57L1040.08,1393.53L1040.64,1392.58L1040.7,1392.62ZM1123.45,1393.23L1123.31,1393.32L1122.88,1393.57L1122.45,1393.82L1122.02,1394.07L1122.01,1394.07L1121.47,1393.11L1121.47,1393.11L1121.9,1392.87L1122.32,1392.62L1122.75,1392.37L1122.89,1392.28L1123.45,1393.23ZM1037.37,1390.57L1037.78,1390.83L1038.19,1391.09L1038.61,1391.36L1038.75,1391.44L1038.17,1392.38L1038.03,1392.29L1037.61,1392.02L1037.19,1391.76L1036.77,1391.49L1036.76,1391.48L1037.36,1390.56L1037.37,1390.57ZM1126.76,1391.16L1126.67,1391.22L1126.26,1391.49L1125.84,1391.76L1125.42,1392.02L1125.35,1392.07L1124.77,1391.13L1124.83,1391.09L1125.25,1390.83L1125.66,1390.57L1126.07,1390.3L1126.15,1390.24L1126.76,1391.16ZM1034.54,1388.64L1034.94,1388.92L1035.34,1389.2L1035.54,1389.34L1034.91,1390.24L1034.72,1390.11L1034.31,1389.82L1033.91,1389.54L1033.55,1389.28L1034.19,1388.39L1034.54,1388.64ZM1129.96,1388.93L1129.92,1388.96L1129.52,1389.25L1129.12,1389.54L1128.72,1389.82L1128.6,1389.91L1127.97,1389.01L1128.09,1388.92L1128.48,1388.64L1128.88,1388.36L1129.28,1388.07L1129.31,1388.05L1129.96,1388.93ZM1031.42,1386.31L1031.8,1386.61L1032.19,1386.9L1032.42,1387.08L1031.76,1387.95L1031.52,1387.78L1031.13,1387.47L1030.74,1387.17L1030.44,1386.93L1031.12,1386.07L1031.42,1386.31ZM1133.05,1386.56L1132.67,1386.86L1132.29,1387.17L1131.9,1387.47L1131.74,1387.6L1131.07,1386.73L1131.22,1386.61L1131.61,1386.31L1131.99,1386L1132.36,1385.71L1133.05,1386.56ZM1028.41,1383.82L1028.78,1384.14L1029.15,1384.46L1029.42,1384.68L1028.71,1385.52L1028.44,1385.3L1028.07,1384.98L1027.69,1384.65L1027.44,1384.44L1028.16,1383.61L1028.41,1383.82ZM1136.03,1384.05L1135.71,1384.33L1135.34,1384.65L1134.96,1384.98L1134.77,1385.14L1134.06,1384.3L1134.25,1384.14L1134.62,1383.82L1134.98,1383.5L1135.3,1383.22L1136.03,1384.05ZM1025.53,1381.2L1025.88,1381.54L1026.24,1381.87L1026.53,1382.14L1025.78,1382.95L1025.49,1382.67L1025.13,1382.34L1024.77,1382L1024.57,1381.8L1025.33,1381.01L1025.53,1381.2ZM1138.88,1381.39L1138.61,1381.66L1138.26,1382L1137.9,1382.34L1137.68,1382.55L1136.92,1381.74L1137.14,1381.54L1137.5,1381.2L1137.85,1380.87L1138.12,1380.61L1138.88,1381.39ZM1022.77,1378.45L1023.11,1378.8L1023.45,1379.15L1023.76,1379.47L1022.98,1380.24L1022.67,1379.92L1022.32,1379.56L1021.98,1379.21L1021.82,1379.04L1022.62,1378.28L1022.77,1378.45ZM1141.61,1378.61L1141.39,1378.85L1141.05,1379.21L1140.71,1379.56L1140.46,1379.82L1139.67,1379.05L1139.91,1378.8L1140.25,1378.45L1140.59,1378.1L1140.81,1377.86L1141.61,1378.61ZM1020.15,1375.57L1020.48,1375.93L1020.8,1376.3L1021.12,1376.66L1021.13,1376.67L1020.31,1377.4L1020.3,1377.4L1019.98,1377.03L1019.65,1376.66L1019.32,1376.29L1019.21,1376.15L1020.04,1375.43L1020.15,1375.57ZM1144.21,1375.7L1144.03,1375.91L1143.7,1376.29L1143.38,1376.66L1143.11,1376.96L1142.29,1376.23L1142.55,1375.93L1142.87,1375.57L1143.19,1375.2L1143.37,1374.99L1144.21,1375.7ZM1017.67,1372.56L1017.98,1372.94L1018.28,1373.32L1018.59,1373.7L1018.62,1373.75L1017.77,1374.44L1017.74,1374.39L1017.42,1374.01L1017.12,1373.63L1016.81,1373.24L1016.73,1373.13L1017.6,1372.46L1017.67,1372.56ZM1146.66,1372.67L1146.52,1372.85L1146.22,1373.24L1145.91,1373.63L1145.63,1373.98L1144.77,1373.29L1145.05,1372.94L1145.36,1372.56L1145.65,1372.17L1145.79,1372L1146.66,1372.67ZM1015.34,1369.43L1015.62,1369.83L1015.91,1370.23L1016.2,1370.62L1016.26,1370.71L1015.38,1371.37L1015.31,1371.27L1015.02,1370.87L1014.73,1370.47L1014.44,1370.07L1014.4,1370.01L1015.29,1369.38L1015.34,1369.43ZM1148.97,1369.53L1148.87,1369.67L1148.59,1370.07L1148.3,1370.47L1148.01,1370.87L1148,1370.89L1147.11,1370.24L1147.12,1370.23L1147.41,1369.83L1147.69,1369.43L1147.97,1369.04L1148.07,1368.9L1148.97,1369.53ZM1013.15,1366.2L1013.41,1366.61L1013.68,1367.02L1013.95,1367.42L1014.05,1367.57L1013.13,1368.18L1013.04,1368.03L1012.76,1367.62L1012.49,1367.21L1012.22,1366.79L1012.22,1366.78L1013.14,1366.19L1013.15,1366.2ZM1151.13,1366.28L1151.07,1366.37L1150.81,1366.79L1150.54,1367.21L1150.27,1367.62L1150.22,1367.69L1149.3,1367.08L1149.35,1367.02L1149.62,1366.61L1149.88,1366.2L1150.14,1365.78L1150.2,1365.7L1151.13,1366.28ZM1011.36,1363.27L1011.61,1363.7L1011.86,1364.12L1011.98,1364.32L1011.04,1364.89L1010.92,1364.68L1010.66,1364.26L1010.41,1363.83L1010.19,1363.45L1011.14,1362.9L1011.36,1363.27ZM1153.13,1362.94L1153.11,1362.97L1152.87,1363.4L1152.62,1363.83L1152.37,1364.26L1152.29,1364.38L1151.35,1363.82L1151.42,1363.7L1151.67,1363.27L1151.91,1362.85L1152.16,1362.42L1152.17,1362.4L1153.13,1362.94ZM1009.46,1359.84L1009.69,1360.27L1009.92,1360.7L1010.07,1360.98L1009.11,1361.51L1008.95,1361.22L1008.72,1360.79L1008.49,1360.34L1008.33,1360.03L1009.3,1359.53L1009.46,1359.84ZM1154.97,1359.51L1154.77,1359.9L1154.54,1360.34L1154.31,1360.79L1154.2,1360.99L1153.23,1360.47L1153.34,1360.27L1153.56,1359.84L1153.79,1359.4L1153.99,1359.01L1154.97,1359.51ZM1007.73,1356.3L1007.94,1356.75L1008.15,1357.19L1008.32,1357.56L1007.33,1358.03L1007.16,1357.66L1006.94,1357.21L1006.73,1356.76L1006.62,1356.52L1007.62,1356.07L1007.73,1356.3ZM1156.64,1355.99L1156.5,1356.31L1156.29,1356.76L1156.08,1357.21L1155.95,1357.5L1154.95,1357.03L1155.09,1356.75L1155.3,1356.3L1155.5,1355.85L1155.64,1355.54L1156.64,1355.99ZM1006.17,1352.67L1006.36,1353.13L1006.55,1353.59L1006.74,1354.04L1006.74,1354.05L1005.73,1354.48L1005.72,1354.47L1005.53,1354.01L1005.34,1353.55L1005.15,1353.08L1005.09,1352.93L1006.11,1352.53L1006.17,1352.67ZM1158.15,1352.39L1158.06,1352.62L1157.88,1353.08L1157.69,1353.55L1157.53,1353.93L1156.51,1353.52L1156.67,1353.13L1156.86,1352.67L1157.04,1352.21L1157.13,1351.99L1158.15,1352.39ZM1004.78,1348.95L1004.95,1349.42L1005.11,1349.89L1005.28,1350.36L1005.33,1350.48L1004.3,1350.86L1004.25,1350.74L1004.08,1350.26L1003.91,1349.79L1003.74,1349.31L1003.73,1349.28L1004.77,1348.92L1004.78,1348.95ZM1159.49,1348.72L1159.45,1348.84L1159.29,1349.31L1159.12,1349.79L1158.95,1350.26L1158.93,1350.3L1157.9,1349.93L1157.91,1349.89L1158.08,1349.42L1158.25,1348.95L1158.41,1348.48L1158.44,1348.37L1159.49,1348.72ZM1003.71,1345.63L1003.86,1346.11L1004,1346.59L1004.08,1346.84L1003.03,1347.17L1002.96,1346.91L1002.81,1346.43L1002.66,1345.95L1002.55,1345.57L1003.6,1345.26L1003.71,1345.63ZM1160.64,1345L1160.51,1345.46L1160.37,1345.95L1160.22,1346.43L1160.17,1346.6L1159.12,1346.28L1159.17,1346.11L1159.31,1345.63L1159.45,1345.15L1159.59,1344.7L1160.64,1345ZM1002.67,1341.76L1002.79,1342.25L1002.91,1342.74L1003.02,1343.14L1001.95,1343.42L1001.85,1343.01L1001.72,1342.52L1001.6,1342.02L1001.55,1341.8L1002.61,1341.54L1002.67,1341.76ZM1161.62,1341.23L1161.55,1341.53L1161.43,1342.02L1161.31,1342.52L1161.22,1342.85L1160.16,1342.58L1160.24,1342.25L1160.36,1341.76L1160.48,1341.27L1160.55,1340.98L1161.62,1341.23ZM1001.81,1337.82L1001.86,1338.07L1001.9,1338.32L1001.95,1338.57L1002,1338.81L1002.06,1339.06L1002.11,1339.31L1002.13,1339.4L1001.05,1339.63L1001.03,1339.54L1000.98,1339.28L1000.93,1339.03L1000.88,1338.78L1000.83,1338.53L1000.78,1338.28L1000.73,1338.03L1000.72,1337.99L1001.8,1337.78L1001.81,1337.82ZM1162.42,1337.41L1162.39,1337.52L1162.35,1337.78L1162.3,1338.03L1162.25,1338.28L1162.2,1338.53L1162.15,1338.78L1162.1,1339.03L1162.1,1339.05L1161.02,1338.83L1161.02,1338.81L1161.07,1338.57L1161.12,1338.32L1161.17,1338.07L1161.22,1337.82L1161.27,1337.57L1161.32,1337.32L1161.34,1337.21L1162.42,1337.41ZM1001.18,1334.06L1001.21,1334.31L1001.25,1334.57L1001.29,1334.82L1001.33,1335.07L1001.37,1335.32L1001.41,1335.57L1001.42,1335.62L1000.33,1335.8L1000.32,1335.75L1000.28,1335.49L1000.24,1335.24L1000.2,1334.98L1000.16,1334.73L1000.13,1334.47L1000.09,1334.22L1000.08,1334.14L1001.17,1333.99L1001.18,1334.06ZM1163.03,1333.56L1163.01,1333.7L1162.98,1333.96L1162.94,1334.22L1162.9,1334.47L1162.86,1334.73L1162.83,1334.98L1162.79,1335.21L1161.7,1335.05L1161.74,1334.82L1161.78,1334.57L1161.81,1334.31L1161.85,1334.06L1161.89,1333.81L1161.92,1333.56L1161.94,1333.41L1163.03,1333.56ZM1000.72,1330.25L1000.75,1330.5L1000.77,1330.76L1000.8,1331.01L1000.83,1331.27L1000.85,1331.52L1000.88,1331.78L1000.89,1331.81L999.795,1331.94L999.791,1331.9L999.762,1331.64L999.734,1331.39L999.706,1331.13L999.68,1330.87L999.654,1330.61L999.629,1330.35L999.621,1330.27L1000.72,1330.17L1000.72,1330.25ZM1163.46,1329.69L1163.45,1329.83L1163.42,1330.09L1163.4,1330.35L1163.37,1330.61L1163.35,1330.87L1163.32,1331.13L1163.3,1331.35L1162.2,1331.23L1162.23,1331.01L1162.26,1330.76L1162.28,1330.5L1162.31,1330.25L1162.33,1329.99L1162.35,1329.73L1162.37,1329.59L1163.46,1329.69ZM1000.45,1326.38L1000.46,1326.64L1000.47,1326.9L1000.49,1327.16L1000.5,1327.41L1000.52,1327.67L1000.53,1327.93L1000.54,1327.98L999.442,1328.06L999.439,1328.01L999.422,1327.74L999.405,1327.48L999.39,1327.22L999.375,1326.96L999.362,1326.69L999.349,1326.43L999.347,1326.38L1000.44,1326.33L1000.45,1326.38ZM1163.71,1325.8L1163.7,1325.9L1163.69,1326.17L1163.68,1326.43L1163.67,1326.69L1163.65,1326.96L1163.64,1327.22L1163.62,1327.46L1162.53,1327.4L1162.54,1327.16L1162.56,1326.9L1162.57,1326.64L1162.58,1326.38L1162.59,1326.12L1162.6,1325.86L1162.61,1325.75L1163.71,1325.8ZM1000.35,1322.73L1000.36,1322.99L1000.36,1323.25L1000.36,1323.51L1000.36,1323.78L1000.37,1324.04L1000.37,1324.14L999.272,1324.16L999.27,1324.06L999.265,1323.79L999.261,1323.53L999.258,1323.26L999.256,1323L999.255,1322.73L999.255,1322.49L1000.35,1322.49L1000.35,1322.73ZM1163.77,1321.93L1163.77,1322.2L1163.77,1322.46L1163.77,1322.73L1163.77,1323L1163.77,1323.26L1163.77,1323.53L1163.77,1323.57L1162.67,1323.56L1162.67,1323.51L1162.67,1323.25L1162.67,1322.99L1162.67,1322.73L1162.67,1322.46L1162.67,1322.2L1162.67,1321.94L1162.67,1321.91L1163.77,1321.9L1163.77,1321.93ZM1000.44,1318.64L1000.44,1318.81L1000.42,1319.07L1000.41,1319.33L1000.4,1319.59L1000.39,1319.85L1000.39,1320.11L1000.38,1320.29L999.284,1320.26L999.289,1320.08L999.297,1319.82L999.305,1319.55L999.315,1319.29L999.325,1319.02L999.337,1318.76L999.344,1318.59L1000.44,1318.64ZM1163.67,1318.24L1163.68,1318.5L1163.69,1318.76L1163.7,1319.02L1163.71,1319.29L1163.72,1319.55L1163.73,1319.67L1162.63,1319.71L1162.62,1319.59L1162.62,1319.33L1162.6,1319.07L1162.59,1318.81L1162.58,1318.55L1162.57,1318.29L1162.56,1318.06L1163.65,1318.01L1163.67,1318.24ZM1000.71,1314.81L1000.7,1314.94L1000.68,1315.2L1000.65,1315.45L1000.63,1315.71L1000.61,1315.97L1000.59,1316.22L1000.57,1316.45L999.478,1316.37L999.495,1316.14L999.515,1315.88L999.536,1315.62L999.558,1315.36L999.581,1315.1L999.604,1314.84L999.617,1314.7L1000.71,1314.81ZM1163.37,1314.32L1163.4,1314.58L1163.42,1314.84L1163.45,1315.1L1163.47,1315.36L1163.49,1315.62L1163.51,1315.78L1162.41,1315.87L1162.4,1315.71L1162.38,1315.45L1162.35,1315.2L1162.33,1314.94L1162.31,1314.68L1162.28,1314.43L1162.26,1314.23L1163.35,1314.12L1163.37,1314.32ZM1001.16,1310.99L1001.14,1311.12L1001.11,1311.37L1001.07,1311.63L1001.04,1311.88L1001.01,1312.13L1000.97,1312.39L1000.95,1312.62L999.855,1312.49L999.884,1312.25L999.916,1312L999.949,1311.74L999.983,1311.48L1000.02,1311.23L1000.05,1310.97L1000.07,1310.83L1001.16,1310.99ZM1162.9,1310.46L1162.94,1310.71L1162.98,1310.97L1163.01,1311.22L1163.05,1311.48L1163.08,1311.74L1163.1,1311.9L1162.01,1312.04L1161.99,1311.88L1161.95,1311.63L1161.92,1311.37L1161.89,1311.12L1161.85,1310.87L1161.81,1310.62L1161.78,1310.41L1162.87,1310.25L1162.9,1310.46ZM1001.79,1307.19L1001.76,1307.36L1001.71,1307.61L1001.67,1307.86L1001.62,1308.11L1001.58,1308.36L1001.53,1308.61L1001.5,1308.82L1000.42,1308.63L1000.45,1308.42L1000.5,1308.17L1000.54,1307.91L1000.59,1307.66L1000.63,1307.41L1000.68,1307.15L1000.71,1306.99L1001.79,1307.19ZM1162.25,1306.65L1162.3,1306.9L1162.35,1307.15L1162.39,1307.41L1162.44,1307.66L1162.49,1307.91L1162.51,1308.05L1161.43,1308.24L1161.41,1308.11L1161.36,1307.86L1161.32,1307.61L1161.27,1307.36L1161.22,1307.11L1161.17,1306.86L1161.13,1306.62L1162.2,1306.41L1162.25,1306.65ZM1002.6,1303.43L1002.55,1303.65L1002.43,1304.14L1002.32,1304.64L1002.23,1305.04L1001.16,1304.8L1001.25,1304.4L1001.36,1303.9L1001.48,1303.4L1001.53,1303.18L1002.6,1303.43ZM1161.43,1302.9L1161.55,1303.4L1161.66,1303.9L1161.74,1304.23L1160.67,1304.47L1160.59,1304.14L1160.48,1303.65L1160.36,1303.17L1160.29,1302.87L1161.36,1302.6L1161.43,1302.9ZM1003.59,1299.72L1003.57,1299.78L1003.44,1300.26L1003.3,1300.74L1003.17,1301.22L1003.14,1301.3L1002.08,1301.02L1002.11,1300.93L1002.24,1300.44L1002.38,1299.96L1002.52,1299.47L1002.54,1299.41L1003.59,1299.72ZM1160.37,1298.98L1160.51,1299.47L1160.65,1299.96L1160.79,1300.44L1160.79,1300.45L1159.73,1300.74L1159.73,1300.74L1159.59,1300.26L1159.45,1299.78L1159.31,1299.3L1159.27,1299.16L1160.33,1298.84L1160.37,1298.98ZM1004.76,1296.05L1004.62,1296.45L1004.46,1296.92L1004.31,1297.39L1004.24,1297.62L1003.19,1297.28L1003.26,1297.05L1003.42,1296.57L1003.58,1296.09L1003.72,1295.7L1004.76,1296.05ZM1159.12,1295.14L1159.29,1295.62L1159.45,1296.09L1159.61,1296.57L1159.66,1296.72L1158.61,1297.06L1158.57,1296.92L1158.41,1296.45L1158.25,1295.98L1158.08,1295.51L1158.08,1295.5L1159.12,1295.13L1159.12,1295.14ZM1006.1,1292.45L1005.99,1292.72L1005.81,1293.18L1005.63,1293.64L1005.5,1293.98L1004.47,1293.6L1004.6,1293.25L1004.78,1292.78L1004.97,1292.31L1005.07,1292.04L1006.1,1292.45ZM1157.88,1291.85L1158.06,1292.31L1158.25,1292.78L1158.35,1293.05L1157.32,1293.44L1157.22,1293.18L1157.04,1292.72L1156.86,1292.26L1156.71,1291.91L1157.73,1291.49L1157.88,1291.85ZM1007.61,1288.91L1007.53,1289.08L1007.33,1289.53L1007.13,1289.98L1006.94,1290.42L1005.93,1289.98L1006.12,1289.54L1006.32,1289.08L1006.53,1288.62L1006.61,1288.45L1007.61,1288.91ZM1156.29,1288.17L1156.5,1288.62L1156.71,1289.08L1156.86,1289.44L1155.86,1289.88L1155.7,1289.53L1155.5,1289.08L1155.3,1288.63L1155.18,1288.38L1156.18,1287.92L1156.29,1288.17ZM1009.28,1285.45L1009.24,1285.53L1009.01,1285.97L1008.8,1286.41L1008.58,1286.85L1008.54,1286.92L1007.55,1286.44L1007.59,1286.37L1007.81,1285.92L1008.03,1285.47L1008.26,1285.03L1008.3,1284.94L1009.28,1285.45ZM1154.54,1284.59L1154.77,1285.03L1154.99,1285.47L1155.21,1285.91L1154.23,1286.4L1154.01,1285.97L1153.79,1285.53L1153.56,1285.09L1153.48,1284.93L1154.45,1284.42L1154.54,1284.59ZM1011.12,1282.07L1011.11,1282.08L1010.87,1282.51L1010.63,1282.93L1010.39,1283.36L1010.31,1283.51L1009.35,1282.98L1009.43,1282.83L1009.67,1282.4L1009.91,1281.96L1010.16,1281.53L1010.17,1281.52L1011.12,1282.07ZM1152.62,1281.1L1152.87,1281.53L1153.11,1281.96L1153.36,1282.4L1153.39,1282.46L1152.43,1283L1152.4,1282.93L1152.16,1282.51L1151.91,1282.08L1151.67,1281.66L1151.62,1281.57L1152.56,1281.01L1152.62,1281.1ZM1013.12,1278.78L1012.88,1279.15L1012.62,1279.56L1012.37,1279.98L1012.24,1280.18L1011.3,1279.61L1011.43,1279.4L1011.69,1278.98L1011.96,1278.56L1012.19,1278.19L1013.12,1278.78ZM1150.54,1277.72L1150.81,1278.14L1151.07,1278.56L1151.34,1278.98L1151.41,1279.11L1150.48,1279.68L1150.4,1279.56L1150.14,1279.15L1149.88,1278.73L1149.62,1278.32L1149.6,1278.29L1150.52,1277.69L1150.54,1277.72ZM1015.27,1275.59L1015.05,1275.89L1014.77,1276.29L1014.5,1276.7L1014.33,1276.95L1013.42,1276.33L1013.59,1276.08L1013.87,1275.67L1014.15,1275.26L1014.37,1274.96L1015.27,1275.59ZM1148.59,1274.86L1148.87,1275.26L1149.16,1275.67L1149.28,1275.84L1148.37,1276.47L1148.25,1276.29L1147.97,1275.89L1147.69,1275.5L1147.42,1275.12L1148.32,1274.48L1148.59,1274.86ZM1017.57,1272.51L1017.37,1272.75L1017.08,1273.14L1016.78,1273.53L1016.56,1273.82L1015.68,1273.16L1015.9,1272.87L1016.2,1272.47L1016.5,1272.08L1016.7,1271.83L1017.57,1272.51ZM1146.22,1271.69L1146.52,1272.08L1146.83,1272.47L1146.99,1272.69L1146.12,1273.35L1145.95,1273.14L1145.65,1272.75L1145.36,1272.37L1145.1,1272.05L1145.96,1271.37L1146.22,1271.69ZM1020.01,1269.54L1019.84,1269.73L1019.52,1270.1L1019.21,1270.48L1018.94,1270.8L1018.1,1270.09L1018.36,1269.77L1018.68,1269.39L1019,1269.02L1019.17,1268.82L1020.01,1269.54ZM1143.7,1268.64L1144.03,1269.02L1144.35,1269.39L1144.55,1269.64L1143.71,1270.35L1143.51,1270.1L1143.19,1269.73L1142.87,1269.36L1142.64,1269.1L1143.47,1268.38L1143.7,1268.64ZM1022.58,1266.68L1022.44,1266.83L1022.11,1267.19L1021.78,1267.55L1021.46,1267.89L1020.65,1267.15L1020.97,1266.8L1021.3,1266.44L1021.64,1266.08L1021.79,1265.93L1022.58,1266.68ZM1141.05,1265.72L1141.39,1266.08L1141.73,1266.44L1141.98,1266.71L1141.17,1267.46L1140.92,1267.19L1140.59,1266.83L1140.25,1266.48L1140.04,1266.26L1140.84,1265.5L1141.05,1265.72ZM1025.29,1263.95L1025.18,1264.06L1024.83,1264.4L1024.48,1264.74L1024.14,1265.09L1024.12,1265.11L1023.34,1264.33L1023.36,1264.31L1023.71,1263.96L1024.06,1263.62L1024.41,1263.27L1024.53,1263.16L1025.29,1263.95ZM1138.26,1262.93L1138.61,1263.27L1138.97,1263.62L1139.27,1263.91L1138.5,1264.7L1138.2,1264.4L1137.85,1264.06L1137.5,1263.73L1137.31,1263.55L1138.07,1262.75L1138.26,1262.93ZM1028.13,1261.35L1028.05,1261.43L1027.68,1261.75L1027.32,1262.07L1026.95,1262.4L1026.9,1262.45L1026.16,1261.64L1026.22,1261.59L1026.58,1261.26L1026.95,1260.93L1027.32,1260.6L1027.41,1260.53L1028.13,1261.35ZM1135.34,1260.28L1135.71,1260.6L1136.08,1260.93L1136.43,1261.24L1135.7,1262.06L1135.35,1261.75L1134.98,1261.43L1134.62,1261.11L1134.46,1260.97L1135.18,1260.14L1135.34,1260.28ZM1031.08,1258.89L1031.04,1258.93L1030.66,1259.23L1030.28,1259.54L1029.9,1259.85L1029.8,1259.93L1029.1,1259.08L1029.2,1259L1029.58,1258.69L1029.97,1258.38L1030.35,1258.07L1030.4,1258.03L1031.08,1258.89ZM1132.29,1257.76L1132.67,1258.07L1133.06,1258.38L1133.44,1258.69L1133.47,1258.71L1132.78,1259.56L1132.75,1259.54L1132.37,1259.23L1131.99,1258.93L1131.61,1258.62L1131.49,1258.53L1132.16,1257.66L1132.29,1257.76ZM1034.15,1256.57L1034.15,1256.57L1033.75,1256.86L1033.36,1257.15L1032.97,1257.44L1032.82,1257.55L1032.16,1256.67L1032.31,1256.56L1032.71,1256.26L1033.1,1255.97L1033.51,1255.68L1033.51,1255.68L1034.15,1256.57ZM1129.12,1255.39L1129.52,1255.68L1129.92,1255.97L1130.32,1256.26L1130.4,1256.32L1129.74,1257.2L1129.67,1257.15L1129.28,1256.86L1128.88,1256.57L1128.48,1256.29L1128.4,1256.23L1129.04,1255.33L1129.12,1255.39ZM1037.32,1254.4L1036.96,1254.63L1036.56,1254.9L1036.15,1255.17L1035.95,1255.31L1035.33,1254.4L1035.53,1254.26L1035.94,1253.99L1036.36,1253.71L1036.72,1253.48L1037.32,1254.4ZM1125.84,1253.17L1126.26,1253.44L1126.67,1253.71L1127.08,1253.99L1127.21,1254.07L1126.6,1254.98L1126.47,1254.9L1126.07,1254.63L1125.66,1254.36L1125.25,1254.1L1125.22,1254.08L1125.81,1253.15L1125.84,1253.17ZM1040.59,1252.38L1040.28,1252.56L1039.86,1252.81L1039.44,1253.06L1039.18,1253.22L1038.61,1252.29L1038.87,1252.12L1039.3,1251.87L1039.72,1251.61L1040.04,1251.43L1040.59,1252.38ZM1122.88,1251.36L1123.31,1251.61L1123.73,1251.87L1123.92,1251.98L1123.35,1252.92L1123.17,1252.81L1122.75,1252.56L1122.32,1252.31L1121.93,1252.08L1122.48,1251.13L1122.88,1251.36ZM1043.96,1250.51L1043.71,1250.64L1043.27,1250.87L1042.84,1251.11L1042.51,1251.29L1041.98,1250.33L1042.32,1250.14L1042.75,1249.9L1043.19,1249.67L1043.45,1249.54L1043.96,1250.51ZM1119.39,1249.44L1119.83,1249.67L1120.27,1249.9L1120.53,1250.04L1120.01,1251.01L1119.75,1250.87L1119.32,1250.64L1118.89,1250.41L1118.55,1250.24L1119.06,1249.27L1119.39,1249.44ZM1047.41,1248.81L1047.23,1248.89L1046.79,1249.1L1046.34,1249.31L1045.92,1249.52L1045.44,1248.53L1045.86,1248.32L1046.31,1248.11L1046.77,1247.89L1046.94,1247.81L1047.41,1248.81ZM1115.81,1247.68L1116.26,1247.89L1116.71,1248.11L1117.06,1248.27L1116.59,1249.26L1116.24,1249.1L1115.8,1248.89L1115.35,1248.68L1115.09,1248.57L1115.55,1247.57L1115.81,1247.68ZM1050.93,1247.27L1050.85,1247.31L1050.39,1247.5L1049.93,1247.69L1049.48,1247.88L1049.41,1247.91L1048.98,1246.9L1049.05,1246.87L1049.51,1246.67L1049.97,1246.48L1050.43,1246.29L1050.52,1246.25L1050.93,1247.27ZM1112.13,1246.1L1112.6,1246.29L1113.06,1246.48L1113.51,1246.67L1113.08,1247.68L1112.64,1247.5L1112.18,1247.31L1111.72,1247.12L1111.56,1247.06L1111.96,1246.03L1112.13,1246.1ZM1054.53,1245.91L1054.09,1246.06L1053.62,1246.23L1053.15,1246.4L1052.98,1246.47L1052.59,1245.44L1052.77,1245.38L1053.24,1245.2L1053.71,1245.03L1054.16,1244.87L1054.53,1245.91ZM1108.36,1244.69L1108.84,1244.86L1109.31,1245.03L1109.79,1245.2L1109.88,1245.24L1109.5,1246.27L1109.41,1246.23L1108.94,1246.06L1108.47,1245.9L1108,1245.73L1107.95,1245.71L1108.31,1244.67L1108.36,1244.69ZM1058.18,1244.71L1057.87,1244.81L1057.39,1244.96L1056.91,1245.11L1056.61,1245.2L1056.28,1244.16L1056.58,1244.06L1057.06,1243.91L1057.55,1243.76L1057.87,1243.66L1058.18,1244.71ZM1105,1243.61L1105.48,1243.76L1105.96,1243.91L1106.19,1243.98L1105.86,1245.03L1105.64,1244.96L1105.16,1244.81L1104.68,1244.66L1104.29,1244.55L1104.6,1243.49L1105,1243.61ZM1061.89,1243.7L1061.73,1243.74L1061.24,1243.86L1060.76,1243.99L1060.3,1244.11L1060.02,1243.05L1060.47,1242.93L1060.97,1242.8L1061.46,1242.67L1061.63,1242.63L1061.89,1243.7ZM1101.07,1242.55L1101.57,1242.67L1102.06,1242.8L1102.44,1242.9L1102.17,1243.96L1101.79,1243.86L1101.3,1243.74L1100.81,1243.62L1100.57,1243.56L1100.83,1242.49L1101.07,1242.55ZM1065.65,1242.86L1065.41,1242.9L1065.17,1242.95L1064.92,1243.01L1064.67,1243.06L1064.18,1243.16L1064.03,1243.19L1063.8,1242.12L1063.94,1242.09L1064.44,1241.98L1064.69,1241.93L1064.94,1241.88L1065.2,1241.83L1065.43,1241.78L1065.65,1242.86ZM1097.08,1241.68L1097.33,1241.73L1097.58,1241.78L1097.83,1241.83L1098.08,1241.88L1098.33,1241.93L1098.59,1241.98L1098.66,1242L1098.42,1243.07L1098.36,1243.06L1098.11,1243.01L1097.86,1242.95L1097.61,1242.9L1097.37,1242.86L1097.12,1242.81L1096.87,1242.76L1096.81,1242.75L1097.01,1241.67L1097.08,1241.68ZM1069.44,1242.2L1069.41,1242.2L1069.16,1242.24L1068.91,1242.28L1068.66,1242.32L1068.41,1242.36L1068.16,1242.4L1067.9,1242.44L1067.81,1242.46L1067.62,1241.38L1067.72,1241.36L1067.98,1241.32L1068.23,1241.28L1068.49,1241.23L1068.74,1241.19L1069,1241.15L1069.25,1241.12L1069.28,1241.11L1069.44,1242.2ZM1093.27,1241.04L1093.52,1241.08L1093.78,1241.12L1094.03,1241.15L1094.29,1241.19L1094.54,1241.23L1094.8,1241.28L1094.82,1241.28L1094.64,1242.36L1094.62,1242.36L1094.37,1242.32L1094.12,1242.28L1093.87,1242.24L1093.62,1242.2L1093.36,1242.16L1093.11,1242.13L1093.02,1242.12L1093.17,1241.03L1093.27,1241.04ZM1073.25,1241.72L1073.22,1241.72L1072.96,1241.75L1072.71,1241.78L1072.45,1241.81L1072.2,1241.83L1071.94,1241.86L1071.69,1241.89L1071.62,1241.9L1071.48,1240.81L1071.56,1240.8L1071.82,1240.77L1072.08,1240.74L1072.33,1240.71L1072.59,1240.68L1072.85,1240.66L1073.11,1240.63L1073.14,1240.63L1073.25,1241.72ZM1089.4,1240.58L1089.66,1240.6L1089.92,1240.63L1090.18,1240.66L1090.44,1240.68L1090.69,1240.71L1090.95,1240.74L1090.96,1240.74L1090.84,1241.84L1090.83,1241.83L1090.57,1241.81L1090.32,1241.78L1090.06,1241.75L1089.81,1241.72L1089.55,1241.7L1089.3,1241.67L1089.2,1241.66L1089.3,1240.57L1089.4,1240.58ZM1077.09,1241.42L1077.08,1241.42L1076.82,1241.44L1076.56,1241.45L1076.31,1241.47L1076.05,1241.49L1075.79,1241.5L1075.53,1241.52L1075.44,1241.53L1075.36,1240.43L1075.45,1240.43L1075.71,1240.41L1075.97,1240.39L1076.24,1240.37L1076.5,1240.36L1076.76,1240.34L1077.02,1240.33L1077.03,1240.33L1077.09,1241.42ZM1085.48,1240.3L1085.74,1240.31L1086.01,1240.33L1086.27,1240.34L1086.53,1240.36L1086.79,1240.37L1087.05,1240.39L1087.08,1240.39L1087.01,1241.49L1086.98,1241.49L1086.72,1241.47L1086.46,1241.45L1086.21,1241.44L1085.95,1241.42L1085.69,1241.41L1085.43,1241.4L1085.36,1241.39L1085.41,1240.3L1085.48,1240.3ZM1080.93,1241.31L1080.73,1241.31L1080.47,1241.31L1080.2,1241.32L1079.94,1241.32L1079.68,1241.33L1079.42,1241.33L1079.28,1241.34L1079.25,1240.24L1079.39,1240.23L1079.66,1240.23L1079.92,1240.22L1080.19,1240.22L1080.45,1240.21L1080.72,1240.21L1080.92,1240.21L1080.93,1241.31ZM1081.78,1240.21L1082.05,1240.21L1082.31,1240.21L1082.58,1240.21L1082.84,1240.22L1083.11,1240.22L1083.18,1240.22L1083.16,1241.32L1083.09,1241.32L1082.82,1241.32L1082.56,1241.31L1082.3,1241.31L1082.04,1241.31L1081.78,1241.31L1081.51,1241.3L1081.51,1241.3L1081.52,1240.2L1081.78,1240.21Z"/>
            </g>
            <g transform="matrix(0.761359,0,0,0.761359,137.017,-178.204)">
                <path d="M1082.72,1404.98L1082.58,1404.99L1082.05,1404.99L1081.51,1404.99L1080.98,1404.99L1080.63,1404.99L1080.65,1403.62L1080.99,1403.62L1081.51,1403.62L1082.04,1403.62L1082.56,1403.62L1082.7,1403.62L1082.72,1404.98ZM1076.31,1403.46L1076.82,1403.49L1077.34,1403.52L1077.86,1403.54L1077.91,1403.55L1077.86,1404.91L1077.8,1404.91L1077.27,1404.89L1076.74,1404.86L1076.22,1404.83L1075.77,1404.8L1075.86,1403.43L1076.31,1403.46ZM1087.58,1404.77L1087.33,1404.79L1086.81,1404.83L1086.28,1404.86L1085.76,1404.89L1085.5,1404.9L1085.43,1403.53L1085.69,1403.52L1086.21,1403.49L1086.72,1403.46L1087.24,1403.43L1087.48,1403.41L1087.58,1404.77ZM1071.18,1402.97L1071.69,1403.04L1072.2,1403.1L1072.71,1403.15L1073.14,1403.2L1073,1404.56L1072.56,1404.51L1072.04,1404.45L1071.53,1404.39L1071.01,1404.33L1070.92,1404.32L1071.1,1402.96L1071.18,1402.97ZM1092.42,1404.28L1092.02,1404.33L1091.5,1404.39L1090.98,1404.45L1090.46,1404.51L1090.35,1404.52L1090.21,1403.16L1090.32,1403.15L1090.83,1403.1L1091.34,1403.04L1091.85,1402.97L1092.25,1402.92L1092.42,1404.28ZM1066.66,1402.27L1067.15,1402.36L1067.65,1402.44L1068.16,1402.53L1068.39,1402.57L1068.17,1403.92L1067.93,1403.88L1067.42,1403.79L1066.91,1403.7L1066.41,1403.61L1066.12,1403.56L1066.37,1402.21L1066.66,1402.27ZM1097.24,1403.49L1097.13,1403.52L1096.62,1403.61L1096.11,1403.7L1095.61,1403.79L1095.18,1403.86L1094.95,1402.52L1095.37,1402.44L1095.87,1402.36L1096.37,1402.27L1096.87,1402.17L1096.97,1402.15L1097.24,1403.49ZM1061.73,1401.19L1062.21,1401.31L1062.7,1401.43L1063.19,1401.55L1063.68,1401.66L1063.69,1401.66L1063.39,1402.99L1063.39,1402.99L1062.89,1402.88L1062.39,1402.76L1061.89,1402.64L1061.39,1402.52L1061.36,1402.51L1061.69,1401.18L1061.73,1401.19ZM1101.98,1402.43L1101.63,1402.52L1101.14,1402.64L1100.64,1402.76L1100.14,1402.88L1099.95,1402.92L1099.65,1401.59L1099.83,1401.55L1100.32,1401.43L1100.81,1401.31L1101.3,1401.19L1101.64,1401.1L1101.98,1402.43ZM1057.39,1399.97L1057.87,1400.12L1058.35,1400.26L1058.83,1400.41L1059.05,1400.47L1058.67,1401.79L1058.44,1401.72L1057.95,1401.58L1057.47,1401.43L1056.98,1401.28L1056.68,1401.18L1057.09,1399.88L1057.39,1399.97ZM1106.66,1401.08L1106.53,1401.13L1106.04,1401.28L1105.56,1401.43L1105.07,1401.58L1104.67,1401.69L1104.28,1400.38L1104.68,1400.26L1105.16,1400.12L1105.64,1399.97L1106.11,1399.82L1106.25,1399.78L1106.66,1401.08ZM1052.69,1398.35L1053.15,1398.53L1053.62,1398.7L1054.09,1398.87L1054.49,1399.01L1054.03,1400.3L1053.62,1400.15L1053.15,1399.98L1052.68,1399.81L1052.2,1399.63L1052.08,1399.58L1052.57,1398.3L1052.69,1398.35ZM1111.25,1399.46L1110.82,1399.63L1110.35,1399.81L1109.88,1399.98L1109.4,1400.15L1109.3,1400.19L1108.84,1398.9L1108.94,1398.87L1109.41,1398.7L1109.87,1398.53L1110.34,1398.35L1110.76,1398.19L1111.25,1399.46ZM1048.58,1396.65L1049.03,1396.85L1049.48,1397.05L1049.93,1397.24L1050.03,1397.28L1049.5,1398.54L1049.4,1398.5L1048.94,1398.31L1048.48,1398.11L1048.02,1397.9L1047.59,1397.71L1048.15,1396.46L1048.58,1396.65ZM1115.74,1397.57L1115.46,1397.7L1115.01,1397.9L1114.55,1398.11L1114.09,1398.31L1113.83,1398.41L1113.3,1397.16L1113.55,1397.05L1114,1396.85L1114.45,1396.65L1114.9,1396.45L1115.17,1396.33L1115.74,1397.57ZM1044.14,1394.52L1044.58,1394.74L1045.02,1394.96L1045.46,1395.18L1045.67,1395.29L1045.07,1396.52L1044.85,1396.41L1044.4,1396.18L1043.95,1395.96L1043.51,1395.73L1043.21,1395.57L1043.85,1394.36L1044.14,1394.52ZM1120.11,1395.42L1119.96,1395.5L1119.52,1395.73L1119.07,1395.96L1118.63,1396.18L1118.26,1396.37L1117.64,1395.15L1118.01,1394.96L1118.45,1394.74L1118.89,1394.52L1119.32,1394.29L1119.47,1394.21L1120.11,1395.42ZM1039.86,1392.12L1040.28,1392.37L1040.7,1392.62L1041.13,1392.87L1041.44,1393.05L1040.77,1394.23L1040.45,1394.05L1040.02,1393.8L1039.59,1393.55L1039.16,1393.3L1038.97,1393.18L1039.67,1392.01L1039.86,1392.12ZM1124.34,1393.01L1124.3,1393.04L1123.87,1393.3L1123.44,1393.55L1123.01,1393.8L1122.58,1394.05L1122.54,1394.07L1121.86,1392.89L1121.9,1392.87L1122.32,1392.62L1122.75,1392.37L1123.17,1392.12L1123.59,1391.87L1123.63,1391.84L1124.34,1393.01ZM1035.75,1389.48L1036.15,1389.76L1036.56,1390.03L1036.96,1390.3L1037.36,1390.56L1036.61,1391.7L1036.21,1391.44L1035.8,1391.17L1035.38,1390.89L1034.97,1390.61L1034.87,1390.54L1035.65,1389.41L1035.75,1389.48ZM1128.42,1390.36L1128.06,1390.61L1127.64,1390.89L1127.23,1391.17L1126.82,1391.44L1126.69,1391.53L1125.94,1390.38L1126.07,1390.3L1126.47,1390.03L1126.88,1389.76L1127.28,1389.48L1127.64,1389.23L1128.42,1390.36ZM1031.8,1386.61L1032.19,1386.9L1032.58,1387.2L1032.97,1387.49L1033.36,1387.78L1033.42,1387.83L1032.61,1388.93L1032.55,1388.88L1032.15,1388.59L1031.75,1388.29L1031.36,1387.99L1030.96,1387.69L1030.94,1387.67L1031.78,1386.59L1031.8,1386.61ZM1132.34,1387.47L1132.06,1387.69L1131.67,1387.99L1131.28,1388.29L1130.88,1388.59L1130.68,1388.74L1129.87,1387.64L1130.06,1387.49L1130.45,1387.2L1130.84,1386.9L1131.22,1386.61L1131.5,1386.39L1132.34,1387.47ZM1028.41,1383.82L1028.78,1384.14L1029.15,1384.46L1029.53,1384.77L1029.65,1384.88L1028.78,1385.93L1028.65,1385.82L1028.27,1385.5L1027.89,1385.18L1027.52,1384.86L1027.19,1384.57L1028.09,1383.54L1028.41,1383.82ZM1136.08,1384.36L1135.88,1384.53L1135.51,1384.86L1135.14,1385.18L1134.76,1385.5L1134.5,1385.72L1133.62,1384.67L1133.88,1384.46L1134.25,1384.14L1134.62,1383.82L1134.98,1383.5L1135.18,1383.33L1136.08,1384.36ZM1024.83,1380.53L1025.18,1380.87L1025.53,1381.2L1025.88,1381.54L1026.06,1381.71L1025.13,1382.7L1024.94,1382.53L1024.59,1382.19L1024.23,1381.85L1023.87,1381.51L1023.62,1381.26L1024.58,1380.29L1024.83,1380.53ZM1139.64,1381.03L1139.51,1381.16L1139.15,1381.51L1138.8,1381.85L1138.44,1382.19L1138.14,1382.48L1137.2,1381.49L1137.5,1381.2L1137.85,1380.87L1138.2,1380.53L1138.55,1380.19L1138.67,1380.06L1139.64,1381.03ZM1021.45,1377.02L1021.78,1377.38L1022.11,1377.74L1022.44,1378.1L1022.67,1378.33L1021.67,1379.27L1021.45,1379.03L1021.11,1378.67L1020.77,1378.31L1020.44,1377.94L1020.25,1377.74L1021.27,1376.83L1021.45,1377.02ZM1142.99,1377.5L1142.92,1377.58L1142.59,1377.94L1142.26,1378.31L1141.92,1378.67L1141.58,1379.03L1141.58,1379.04L1140.58,1378.1L1140.59,1378.1L1140.92,1377.74L1141.25,1377.38L1141.58,1377.02L1141.91,1376.66L1141.97,1376.59L1142.99,1377.5ZM1018.28,1373.32L1018.59,1373.7L1018.9,1374.08L1019.21,1374.45L1019.47,1374.77L1018.42,1375.65L1018.16,1375.33L1017.84,1374.95L1017.53,1374.57L1017.22,1374.18L1017.1,1374.04L1018.17,1373.18L1018.28,1373.32ZM1146.13,1373.78L1146.12,1373.79L1145.81,1374.18L1145.5,1374.57L1145.19,1374.95L1144.87,1375.33L1144.81,1375.4L1143.76,1374.52L1143.82,1374.45L1144.13,1374.08L1144.44,1373.7L1144.75,1373.32L1145.05,1372.94L1145.06,1372.93L1146.13,1373.78ZM1015.34,1369.43L1015.62,1369.83L1015.91,1370.23L1016.2,1370.62L1016.49,1371.01L1016.49,1371.02L1015.4,1371.84L1015.39,1371.83L1015.1,1371.43L1014.8,1371.03L1014.51,1370.63L1014.22,1370.23L1014.17,1370.15L1015.28,1369.36L1015.34,1369.43ZM1149.05,1369.89L1148.81,1370.23L1148.52,1370.63L1148.23,1371.03L1147.93,1371.43L1147.83,1371.58L1146.73,1370.76L1146.83,1370.62L1147.12,1370.23L1147.41,1369.83L1147.69,1369.43L1147.93,1369.1L1149.05,1369.89ZM1012.88,1365.78L1013.15,1366.2L1013.41,1366.61L1013.68,1367.02L1013.74,1367.1L1012.6,1367.86L1012.54,1367.77L1012.26,1367.35L1012,1366.93L1011.73,1366.52L1011.47,1366.1L1012.63,1365.38L1012.88,1365.78ZM1151.73,1365.82L1151.56,1366.09L1151.3,1366.52L1151.03,1366.93L1150.76,1367.35L1150.61,1367.58L1149.47,1366.83L1149.62,1366.61L1149.88,1366.2L1150.14,1365.78L1150.4,1365.37L1150.57,1365.1L1151.73,1365.82ZM1010.39,1361.57L1010.63,1362L1010.87,1362.42L1011.11,1362.85L1011.22,1363.03L1010.03,1363.72L1009.93,1363.53L1009.68,1363.1L1009.44,1362.66L1009.19,1362.23L1009.01,1361.9L1010.21,1361.24L1010.39,1361.57ZM1154.17,1361.61L1154.08,1361.79L1153.84,1362.23L1153.59,1362.66L1153.35,1363.1L1153.16,1363.43L1151.97,1362.75L1152.16,1362.42L1152.4,1362L1152.64,1361.57L1152.87,1361.14L1152.97,1360.96L1154.17,1361.61ZM1008.15,1357.19L1008.36,1357.64L1008.58,1358.08L1008.8,1358.52L1008.94,1358.82L1007.72,1359.43L1007.57,1359.13L1007.35,1358.68L1007.13,1358.23L1006.91,1357.78L1006.81,1357.56L1008.05,1356.97L1008.15,1357.19ZM1156.36,1357.26L1156.33,1357.33L1156.11,1357.78L1155.9,1358.23L1155.68,1358.68L1155.46,1359.13L1155.45,1359.14L1154.23,1358.53L1154.23,1358.52L1154.45,1358.08L1154.67,1357.64L1154.88,1357.19L1155.09,1356.75L1155.12,1356.68L1156.36,1357.26ZM1006.17,1352.67L1006.36,1353.13L1006.55,1353.59L1006.74,1354.04L1006.92,1354.48L1005.66,1355.01L1005.48,1354.58L1005.28,1354.11L1005.09,1353.65L1004.9,1353.18L1004.86,1353.09L1006.13,1352.58L1006.17,1352.67ZM1158.28,1352.79L1158.13,1353.18L1157.94,1353.65L1157.75,1354.11L1157.55,1354.58L1157.49,1354.72L1156.23,1354.18L1156.29,1354.04L1156.48,1353.59L1156.67,1353.13L1156.86,1352.67L1157.01,1352.28L1158.28,1352.79ZM1004.62,1348.48L1004.78,1348.95L1004.95,1349.42L1005.11,1349.89L1005.16,1350.03L1003.88,1350.49L1003.83,1350.35L1003.65,1349.88L1003.49,1349.4L1003.33,1348.92L1003.19,1348.52L1004.49,1348.09L1004.62,1348.48ZM1159.94,1348.21L1159.86,1348.44L1159.7,1348.92L1159.54,1349.4L1159.37,1349.88L1159.26,1350.18L1157.98,1349.72L1158.08,1349.42L1158.25,1348.95L1158.41,1348.48L1158.57,1348.01L1158.64,1347.78L1159.94,1348.21ZM1003.17,1343.71L1003.3,1344.19L1003.44,1344.67L1003.57,1345.15L1003.67,1345.48L1002.36,1345.86L1002.26,1345.54L1002.12,1345.05L1001.98,1344.56L1001.85,1344.07L1001.79,1343.85L1003.11,1343.5L1003.17,1343.71ZM1161.32,1343.54L1161.31,1343.57L1161.18,1344.07L1161.05,1344.56L1160.91,1345.05L1160.77,1345.54L1160.76,1345.55L1159.45,1345.17L1159.45,1345.15L1159.59,1344.67L1159.73,1344.19L1159.86,1343.71L1159.99,1343.22L1160,1343.19L1161.32,1343.54ZM1002.11,1339.31L1002.21,1339.8L1002.32,1340.29L1002.43,1340.78L1002.45,1340.85L1001.12,1341.16L1001.1,1341.09L1000.99,1340.59L1000.88,1340.09L1000.77,1339.59L1000.67,1339.12L1002.01,1338.84L1002.11,1339.31ZM1162.42,1338.8L1162.36,1339.09L1162.26,1339.59L1162.15,1340.09L1162.04,1340.59L1161.99,1340.84L1160.65,1340.53L1160.71,1340.29L1160.82,1339.8L1160.92,1339.31L1161.02,1338.81L1161.08,1338.53L1162.42,1338.8ZM1001.21,1334.31L1001.29,1334.82L1001.37,1335.32L1001.45,1335.82L1001.5,1336.15L1000.16,1336.38L1000.1,1336.05L1000.02,1335.54L999.937,1335.03L999.86,1334.51L999.833,1334.32L1001.19,1334.12L1001.21,1334.31ZM1163.24,1333.99L1163.24,1334L1163.17,1334.51L1163.09,1335.03L1163.01,1335.54L1162.93,1336.05L1162.92,1336.06L1161.58,1335.84L1161.58,1335.82L1161.66,1335.32L1161.74,1334.82L1161.81,1334.31L1161.89,1333.81L1161.89,1333.81L1163.24,1333.99ZM1000.68,1329.73L1000.72,1330.25L1000.77,1330.76L1000.83,1331.27L1000.84,1331.41L999.482,1331.56L999.466,1331.42L999.412,1330.9L999.361,1330.38L999.312,1329.86L999.281,1329.48L1000.64,1329.37L1000.68,1329.73ZM1163.77,1329.16L1163.76,1329.33L1163.71,1329.86L1163.67,1330.38L1163.62,1330.9L1163.58,1331.23L1162.22,1331.09L1162.26,1330.76L1162.31,1330.25L1162.35,1329.73L1162.4,1329.22L1162.41,1329.05L1163.77,1329.16ZM1000.39,1325.08L1000.41,1325.6L1000.44,1326.12L1000.46,1326.64L999.093,1326.7L999.068,1326.18L999.046,1325.65L999.028,1325.12L999.013,1324.63L1000.38,1324.59L1000.39,1325.08ZM1164.02,1324.3L1164.02,1324.59L1164,1325.12L1163.98,1325.65L1163.96,1326.18L1163.95,1326.38L1162.58,1326.32L1162.59,1326.12L1162.62,1325.6L1162.63,1325.08L1162.65,1324.56L1162.65,1324.27L1164.02,1324.3ZM1000.4,1319.8L1000.39,1319.85L1000.38,1320.37L1000.37,1320.89L1000.36,1321.42L1000.36,1321.85L998.988,1321.84L998.992,1321.4L999.001,1320.87L999.012,1320.34L999.028,1319.81L999.029,1319.75L1000.4,1319.8ZM1164,1319.81L1164.02,1320.34L1164.03,1320.87L1164.04,1321.4L1164.04,1321.52L1162.67,1321.53L1162.67,1321.42L1162.66,1320.89L1162.65,1320.37L1162.63,1319.85L1162.62,1319.48L1163.99,1319.43L1164,1319.81ZM1000.69,1315.02L1000.68,1315.2L1000.63,1315.71L1000.59,1316.22L1000.55,1316.74L1000.53,1317.07L999.166,1316.98L999.188,1316.64L999.226,1316.12L999.268,1315.6L999.312,1315.08L999.329,1314.89L1000.69,1315.02ZM1163.71,1315.08L1163.76,1315.6L1163.8,1316.12L1163.84,1316.64L1163.84,1316.65L1162.48,1316.75L1162.48,1316.74L1162.44,1316.22L1162.4,1315.71L1162.35,1315.2L1162.31,1314.7L1163.67,1314.58L1163.71,1315.08ZM1001.27,1310.27L1001.21,1310.62L1001.14,1311.12L1001.07,1311.63L1001.01,1312.13L1000.99,1312.3L999.628,1312.13L999.649,1311.96L999.716,1311.45L999.787,1310.93L999.86,1310.42L999.913,1310.06L1001.27,1310.27ZM1163.09,1309.9L1163.17,1310.42L1163.24,1310.93L1163.31,1311.45L1163.36,1311.8L1162,1311.98L1161.95,1311.63L1161.89,1311.12L1161.81,1310.62L1161.74,1310.11L1161.71,1309.95L1163.07,1309.74L1163.09,1309.9ZM1002.12,1305.56L1002.11,1305.62L1002,1306.12L1001.9,1306.61L1001.81,1307.11L1001.72,1307.57L1000.38,1307.32L1000.46,1306.85L1000.56,1306.35L1000.66,1305.84L1000.77,1305.34L1000.78,1305.27L1002.12,1305.56ZM1162.26,1305.34L1162.36,1305.84L1162.47,1306.35L1162.57,1306.85L1162.59,1307L1161.25,1307.25L1161.22,1307.11L1161.12,1306.61L1161.02,1306.12L1160.92,1305.62L1160.84,1305.24L1162.18,1304.95L1162.26,1305.34ZM1003.25,1300.9L1003.17,1301.22L1003.04,1301.71L1002.91,1302.19L1002.79,1302.68L1002.74,1302.89L1001.41,1302.56L1001.46,1302.35L1001.59,1301.85L1001.71,1301.36L1001.85,1300.86L1001.94,1300.54L1003.25,1300.9ZM1161.05,1300.37L1161.18,1300.86L1161.31,1301.36L1161.44,1301.85L1161.54,1302.24L1160.21,1302.58L1160.12,1302.19L1159.99,1301.71L1159.86,1301.22L1159.73,1300.74L1159.69,1300.59L1161.01,1300.22L1161.05,1300.37ZM1004.66,1296.33L1004.62,1296.45L1004.46,1296.92L1004.31,1297.39L1004.15,1297.87L1004.02,1298.28L1002.72,1297.87L1002.85,1297.45L1003.01,1296.97L1003.16,1296.49L1003.33,1296.01L1003.37,1295.88L1004.66,1296.33ZM1159.7,1296.01L1159.86,1296.49L1160.02,1296.97L1160.18,1297.45L1160.21,1297.56L1158.91,1297.97L1158.87,1297.87L1158.72,1297.39L1158.57,1296.92L1158.41,1296.45L1158.26,1296.02L1159.56,1295.58L1159.7,1296.01ZM1006.34,1291.84L1006.17,1292.26L1005.99,1292.72L1005.81,1293.18L1005.63,1293.64L1005.59,1293.75L1004.31,1293.27L1004.35,1293.15L1004.53,1292.68L1004.71,1292.21L1004.9,1291.75L1005.07,1291.33L1006.34,1291.84ZM1157.94,1291.28L1158.13,1291.75L1158.31,1292.22L1158.5,1292.68L1158.6,1292.96L1157.33,1293.45L1157.22,1293.18L1157.04,1292.72L1156.86,1292.26L1156.67,1291.8L1156.57,1291.55L1157.83,1291.02L1157.94,1291.28ZM1008.28,1287.47L1008.15,1287.74L1007.94,1288.18L1007.73,1288.63L1007.53,1289.08L1007.42,1289.33L1006.17,1288.77L1006.28,1288.51L1006.49,1288.06L1006.7,1287.6L1006.91,1287.15L1007.04,1286.88L1008.28,1287.47ZM1155.9,1286.7L1156.11,1287.15L1156.33,1287.6L1156.54,1288.06L1156.73,1288.47L1155.48,1289.04L1155.3,1288.63L1155.09,1288.18L1154.88,1287.74L1154.67,1287.29L1154.61,1287.18L1155.84,1286.58L1155.9,1286.7ZM1010.48,1283.21L1010.39,1283.36L1010.15,1283.79L1009.92,1284.22L1009.69,1284.66L1009.5,1285.02L1008.29,1284.38L1008.48,1284.02L1008.72,1283.58L1008.95,1283.14L1009.19,1282.7L1009.28,1282.55L1010.48,1283.21ZM1153.59,1282.27L1153.84,1282.7L1154.08,1283.14L1154.31,1283.58L1154.55,1284.02L1154.59,1284.1L1153.38,1284.73L1153.34,1284.66L1153.11,1284.22L1152.87,1283.79L1152.64,1283.36L1152.4,1282.93L1152.4,1282.93L1153.59,1282.26L1153.59,1282.27ZM1012.92,1279.09L1012.88,1279.15L1012.62,1279.56L1012.37,1279.98L1012.11,1280.39L1011.86,1280.81L1011.84,1280.84L1010.67,1280.14L1010.68,1280.11L1010.94,1279.68L1011.2,1279.26L1011.46,1278.84L1011.73,1278.41L1011.76,1278.36L1012.92,1279.09ZM1151.3,1278.41L1151.56,1278.84L1151.83,1279.26L1152.09,1279.68L1152.19,1279.86L1151.02,1280.57L1150.92,1280.39L1150.66,1279.98L1150.4,1279.56L1150.14,1279.15L1149.94,1278.82L1151.09,1278.09L1151.3,1278.41ZM1015.6,1275.13L1015.34,1275.5L1015.05,1275.89L1014.77,1276.29L1014.5,1276.7L1014.42,1276.81L1013.29,1276.04L1013.37,1275.92L1013.65,1275.52L1013.93,1275.11L1014.22,1274.7L1014.49,1274.33L1015.6,1275.13ZM1148.52,1274.3L1148.81,1274.7L1149.09,1275.11L1149.38,1275.52L1149.55,1275.77L1148.42,1276.54L1148.25,1276.29L1147.97,1275.89L1147.69,1275.5L1147.41,1275.1L1147.24,1274.87L1148.35,1274.06L1148.52,1274.3ZM1018.51,1271.33L1018.28,1271.61L1017.98,1271.99L1017.67,1272.37L1017.37,1272.75L1017.24,1272.93L1016.15,1272.1L1016.29,1271.91L1016.6,1271.53L1016.9,1271.14L1017.22,1270.75L1017.45,1270.46L1018.51,1271.33ZM1145.5,1270.36L1145.81,1270.75L1146.12,1271.14L1146.43,1271.53L1146.67,1271.84L1145.6,1272.68L1145.36,1272.37L1145.05,1271.99L1144.75,1271.61L1144.44,1271.23L1144.32,1271.08L1145.37,1270.21L1145.5,1270.36ZM1021.64,1267.7L1021.45,1267.91L1021.12,1268.27L1020.8,1268.63L1020.48,1269L1020.27,1269.23L1019.24,1268.33L1019.45,1268.09L1019.77,1267.72L1020.1,1267.35L1020.44,1266.99L1020.63,1266.78L1021.64,1267.7ZM1142.26,1266.62L1142.59,1266.99L1142.92,1267.35L1143.25,1267.72L1143.57,1268.08L1142.55,1268.99L1142.23,1268.63L1141.91,1268.27L1141.58,1267.91L1141.25,1267.55L1141.17,1267.46L1142.18,1266.53L1142.26,1266.62ZM1024.97,1264.26L1024.83,1264.4L1024.48,1264.74L1024.14,1265.09L1023.79,1265.43L1023.52,1265.71L1022.54,1264.75L1022.82,1264.47L1023.17,1264.12L1023.52,1263.77L1023.87,1263.42L1024.02,1263.28L1024.97,1264.26ZM1138.8,1263.08L1139.15,1263.42L1139.51,1263.77L1139.86,1264.12L1140.21,1264.47L1140.26,1264.52L1139.29,1265.48L1139.24,1265.43L1138.89,1265.09L1138.55,1264.74L1138.2,1264.4L1137.85,1264.06L1137.83,1264.04L1138.77,1263.05L1138.8,1263.08ZM1028.5,1261.03L1028.41,1261.11L1028.05,1261.43L1027.68,1261.75L1027.32,1262.07L1026.96,1262.39L1026.05,1261.38L1026.4,1261.05L1026.77,1260.73L1027.14,1260.4L1027.52,1260.07L1027.61,1259.99L1028.5,1261.03ZM1135.51,1260.07L1135.88,1260.4L1136.26,1260.73L1136.62,1261.05L1136.74,1261.16L1135.82,1262.17L1135.71,1262.07L1135.35,1261.75L1134.98,1261.43L1134.62,1261.11L1134.28,1260.82L1135.18,1259.78L1135.51,1260.07ZM1032.21,1258.01L1032.19,1258.03L1031.8,1258.32L1031.42,1258.62L1031.04,1258.93L1030.66,1259.23L1030.6,1259.28L1029.74,1258.21L1029.8,1258.17L1030.18,1257.86L1030.57,1257.55L1030.96,1257.24L1031.36,1256.94L1031.38,1256.92L1032.21,1258.01ZM1131.67,1256.94L1132.06,1257.24L1132.45,1257.55L1132.84,1257.86L1133.03,1258.01L1132.18,1259.07L1131.99,1258.93L1131.61,1258.62L1131.22,1258.32L1130.84,1258.03L1130.56,1257.81L1131.39,1256.72L1131.67,1256.94ZM1036.1,1255.21L1035.75,1255.45L1035.34,1255.73L1034.94,1256.01L1034.54,1256.29L1034.41,1256.38L1033.62,1255.27L1033.75,1255.17L1034.16,1254.88L1034.56,1254.6L1034.97,1254.32L1035.33,1254.08L1036.1,1255.21ZM1127.64,1254.04L1128.06,1254.32L1128.46,1254.6L1128.87,1254.88L1129.14,1255.08L1128.35,1256.19L1128.09,1256.01L1127.68,1255.73L1127.28,1255.45L1126.88,1255.17L1126.66,1255.03L1127.42,1253.89L1127.64,1254.04ZM1040.14,1252.64L1039.86,1252.81L1039.44,1253.06L1039.03,1253.32L1038.61,1253.58L1038.39,1253.71L1037.66,1252.55L1037.88,1252.41L1038.31,1252.15L1038.73,1251.89L1039.16,1251.63L1039.44,1251.47L1040.14,1252.64ZM1123.44,1251.38L1123.87,1251.63L1124.3,1251.89L1124.72,1252.15L1125.09,1252.38L1124.37,1253.54L1124,1253.32L1123.59,1253.06L1123.17,1252.81L1122.75,1252.56L1122.61,1252.48L1123.3,1251.3L1123.44,1251.38ZM1044.33,1250.32L1044.14,1250.41L1043.71,1250.64L1043.27,1250.87L1042.84,1251.11L1042.52,1251.28L1041.86,1250.08L1042.19,1249.9L1042.63,1249.67L1043.07,1249.43L1043.51,1249.2L1043.7,1249.1L1044.33,1250.32ZM1119.07,1248.97L1119.52,1249.2L1119.96,1249.43L1120.4,1249.67L1120.84,1249.9L1120.89,1249.93L1120.23,1251.13L1120.19,1251.11L1119.75,1250.87L1119.32,1250.64L1118.89,1250.41L1118.45,1250.19L1118.41,1250.17L1119.04,1248.95L1119.07,1248.97ZM1048.64,1248.25L1048.58,1248.28L1048.13,1248.48L1047.68,1248.68L1047.23,1248.89L1046.79,1249.1L1046.78,1249.1L1046.19,1247.87L1046.2,1247.86L1046.65,1247.65L1047.11,1247.44L1047.56,1247.23L1048.02,1247.03L1048.09,1247L1048.64,1248.25ZM1115.01,1247.03L1115.46,1247.23L1115.92,1247.44L1116.38,1247.65L1116.54,1247.73L1115.96,1248.97L1115.8,1248.89L1115.35,1248.68L1114.9,1248.48L1114.45,1248.28L1114.09,1248.12L1114.64,1246.87L1115.01,1247.03ZM1053.08,1246.43L1052.69,1246.58L1052.23,1246.76L1051.77,1246.94L1051.31,1247.12L1051.16,1247.18L1050.65,1245.91L1050.8,1245.85L1051.27,1245.66L1051.73,1245.48L1052.2,1245.3L1052.59,1245.15L1053.08,1246.43ZM1110.35,1245.12L1110.82,1245.3L1111.29,1245.48L1111.76,1245.66L1112.07,1245.79L1111.57,1247.06L1111.26,1246.94L1110.8,1246.76L1110.34,1246.58L1109.87,1246.4L1109.65,1246.32L1110.12,1245.04L1110.35,1245.12ZM1057.61,1244.89L1057.39,1244.96L1056.91,1245.11L1056.44,1245.26L1055.97,1245.41L1055.65,1245.52L1055.22,1244.22L1055.54,1244.12L1056.02,1243.96L1056.5,1243.8L1056.98,1243.65L1057.2,1243.58L1057.61,1244.89ZM1105.56,1243.5L1106.04,1243.65L1106.53,1243.8L1107.01,1243.96L1107.49,1244.12L1107.5,1244.12L1107.07,1245.42L1107.06,1245.41L1106.59,1245.26L1106.11,1245.11L1105.64,1244.96L1105.16,1244.81L1105.11,1244.8L1105.51,1243.49L1105.56,1243.5ZM1062.22,1243.62L1062.21,1243.62L1061.73,1243.74L1061.24,1243.86L1060.76,1243.99L1060.27,1244.12L1060.24,1244.13L1059.87,1242.81L1059.91,1242.8L1060.41,1242.66L1060.9,1242.54L1061.39,1242.41L1061.89,1242.29L1061.9,1242.29L1062.22,1243.62ZM1101.14,1242.29L1101.63,1242.41L1102.13,1242.54L1102.62,1242.66L1102.84,1242.72L1102.48,1244.04L1102.27,1243.99L1101.79,1243.86L1101.3,1243.74L1100.81,1243.62L1100.49,1243.54L1100.81,1242.21L1101.14,1242.29ZM1066.91,1242.62L1066.66,1242.66L1066.16,1242.76L1065.66,1242.86L1065.17,1242.95L1064.89,1243.01L1064.61,1241.67L1064.89,1241.61L1065.39,1241.51L1065.9,1241.41L1066.41,1241.32L1066.66,1241.27L1066.91,1242.62ZM1096.11,1241.23L1096.62,1241.32L1097.13,1241.41L1097.63,1241.51L1098.09,1241.61L1097.82,1242.95L1097.37,1242.86L1096.87,1242.76L1096.37,1242.66L1095.87,1242.57L1095.81,1242.56L1096.04,1241.21L1096.11,1241.23ZM1071.64,1241.9L1071.18,1241.96L1070.68,1242.02L1070.17,1242.09L1069.66,1242.16L1069.61,1242.17L1069.4,1240.82L1069.47,1240.81L1069.98,1240.74L1070.5,1240.67L1071.01,1240.6L1071.47,1240.54L1071.64,1241.9ZM1091.5,1240.54L1092.02,1240.6L1092.53,1240.67L1093.05,1240.74L1093.3,1240.77L1093.1,1242.13L1092.86,1242.09L1092.35,1242.02L1091.85,1241.96L1091.34,1241.89L1091.07,1241.86L1091.23,1240.5L1091.5,1240.54ZM1076.41,1241.46L1076.31,1241.47L1075.79,1241.5L1075.27,1241.54L1074.76,1241.58L1074.36,1241.62L1074.24,1240.25L1074.65,1240.22L1075.17,1240.18L1075.69,1240.14L1076.22,1240.1L1076.33,1240.1L1076.41,1241.46ZM1086.81,1240.1L1087.33,1240.14L1087.86,1240.18L1088.38,1240.22L1088.46,1240.23L1088.35,1241.59L1088.27,1241.58L1087.76,1241.54L1087.24,1241.5L1086.72,1241.47L1086.3,1241.44L1086.38,1240.08L1086.81,1240.1ZM1081.19,1241.31L1080.99,1241.31L1080.47,1241.31L1079.94,1241.32L1079.42,1241.33L1079.14,1241.34L1079.1,1239.97L1079.39,1239.96L1079.92,1239.95L1080.45,1239.94L1080.98,1239.94L1081.19,1239.94L1081.19,1241.31ZM1082.05,1239.94L1082.58,1239.94L1083.11,1239.95L1083.6,1239.96L1083.57,1241.33L1083.09,1241.32L1082.56,1241.31L1082.04,1241.31L1081.51,1241.3L1081.51,1241.3L1081.52,1239.94L1082.05,1239.94Z"/>
            </g>
            <g transform="matrix(0.580904,0,0,0.580904,332.181,60.4406)">
                <path d="M1085.53,1405.32L1085.25,1405.34L1084.72,1405.36L1084.18,1405.38L1083.65,1405.39L1083.12,1405.4L1082.79,1405.41L1082.76,1403.62L1083.09,1403.61L1083.61,1403.6L1084.13,1403.58L1084.65,1403.57L1085.17,1403.54L1085.45,1403.53L1085.53,1405.32ZM1076.82,1403.49L1077.34,1403.52L1077.86,1403.54L1078.38,1403.57L1078.9,1403.58L1079.17,1403.59L1079.12,1405.38L1078.84,1405.38L1078.31,1405.36L1077.78,1405.34L1077.25,1405.31L1076.72,1405.28L1076.38,1405.26L1076.49,1403.47L1076.82,1403.49ZM1091.92,1404.77L1091.55,1404.82L1091.03,1404.88L1090.51,1404.93L1089.99,1404.99L1089.47,1405.04L1089.19,1405.07L1089.03,1403.28L1089.3,1403.26L1089.81,1403.21L1090.32,1403.15L1090.83,1403.1L1091.34,1403.04L1091.7,1402.99L1091.92,1404.77ZM1070.68,1402.91L1071.18,1402.97L1071.69,1403.04L1072.2,1403.1L1072.71,1403.15L1072.91,1403.17L1072.73,1404.96L1072.52,1404.93L1072,1404.88L1071.48,1404.82L1070.96,1404.75L1070.44,1404.68L1070,1404.62L1070.24,1402.85L1070.68,1402.91ZM1098.26,1403.72L1098.22,1403.73L1097.71,1403.83L1097.21,1403.93L1096.7,1404.03L1096.19,1404.12L1095.68,1404.21L1095.55,1404.23L1095.25,1402.46L1095.37,1402.44L1095.87,1402.36L1096.37,1402.27L1096.87,1402.17L1097.37,1402.08L1097.86,1401.98L1097.89,1401.97L1098.26,1403.72ZM1064.18,1401.77L1064.67,1401.87L1065.17,1401.98L1065.66,1402.08L1066.16,1402.17L1066.66,1402.27L1066.7,1402.27L1066.38,1404.04L1066.33,1404.03L1065.82,1403.93L1065.31,1403.83L1064.81,1403.73L1064.3,1403.63L1063.8,1403.52L1063.68,1403.49L1064.07,1401.74L1064.18,1401.77ZM1104.48,1402.19L1104.21,1402.27L1103.72,1402.41L1103.23,1402.54L1102.73,1402.67L1102.23,1402.81L1101.83,1402.91L1101.39,1401.17L1101.79,1401.07L1102.27,1400.94L1102.76,1400.81L1103.24,1400.68L1103.72,1400.54L1103.98,1400.47L1104.48,1402.19ZM1058.35,1400.26L1058.83,1400.41L1059.31,1400.54L1059.79,1400.68L1060.27,1400.81L1060.58,1400.89L1060.12,1402.63L1059.8,1402.54L1059.31,1402.41L1058.82,1402.27L1058.32,1402.13L1057.83,1401.98L1057.48,1401.88L1058,1400.16L1058.35,1400.26ZM1110.57,1400.18L1110.5,1400.2L1110.03,1400.38L1109.55,1400.55L1109.07,1400.72L1108.59,1400.89L1108.11,1401.06L1107.98,1401.1L1107.41,1399.4L1107.53,1399.36L1108,1399.2L1108.47,1399.03L1108.94,1398.87L1109.41,1398.7L1109.87,1398.53L1109.94,1398.5L1110.57,1400.18ZM1052.23,1398.17L1052.69,1398.35L1053.15,1398.53L1053.62,1398.7L1054.09,1398.87L1054.56,1399.03L1054.59,1399.04L1054,1400.74L1053.96,1400.72L1053.48,1400.55L1053,1400.38L1052.53,1400.2L1052.05,1400.03L1051.58,1399.84L1051.41,1399.78L1052.07,1398.11L1052.23,1398.17ZM1116.48,1397.7L1116.1,1397.88L1115.64,1398.09L1115.18,1398.29L1114.72,1398.5L1114.26,1398.7L1113.97,1398.82L1113.27,1397.17L1113.55,1397.05L1114,1396.85L1114.45,1396.65L1114.9,1396.45L1115.35,1396.25L1115.73,1396.07L1116.48,1397.7ZM1046.34,1395.62L1046.79,1395.83L1047.23,1396.04L1047.68,1396.25L1048.13,1396.45L1048.58,1396.65L1048.76,1396.73L1048.03,1398.37L1047.85,1398.29L1047.39,1398.09L1046.93,1397.88L1046.47,1397.66L1046.02,1397.45L1045.56,1397.23L1045.53,1397.22L1046.31,1395.6L1046.34,1395.62ZM1122.19,1394.77L1121.92,1394.91L1121.48,1395.16L1121.04,1395.4L1120.6,1395.64L1120.16,1395.87L1119.78,1396.07L1118.94,1394.49L1119.32,1394.29L1119.75,1394.06L1120.19,1393.82L1120.62,1393.59L1121.05,1393.35L1121.31,1393.2L1122.19,1394.77ZM1041.13,1392.87L1041.56,1393.11L1041.98,1393.35L1042.41,1393.59L1042.84,1393.82L1043.12,1393.97L1042.27,1395.55L1041.99,1395.4L1041.55,1395.16L1041.11,1394.91L1040.67,1394.67L1040.24,1394.42L1039.87,1394.21L1040.77,1392.66L1041.13,1392.87ZM1127.65,1391.4L1127.47,1391.52L1127.05,1391.8L1126.63,1392.07L1126.21,1392.34L1125.79,1392.61L1125.37,1392.88L1125.34,1392.9L1124.39,1391.37L1124.42,1391.36L1124.83,1391.09L1125.25,1390.83L1125.66,1390.57L1126.07,1390.3L1126.47,1390.03L1126.65,1389.91L1127.65,1391.4ZM1035.75,1389.48L1036.15,1389.76L1036.56,1390.03L1036.96,1390.3L1037.37,1390.57L1037.71,1390.79L1036.74,1392.29L1036.39,1392.07L1035.98,1391.8L1035.56,1391.52L1035.15,1391.24L1034.73,1390.96L1034.46,1390.77L1035.48,1389.3L1035.75,1389.48ZM1132.83,1387.62L1132.72,1387.71L1132.32,1388.02L1131.93,1388.33L1131.53,1388.63L1131.13,1388.93L1130.74,1389.23L1130.64,1389.29L1129.58,1387.85L1129.67,1387.78L1130.06,1387.49L1130.45,1387.2L1130.84,1386.9L1131.22,1386.61L1131.61,1386.31L1131.72,1386.22L1132.83,1387.62ZM1030.66,1385.7L1031.04,1386L1031.42,1386.31L1031.8,1386.61L1032.19,1386.9L1032.57,1387.19L1031.48,1388.62L1031.1,1388.33L1030.7,1388.02L1030.31,1387.71L1029.92,1387.41L1029.53,1387.1L1029.32,1386.93L1030.45,1385.53L1030.66,1385.7ZM1137.71,1383.46L1137.65,1383.52L1137.28,1383.86L1136.91,1384.19L1136.54,1384.52L1136.16,1384.85L1135.79,1385.18L1135.66,1385.29L1134.49,1383.93L1134.62,1383.82L1134.98,1383.5L1135.35,1383.18L1135.71,1382.86L1136.07,1382.53L1136.43,1382.2L1136.49,1382.14L1137.71,1383.46ZM1025.88,1381.54L1026.24,1381.87L1026.6,1382.2L1026.95,1382.53L1027.32,1382.86L1027.68,1383.18L1027.72,1383.21L1026.53,1384.56L1026.49,1384.52L1026.12,1384.19L1025.75,1383.86L1025.38,1383.52L1025.02,1383.18L1024.65,1382.84L1024.5,1382.7L1025.74,1381.4L1025.88,1381.54ZM1142.26,1378.93L1142.23,1378.96L1141.89,1379.33L1141.55,1379.69L1141.21,1380.05L1140.86,1380.4L1140.51,1380.76L1140.35,1380.92L1139.08,1379.66L1139.24,1379.5L1139.58,1379.15L1139.91,1378.8L1140.25,1378.45L1140.59,1378.1L1140.92,1377.74L1140.94,1377.72L1142.26,1378.93ZM1021.45,1377.02L1021.78,1377.38L1022.11,1377.74L1022.44,1378.1L1022.77,1378.45L1023.11,1378.8L1023.19,1378.88L1021.9,1380.12L1021.82,1380.05L1021.48,1379.69L1021.13,1379.33L1020.8,1378.96L1020.46,1378.6L1020.12,1378.23L1020.02,1378.11L1021.35,1376.91L1021.45,1377.02ZM1146.43,1374.08L1146.14,1374.45L1145.83,1374.83L1145.51,1375.22L1145.2,1375.6L1144.88,1375.98L1144.69,1376.2L1143.33,1375.04L1143.51,1374.83L1143.82,1374.45L1144.13,1374.08L1144.44,1373.7L1144.75,1373.32L1145.04,1372.96L1146.43,1374.08ZM1017.37,1372.17L1017.67,1372.56L1017.98,1372.94L1018.28,1373.32L1018.59,1373.7L1018.9,1374.08L1019,1374.2L1017.62,1375.35L1017.51,1375.22L1017.2,1374.83L1016.88,1374.45L1016.57,1374.06L1016.26,1373.67L1015.96,1373.28L1015.9,1373.2L1017.32,1372.1L1017.37,1372.17ZM1150.24,1368.92L1150.01,1369.25L1149.73,1369.66L1149.44,1370.07L1149.15,1370.47L1148.86,1370.88L1148.66,1371.16L1147.21,1370.11L1147.41,1369.83L1147.69,1369.43L1147.97,1369.04L1148.25,1368.63L1148.53,1368.23L1148.75,1367.91L1150.24,1368.92ZM1013.68,1367.02L1013.95,1367.42L1014.22,1367.83L1014.5,1368.23L1014.77,1368.63L1015.05,1369.04L1015.18,1369.22L1013.72,1370.26L1013.59,1370.07L1013.3,1369.66L1013.02,1369.25L1012.74,1368.83L1012.46,1368.42L1012.18,1368L1012.17,1367.98L1013.67,1367L1013.68,1367.02ZM1153.62,1363.47L1153.47,1363.74L1153.22,1364.18L1152.96,1364.61L1152.71,1365.04L1152.45,1365.47L1152.23,1365.83L1150.7,1364.89L1150.92,1364.54L1151.17,1364.12L1151.42,1363.7L1151.67,1363.27L1151.91,1362.85L1152.07,1362.58L1153.62,1363.47ZM1010.63,1362L1010.87,1362.42L1011.11,1362.85L1011.36,1363.27L1011.61,1363.7L1011.76,1363.96L1010.22,1364.88L1010.06,1364.61L1009.81,1364.18L1009.56,1363.74L1009.31,1363.31L1009.06,1362.87L1008.86,1362.5L1010.42,1361.63L1010.63,1362ZM1156.59,1357.78L1156.5,1357.96L1156.28,1358.42L1156.06,1358.87L1155.84,1359.32L1155.61,1359.77L1155.38,1360.22L1155.37,1360.25L1153.78,1359.43L1153.79,1359.4L1154.01,1358.96L1154.23,1358.52L1154.45,1358.08L1154.67,1357.64L1154.88,1357.19L1154.96,1357.01L1156.59,1357.78ZM1007.73,1356.3L1007.94,1356.75L1008.15,1357.19L1008.36,1357.64L1008.58,1358.08L1008.76,1358.45L1007.15,1359.24L1006.97,1358.87L1006.75,1358.42L1006.53,1357.96L1006.32,1357.51L1006.1,1357.05L1005.97,1356.77L1007.61,1356.02L1007.73,1356.3ZM1159.1,1351.87L1159.08,1351.92L1158.89,1352.4L1158.71,1352.87L1158.52,1353.34L1158.33,1353.81L1158.14,1354.28L1158.07,1354.43L1156.42,1353.74L1156.48,1353.59L1156.67,1353.13L1156.86,1352.67L1157.04,1352.21L1157.22,1351.75L1157.4,1351.29L1157.42,1351.24L1159.1,1351.87ZM1005.28,1350.36L1005.45,1350.82L1005.63,1351.29L1005.81,1351.75L1005.99,1352.21L1006.17,1352.67L1006.19,1352.73L1004.53,1353.4L1004.51,1353.34L1004.32,1352.87L1004.13,1352.4L1003.95,1351.92L1003.77,1351.45L1003.6,1350.98L1003.54,1350.83L1005.23,1350.21L1005.28,1350.36ZM1161.13,1345.8L1161.03,1346.14L1160.88,1346.63L1160.74,1347.12L1160.58,1347.61L1160.43,1348.09L1160.32,1348.42L1158.62,1347.86L1158.72,1347.54L1158.87,1347.06L1159.02,1346.59L1159.17,1346.11L1159.31,1345.63L1159.41,1345.29L1161.13,1345.8ZM1003.44,1344.67L1003.57,1345.15L1003.71,1345.63L1003.86,1346.11L1004,1346.59L1004.08,1346.82L1002.37,1347.36L1002.29,1347.12L1002.14,1346.63L1002,1346.14L1001.85,1345.65L1001.71,1345.16L1001.59,1344.73L1003.31,1344.24L1003.44,1344.67ZM1162.7,1339.57L1162.68,1339.68L1162.57,1340.18L1162.46,1340.69L1162.34,1341.19L1162.22,1341.69L1162.1,1342.19L1162.09,1342.26L1160.35,1341.83L1160.36,1341.76L1160.48,1341.27L1160.59,1340.78L1160.71,1340.29L1160.82,1339.8L1160.92,1339.31L1160.94,1339.2L1162.7,1339.57ZM1001.9,1338.32L1002,1338.81L1002.11,1339.31L1002.21,1339.8L1002.32,1340.29L1002.43,1340.77L1000.68,1341.16L1000.57,1340.69L1000.46,1340.18L1000.35,1339.68L1000.25,1339.17L1000.14,1338.67L1000.11,1338.48L1001.87,1338.13L1001.9,1338.32ZM1163.77,1333.25L1163.73,1333.54L1163.66,1334.06L1163.59,1334.57L1163.51,1335.09L1163.43,1335.6L1163.37,1335.97L1161.6,1335.68L1161.66,1335.32L1161.74,1334.82L1161.81,1334.31L1161.89,1333.81L1161.95,1333.3L1161.99,1333.02L1163.77,1333.25ZM1000.94,1332.29L1001.01,1332.8L1001.07,1333.3L1001.14,1333.81L1001.21,1334.31L1001.26,1334.6L999.484,1334.87L999.44,1334.57L999.366,1334.06L999.295,1333.54L999.227,1333.02L999.163,1332.5L999.121,1332.14L1000.9,1331.93L1000.94,1332.29ZM1164.35,1326.87L1164.33,1327.26L1164.3,1327.79L1164.26,1328.32L1164.23,1328.84L1164.18,1329.37L1164.16,1329.61L1162.38,1329.45L1162.4,1329.22L1162.44,1328.7L1162.48,1328.19L1162.51,1327.67L1162.54,1327.16L1162.56,1326.77L1164.35,1326.87ZM1000.44,1326.12L1000.46,1326.64L1000.49,1327.16L1000.52,1327.67L1000.55,1328.19L1000.57,1328.36L998.777,1328.5L998.764,1328.32L998.729,1327.79L998.697,1327.26L998.668,1326.73L998.643,1326.2L998.625,1325.75L1000.42,1325.68L1000.44,1326.12ZM1164.45,1320.86L1164.46,1321.39L1164.47,1321.93L1164.47,1322.46L1164.47,1323L1164.46,1323.2L1162.67,1323.19L1162.67,1322.99L1162.67,1322.46L1162.67,1321.94L1162.67,1321.42L1162.66,1320.89L1162.65,1320.5L1164.44,1320.46L1164.45,1320.86ZM1000.41,1319.4L1000.39,1319.85L1000.38,1320.37L1000.37,1320.89L1000.36,1321.42L1000.36,1321.94L1000.36,1322.09L998.562,1322.09L998.562,1321.93L998.567,1321.39L998.576,1320.86L998.587,1320.33L998.603,1319.79L998.619,1319.34L1000.41,1319.4ZM1164.09,1314.51L1164.14,1315.04L1164.18,1315.56L1164.23,1316.09L1164.26,1316.62L1164.28,1316.8L1162.49,1316.91L1162.48,1316.74L1162.44,1316.22L1162.4,1315.71L1162.35,1315.2L1162.31,1314.68L1162.26,1314.23L1164.05,1314.06L1164.09,1314.51ZM1000.88,1313.15L1000.88,1313.15L1000.83,1313.66L1000.77,1314.17L1000.72,1314.68L1000.68,1315.2L1000.63,1315.71L1000.62,1315.82L998.835,1315.68L998.844,1315.56L998.889,1315.04L998.937,1314.51L998.989,1313.99L999.044,1313.47L999.102,1312.95L999.103,1312.94L1000.88,1313.15ZM1163.17,1307.79L1163.26,1308.3L1163.35,1308.81L1163.43,1309.33L1163.51,1309.84L1163.59,1310.36L1163.6,1310.42L1161.82,1310.67L1161.81,1310.62L1161.74,1310.11L1161.66,1309.61L1161.58,1309.11L1161.49,1308.61L1161.41,1308.11L1161.39,1308.02L1163.15,1307.7L1163.17,1307.79ZM1001.84,1306.95L1001.81,1307.11L1001.71,1307.61L1001.62,1308.11L1001.53,1308.61L1001.45,1309.11L1001.37,1309.59L999.6,1309.31L999.681,1308.81L999.767,1308.3L999.857,1307.79L999.95,1307.28L1000.05,1306.77L1000.08,1306.6L1001.84,1306.95ZM1161.85,1301.74L1161.98,1302.24L1162.1,1302.74L1162.22,1303.24L1162.34,1303.74L1162.42,1304.11L1160.68,1304.51L1160.59,1304.14L1160.48,1303.65L1160.36,1303.17L1160.24,1302.68L1160.12,1302.19L1160.04,1301.89L1161.77,1301.44L1161.85,1301.74ZM1003.27,1300.84L1003.17,1301.22L1003.04,1301.71L1002.91,1302.19L1002.79,1302.68L1002.67,1303.17L1002.6,1303.44L1000.86,1303.02L1000.92,1302.74L1001.05,1302.24L1001.17,1301.74L1001.3,1301.25L1001.44,1300.75L1001.54,1300.36L1003.27,1300.84ZM1159.94,1295.39L1160.11,1295.87L1160.27,1296.35L1160.43,1296.84L1160.58,1297.32L1160.74,1297.81L1160.77,1297.92L1159.06,1298.44L1159.02,1298.34L1158.87,1297.87L1158.72,1297.39L1158.57,1296.92L1158.41,1296.45L1158.25,1295.98L1158.22,1295.89L1159.91,1295.3L1159.94,1295.39ZM1005.18,1294.86L1005.11,1295.04L1004.95,1295.51L1004.78,1295.98L1004.62,1296.45L1004.46,1296.92L1004.31,1297.39L1004.3,1297.4L1002.6,1296.85L1002.6,1296.84L1002.76,1296.35L1002.92,1295.87L1003.09,1295.39L1003.25,1294.91L1003.43,1294.43L1003.49,1294.25L1005.18,1294.86ZM1157.75,1289.72L1157.94,1290.19L1158.14,1290.65L1158.33,1291.12L1158.52,1291.59L1158.63,1291.87L1156.96,1292.53L1156.86,1292.26L1156.67,1291.8L1156.48,1291.34L1156.29,1290.89L1156.1,1290.43L1155.93,1290.05L1157.58,1289.33L1157.75,1289.72ZM1007.54,1289.05L1007.53,1289.08L1007.33,1289.53L1007.13,1289.98L1006.93,1290.43L1006.74,1290.89L1006.55,1291.34L1006.47,1291.52L1004.82,1290.83L1004.89,1290.65L1005.09,1290.19L1005.28,1289.72L1005.48,1289.26L1005.69,1288.8L1005.89,1288.34L1005.91,1288.3L1007.54,1289.05ZM1154.92,1283.82L1155.15,1284.27L1155.38,1284.71L1155.61,1285.16L1155.84,1285.61L1156.03,1286L1154.42,1286.79L1154.23,1286.41L1154.01,1285.97L1153.79,1285.53L1153.56,1285.09L1153.34,1284.66L1153.2,1284.4L1154.78,1283.56L1154.92,1283.82ZM1010.35,1283.44L1010.15,1283.79L1009.92,1284.22L1009.69,1284.66L1009.46,1285.09L1009.24,1285.53L1009.09,1285.81L1007.5,1285L1007.64,1284.71L1007.87,1284.27L1008.11,1283.82L1008.34,1283.38L1008.58,1282.94L1008.78,1282.58L1010.35,1283.44ZM1151.66,1278.19L1151.92,1278.61L1152.19,1279.04L1152.45,1279.46L1152.71,1279.89L1152.96,1280.32L1152.99,1280.36L1151.44,1281.27L1151.42,1281.23L1151.17,1280.81L1150.92,1280.39L1150.66,1279.98L1150.4,1279.56L1150.14,1279.15L1150.04,1278.98L1151.55,1278.01L1151.66,1278.19ZM1013.59,1278.06L1013.41,1278.32L1013.15,1278.73L1012.88,1279.15L1012.62,1279.56L1012.37,1279.98L1012.15,1280.33L1010.62,1279.4L1010.84,1279.04L1011.1,1278.61L1011.37,1278.19L1011.64,1277.77L1011.91,1277.35L1012.08,1277.08L1013.59,1278.06ZM1147.98,1272.84L1148.28,1273.24L1148.57,1273.65L1148.86,1274.05L1149.15,1274.46L1149.44,1274.86L1149.52,1274.97L1148.05,1276L1147.97,1275.89L1147.69,1275.5L1147.41,1275.1L1147.12,1274.7L1146.83,1274.31L1146.54,1273.92L1146.47,1273.82L1147.9,1272.74L1147.98,1272.84ZM1017.22,1272.95L1017.08,1273.14L1016.78,1273.53L1016.49,1273.92L1016.2,1274.31L1015.91,1274.7L1015.62,1275.1L1015.62,1275.1L1014.16,1274.06L1014.17,1274.05L1014.46,1273.65L1014.75,1273.24L1015.05,1272.84L1015.35,1272.45L1015.65,1272.05L1015.8,1271.85L1017.22,1272.95ZM1143.9,1267.81L1144.23,1268.19L1144.55,1268.57L1144.88,1268.95L1145.2,1269.33L1145.51,1269.71L1145.64,1269.86L1144.25,1271L1144.13,1270.85L1143.82,1270.48L1143.51,1270.1L1143.19,1269.73L1142.87,1269.36L1142.55,1269L1142.51,1268.95L1143.85,1267.76L1143.9,1267.81ZM1021.25,1268.13L1021.12,1268.27L1020.8,1268.63L1020.48,1269L1020.15,1269.36L1019.84,1269.73L1019.52,1270.1L1019.48,1270.16L1018.1,1269L1018.15,1268.95L1018.47,1268.57L1018.8,1268.19L1019.13,1267.81L1019.46,1267.44L1019.79,1267.07L1019.92,1266.93L1021.25,1268.13ZM1139.45,1263.12L1139.81,1263.47L1140.16,1263.82L1140.51,1264.17L1140.86,1264.53L1141.21,1264.88L1141.38,1265.07L1140.09,1266.31L1139.91,1266.13L1139.58,1265.78L1139.24,1265.43L1138.89,1265.09L1138.55,1264.74L1138.2,1264.4L1138.19,1264.39L1139.44,1263.11L1139.45,1263.12ZM1025.62,1263.64L1025.53,1263.73L1025.18,1264.06L1024.83,1264.4L1024.48,1264.74L1024.14,1265.09L1023.79,1265.43L1023.71,1265.52L1022.43,1264.27L1022.52,1264.17L1022.87,1263.82L1023.22,1263.47L1023.58,1263.12L1023.93,1262.77L1024.29,1262.43L1024.39,1262.34L1025.62,1263.64ZM1135.03,1259.1L1135.41,1259.43L1135.79,1259.75L1136.16,1260.08L1136.54,1260.41L1136.77,1260.61L1135.57,1261.95L1135.35,1261.75L1134.98,1261.43L1134.62,1261.11L1134.25,1260.79L1133.88,1260.47L1133.54,1260.19L1134.69,1258.82L1135.03,1259.1ZM1030.33,1259.49L1030.28,1259.54L1029.9,1259.85L1029.53,1260.16L1029.15,1260.47L1028.78,1260.79L1028.41,1261.11L1028.28,1261.22L1027.1,1259.87L1027.24,1259.75L1027.62,1259.43L1028,1259.1L1028.38,1258.78L1028.76,1258.46L1029.14,1258.15L1029.2,1258.1L1030.33,1259.49ZM1129.93,1255.12L1130.33,1255.41L1130.73,1255.7L1131.13,1256L1131.53,1256.3L1131.82,1256.52L1130.74,1257.95L1130.45,1257.73L1130.06,1257.44L1129.67,1257.15L1129.28,1256.86L1128.88,1256.57L1128.57,1256.35L1129.62,1254.89L1129.93,1255.12ZM1035.35,1255.72L1035.34,1255.73L1034.94,1256.01L1034.54,1256.29L1034.15,1256.57L1033.75,1256.86L1033.36,1257.15L1033.16,1257.29L1032.1,1255.85L1032.29,1255.7L1032.69,1255.41L1033.1,1255.12L1033.51,1254.83L1033.91,1254.54L1034.32,1254.25L1034.33,1254.25L1035.35,1255.72ZM1124.52,1251.53L1124.94,1251.79L1125.37,1252.05L1125.79,1252.32L1126.21,1252.59L1126.58,1252.83L1125.61,1254.33L1125.25,1254.1L1124.83,1253.84L1124.42,1253.58L1124,1253.32L1123.59,1253.06L1123.33,1252.91L1124.26,1251.37L1124.52,1251.53ZM1040.64,1252.35L1040.28,1252.56L1039.86,1252.81L1039.44,1253.06L1039.03,1253.32L1038.61,1253.58L1038.34,1253.74L1037.39,1252.23L1037.66,1252.05L1038.08,1251.79L1038.51,1251.53L1038.94,1251.27L1039.37,1251.01L1039.73,1250.8L1040.64,1252.35ZM1118.82,1248.37L1119.27,1248.59L1119.71,1248.82L1120.16,1249.06L1120.6,1249.29L1121.04,1249.53L1121.08,1249.55L1120.22,1251.12L1120.19,1251.11L1119.75,1250.87L1119.32,1250.64L1118.89,1250.41L1118.45,1250.19L1118.01,1249.97L1117.83,1249.88L1118.64,1248.27L1118.82,1248.37ZM1046.17,1249.39L1045.9,1249.53L1045.46,1249.75L1045.02,1249.97L1044.58,1250.19L1044.14,1250.41L1043.78,1250.61L1042.94,1249.02L1043.32,1248.82L1043.76,1248.59L1044.21,1248.37L1044.66,1248.14L1045.11,1247.92L1045.39,1247.78L1046.17,1249.39ZM1112.86,1245.65L1113.33,1245.84L1113.79,1246.04L1114.26,1246.23L1114.72,1246.43L1115.18,1246.64L1115.33,1246.7L1114.59,1248.34L1114.45,1248.28L1114,1248.08L1113.55,1247.88L1113.09,1247.69L1112.64,1247.5L1112.18,1247.31L1112.12,1247.28L1112.79,1245.62L1112.86,1245.65ZM1051.92,1246.88L1051.77,1246.94L1051.31,1247.12L1050.85,1247.31L1050.39,1247.5L1049.93,1247.69L1049.48,1247.88L1049.44,1247.9L1048.72,1246.26L1048.77,1246.23L1049.24,1246.04L1049.7,1245.84L1050.17,1245.65L1050.64,1245.46L1051.11,1245.27L1051.27,1245.21L1051.92,1246.88ZM1107.14,1243.55L1107.62,1243.71L1108.11,1243.87L1108.59,1244.04L1109.07,1244.2L1109.37,1244.31L1108.77,1246L1108.47,1245.9L1108,1245.73L1107.53,1245.57L1107.06,1245.41L1106.59,1245.26L1106.22,1245.14L1106.77,1243.43L1107.14,1243.55ZM1057.85,1244.82L1057.39,1244.96L1056.91,1245.11L1056.44,1245.26L1055.97,1245.41L1055.5,1245.57L1055.29,1245.64L1054.71,1243.94L1054.92,1243.87L1055.4,1243.71L1055.89,1243.55L1056.37,1243.4L1056.86,1243.24L1057.32,1243.1L1057.85,1244.82ZM1100.74,1241.76L1101.24,1241.88L1101.74,1242L1102.23,1242.12L1102.73,1242.25L1103.23,1242.39L1103.26,1242.39L1102.78,1244.12L1102.76,1244.12L1102.27,1243.99L1101.79,1243.86L1101.3,1243.74L1100.81,1243.62L1100.32,1243.5L1100.18,1243.46L1100.59,1241.72L1100.74,1241.76ZM1063.92,1243.22L1063.68,1243.27L1063.19,1243.38L1062.7,1243.5L1062.21,1243.62L1061.73,1243.74L1061.3,1243.85L1060.86,1242.11L1061.29,1242L1061.79,1241.88L1062.29,1241.76L1062.79,1241.64L1063.29,1241.52L1063.53,1241.47L1063.92,1243.22ZM1094.65,1240.55L1095.16,1240.63L1095.68,1240.72L1096.19,1240.81L1096.7,1240.9L1097,1240.96L1096.67,1242.72L1096.37,1242.66L1095.87,1242.57L1095.37,1242.49L1094.87,1242.4L1094.37,1242.32L1094.02,1242.26L1094.29,1240.49L1094.65,1240.55ZM1070.09,1242.1L1069.66,1242.16L1069.16,1242.24L1068.66,1242.32L1068.16,1242.4L1067.65,1242.49L1067.44,1242.52L1067.12,1240.76L1067.35,1240.72L1067.86,1240.63L1068.38,1240.55L1068.89,1240.47L1069.4,1240.39L1069.84,1240.33L1070.09,1242.1ZM1088.42,1239.8L1088.94,1239.84L1089.47,1239.89L1089.99,1239.94L1090.51,1240L1090.66,1240.01L1090.46,1241.79L1090.32,1241.78L1089.81,1241.72L1089.3,1241.67L1088.78,1241.63L1088.27,1241.58L1087.78,1241.54L1087.93,1239.76L1088.42,1239.8ZM1076.33,1241.47L1076.31,1241.47L1075.79,1241.5L1075.27,1241.54L1074.76,1241.58L1074.25,1241.63L1073.73,1241.67L1073.65,1241.68L1073.48,1239.9L1073.56,1239.89L1074.09,1239.84L1074.61,1239.8L1075.14,1239.75L1075.66,1239.71L1076.19,1239.68L1076.23,1239.68L1076.33,1241.47ZM1082.05,1239.51L1082.59,1239.52L1083.12,1239.53L1083.65,1239.54L1084.18,1239.55L1084.27,1239.56L1084.2,1241.35L1084.13,1241.35L1083.61,1241.33L1083.09,1241.32L1082.56,1241.31L1082.04,1241.31L1081.51,1241.3L1080.99,1241.31L1080.47,1241.31L1079.94,1241.32L1079.92,1241.32L1079.88,1239.53L1079.91,1239.53L1080.44,1239.52L1080.98,1239.51L1081.51,1239.51L1081.51,1241.3L1081.52,1239.51L1082.05,1239.51Z"/>
            </g>
            <g transform="matrix(1,0,0,1,-123.325,-484.704)">
                <rect x="1081.04" y="1276.07" width="5.256" height="3.958" style="fill:rgb(236,238,242);stroke:rgb(36,36,36);stroke-width:1.04px;"/>
            </g>
            <g transform="matrix(1.70004,0,0,1,-881.911,-493.229)">
                <rect x="1081.04" y="1276.07" width="5.256" height="3.958" style="fill:rgb(236,238,242);stroke:rgb(36,36,36);stroke-width:0.75px;"/>
            </g>
            <g transform="matrix(1,0,0,1,-123.417,-484.704)">
                <ellipse cx="1083.76" cy="1273.79" rx="12.207" ry="2.283" style="fill:white;stroke:rgb(36,36,36);stroke-width:1.04px;"/>
            </g>
            <g transform="matrix(1.03352,0,0,1.03352,-160.013,-529.761)">
                <circle cx="1084.11" cy="1313.19" r="31.081" style="fill:rgb(236,238,242);stroke:rgb(39,39,39);stroke-width:1.41px;stroke-linecap:round;"/>
            </g>
            <g transform="matrix(0.271273,0,0,0.271273,676.185,482.553)">
                <circle cx="1084.11" cy="1313.19" r="31.081" style="fill:none;stroke:rgb(39,39,39);stroke-width:5.38px;stroke-linecap:round;"/>
            </g>
            <g transform="matrix(0.0989622,0,0,0.0989622,852.61,698.88)">
                <circle cx="1084.11" cy="1313.19" r="31.081" style="fill:none;stroke:rgb(39,39,39);stroke-width:14.74px;stroke-linecap:round;"/>
            </g>
            <g transform="matrix(1,0,0,1,-123.325,-484.704)">
                <path d="M1081.04,1310.46L1057.28,1306.83C1057.45,1301.78 1060.07,1296.91 1065,1292.2L1081.04,1310.46Z" style="fill:rgb(152,226,150);"/>
            </g>
            <g transform="matrix(1.14762,0,0,1,-279.026,-484.704)">
                <path d="M1054.77,1312.15L1058.76,1312.15" style="fill:none;stroke:rgb(39,39,39);stroke-width:1.16px;"/>
            </g>
            <g transform="matrix(1,0,0,1.0881,-123.325,-597.752)">
                <path d="M1083.76,1283.16L1083.76,1287.63" style="fill:none;stroke:rgb(133,135,139);stroke-width:1.79px;"/>
            </g>
            <g transform="matrix(1,0,0,1.0881,-123.325,-544.238)">
                <path d="M1083.76,1283.16L1083.76,1287.63" style="fill:none;stroke:rgb(133,135,139);stroke-width:1.79px;"/>
            </g>
            <g transform="matrix(1,0,0,0.947878,-113.511,-376.166)">
                <path d="M1083.76,1283.16L1083.76,1287.63" style="fill:none;stroke:rgb(133,135,139);stroke-width:1.92px;"/>
            </g>
            <g transform="matrix(1.14762,0,0,1,-225.623,-484.704)">
                <path d="M1054.77,1312.15L1058.76,1312.15" style="fill:none;stroke:rgb(39,39,39);stroke-width:1.16px;"/>
            </g>
            <g transform="matrix(0.932851,0,0,0.932851,-50.8793,-397.566)">
                <circle cx="1084.11" cy="1313.19" r="31.081" style="fill:none;stroke:rgb(39,39,39);stroke-width:1.56px;stroke-linecap:round;"/>
            </g>
            <g transform="matrix(0.0494811,0,0,0.0494811,916.633,773.809)">
                <circle cx="1084.11" cy="1313.19" r="31.081" style="fill:none;stroke:rgb(39,39,39);stroke-width:29.47px;stroke-linecap:round;"/>
            </g>
            <g transform="matrix(1,0,0,1,-123.325,-484.704)">
                <path d="M1081.04,1311.37L1067.04,1295.63" style="fill:none;stroke:rgb(39,39,39);stroke-width:1.46px;stroke-linecap:square;"/>
            </g>
            <path d="M960.344,786.799L960.344,791.366" style="fill:none;stroke:rgb(36,36,36);stroke-width:1.04px;stroke-linecap:square;"/>
            <path d="M957.716,791.366L957.716,786.799" style="fill:none;stroke:rgb(36,36,36);stroke-width:1.04px;stroke-linecap:square;"/>
            <path d="M962.973,791.366L962.973,786.799" style="fill:none;stroke:rgb(36,36,36);stroke-width:1.04px;stroke-linecap:square;"/>
            <g transform="matrix(1,0,0,1,-0.21448,1.45023e-06)">
                <path d="M955.34,791.166L955.34,786.999" style="fill:none;stroke:rgb(36,36,36);stroke-width:1.04px;"/>
            </g>
            <g transform="matrix(1,0,0,1,-2.57759,1.45023e-06)">
                <path d="M955.34,791.166L955.34,786.999" style="fill:none;stroke:rgb(36,36,36);stroke-width:1.04px;"/>
            </g>
            <g transform="matrix(1,0,0,0.647038,-4.84788,278.516)">
                <path d="M955.34,791.166L955.34,786.999" style="fill:none;stroke:rgb(36,36,36);stroke-width:1.24px;"/>
            </g>
            <g transform="matrix(1,0,0,0.647038,15.0626,278.516)">
                <path d="M955.34,791.166L955.34,786.999" style="fill:none;stroke:rgb(36,36,36);stroke-width:1.24px;"/>
            </g>
            <g transform="matrix(1,0,0,1,12.6594,1.45023e-06)">
                <path d="M955.34,791.166L955.34,786.999" style="fill:none;stroke:rgb(36,36,36);stroke-width:1.04px;"/>
            </g>
            <g transform="matrix(1,0,0,1,10.1843,1.45023e-06)">
                <path d="M955.34,791.166L955.34,786.999" style="fill:none;stroke:rgb(36,36,36);stroke-width:1.04px;"/>
            </g>
            <g transform="matrix(1.27117,0,0,1.22846,554.222,-222.983)">
                <rect x="245.155" y="779.157" width="148.663" height="153.832" style="fill:none;"/>
            </g>
        </g>
    </g>
</svg>
