<?xml version="1.0" encoding="UTF-8" standalone="no"?>
<!DOCTYPE svg PUBLIC "-//W3C//DTD SVG 1.1//EN" "http://www.w3.org/Graphics/SVG/1.1/DTD/svg11.dtd">
<svg width="100%" height="100%" viewBox="0 0 289 245" version="1.1" xmlns="http://www.w3.org/2000/svg" xmlns:xlink="http://www.w3.org/1999/xlink" xml:space="preserve" style="fill-rule:evenodd;clip-rule:evenodd;stroke-linejoin:round;stroke-miterlimit:1.41421;">
    <g transform="matrix(1,0,0,1,-869.88,-1108.28)">
        <g transform="matrix(1.97588,0,0,1.74549,875.455,1230.46)">
            <g transform="matrix(1,0,0,1,-560,-70)">
                <g id="ac.-customers.-new">
                    <g id="layer1" transform="matrix(1,0,0,1,579.023,48.0992)">
                        <g id="path6484" transform="matrix(1,0,0,-1,75.7383,72.1899)">
                            <path d="M8.863,52.001C9.234,52.238 9.715,52.464 10.022,52.612C10.336,52.757 10.74,52.927 11.178,52.927C11.603,52.927 11.901,52.79 12.259,52.537C12.618,52.28 12.92,52.008 13.261,51.507C13.595,50.999 14.242,50.11 14.471,49.792C14.705,49.467 15.34,48.542 15.603,48.376C15.867,48.205 15.924,48.234 16.06,48.257C16.208,48.282 16.365,48.397 16.526,48.842C16.671,49.258 16.817,49.566 16.999,50.022C17.195,50.476 17.575,50.861 18.002,51.124C18.433,51.391 19.39,51.914 20.413,51.846C21.177,51.791 21.689,51.58 21.875,51.265C22.04,50.98 22.106,50.403 22.017,50.042C21.921,49.685 21.208,46.47 21.034,45.728C20.855,44.98 19.056,37.519 18.839,36.466C18.626,35.409 18.1,32.652 17.839,31.361C17.575,30.066 16.052,22.522 15.808,21.47C15.557,20.424 14.162,14.037 13.654,12.099C13.153,10.152 12.314,7.714 12.089,7.038C11.817,6.219 11.254,4.822 10.959,4.181C10.549,3.321 9.405,1.675 9.285,1.585C9.166,1.485 8.667,1.128 8.312,0.908C7.953,0.696 7.333,0.358 6.687,0.214C6.046,0.073 4.874,-0.015 4.698,0.094C4.379,0.291 3.89,0.52 3.479,0.977C3.251,1.222 2.479,2.155 1.743,3.953C1.002,5.753 0.294,9.259 0.247,10.22C0.201,11.18 0.088,11.85 0.092,11.999C0.099,12.137 0.053,12.481 0.053,12.481C0.053,12.481 0.145,12.957 0.653,13.506C1.15,14.058 1.405,14.323 2.026,14.511C2.649,14.707 3.121,14.656 3.389,14.533C3.647,14.421 3.868,14.323 3.868,14.11C3.868,13.533 3.762,13.033 3.89,12.282C4.026,11.425 4.223,10.414 4.46,9.572C4.703,8.733 5.463,6.523 5.825,5.951C6.18,5.375 6.324,5.178 6.588,5.204C6.847,5.226 7.044,5.298 7.375,5.832C7.715,6.357 8.359,7.728 8.646,8.612C8.933,9.503 9.336,11.127 9.596,11.999C9.859,12.865 10.383,14.89 10.813,16.727C11.243,18.575 11.676,20.783 11.871,21.948C12.06,23.123 12.46,25.816 12.693,27.016C12.928,28.21 13.19,29.512 13.29,30.212C13.387,30.895 13.85,33.806 13.926,34.214C13.995,34.623 15.234,40.815 15.451,41.912C15.66,43.017 15.808,43.544 15.828,43.707C15.856,43.883 15.999,44.047 16.025,44.189C16.045,44.307 15.924,44.456 15.808,44.554C15.685,44.648 15.54,44.715 15.451,44.715C15.352,44.715 15.177,44.629 14.971,44.554C14.588,44.412 14.177,44.382 13.77,44.382C13.366,44.382 13.007,44.631 12.561,45.053C12.115,45.48 11.269,46.627 10.874,47.119C10.484,47.617 9.843,48.639 9.482,48.932C9.125,49.226 8.572,49.403 8.282,49.66C8,49.928 7.929,50.193 7.859,50.519C7.785,50.861 7.808,51.124 7.808,51.243C7.808,51.366 8.165,51.675 8.261,51.748C8.359,51.825 8.759,51.935 8.863,52.001" style="fill:rgb(154,162,171);"/>
                        </g>
                        <g id="path6488" transform="matrix(1,0,0,-1,34.4301,5.03811)">
                            <path d="M2.914,0.443C2.647,0.443 2.505,0.383 2.348,0.318C2.193,0.241 1.801,0.102 1.465,0.122C1.132,0.146 0.899,0.079 0.686,0.354C0.465,0.625 0.323,0.838 0.299,1.094C0.278,1.344 0.345,1.452 0.26,1.624C0.178,1.794 0.108,2.098 0.086,2.22C0.061,2.341 -0.058,2.808 0.108,3.092C0.278,3.383 0.609,3.788 0.935,3.982C1.252,4.175 1.972,4.672 2.558,4.792C3.144,4.904 3.086,4.893 3.43,4.893C3.778,4.893 4.193,4.796 4.395,4.706C4.601,4.637 5.059,4.232 5.102,4.143C5.186,3.971 5.256,3.722 5.112,3.262C4.969,2.808 4.516,2.158 4.326,1.796C4.136,1.439 3.833,1.018 3.621,0.825C3.407,0.634 3.02,0.443 2.914,0.443" style="fill:rgb(154,162,171);"/>
                        </g>
                        <g id="path6492" transform="matrix(1,0,0,-1,0.042759,51.7639)">
                            <path d="M28.615,12.208C28.545,11.506 28.22,9.787 28.12,9.003C28.027,8.217 27.759,7.253 27.569,6.843C27.38,6.425 27.209,5.799 27.007,5.799C26.801,5.799 26.717,6.09 26.584,6.626C26.458,7.17 26.48,7.562 26.453,8.077C26.422,8.586 26.674,9.867 26.717,10.404C26.751,10.951 27.168,12.789 27.38,13.739C27.605,14.666 28.07,16.178 28.224,16.436C28.382,16.691 28.517,17.423 28.643,17.466C28.755,17.508 28.775,16.573 28.775,16.058C28.775,15.543 28.695,12.912 28.615,12.208M26.571,25.387C25.948,25.357 25.9,25.387 25.59,25.291C25.278,25.194 24.903,25.049 24.856,25.258C24.814,25.474 24.954,26.104 24.954,26.104C24.954,26.104 25.116,26.364 25.597,26.534C26.07,26.706 26.534,26.758 26.879,26.962C27.218,27.168 27.785,27.729 27.785,27.729C27.785,27.729 28.045,27.247 28.027,26.792C27.999,26.334 27.861,26.008 27.648,25.81C27.426,25.624 27.189,25.405 26.571,25.387M15.647,28.766C15.547,28.481 15.31,27.832 15.198,27.623C15.081,27.419 14.507,26.345 14.275,26.035C14.046,25.728 13.751,25.194 13.616,25.052C13.33,24.766 13.054,24.512 12.724,24.273C12.547,24.13 11.949,23.847 11.842,23.797C11.519,23.665 11.007,23.517 10.196,23.486C9.387,23.469 8.584,23.617 7.86,23.947C6.927,24.383 6.149,24.989 5.314,26.668C4.48,28.351 4.166,29.183 4.166,30.195C4.166,31.204 4.55,32.954 4.884,33.746C5.221,34.539 5.818,36.174 6.154,36.812C6.448,37.365 6.961,38.157 7.418,38.594C7.554,38.731 7.659,38.859 7.845,38.974C8.039,39.096 8.158,39.17 8.539,39.527C8.923,39.886 9.182,39.915 9.279,39.956C9.37,40.008 9.566,39.915 9.658,39.936C9.868,39.991 9.949,39.915 10.093,39.527C10.19,39.268 10.902,37.753 11.097,37.367C11.286,36.997 11.458,36.991 11.481,36.796C11.507,36.61 11.527,36.149 11.79,35.522C12.05,34.895 12.868,33.697 13.226,33.15C13.581,32.597 14.813,31.191 15.172,30.717C15.531,30.225 15.825,29.931 15.825,29.746C15.825,29.549 15.739,29.055 15.647,28.766M79.752,34.444C79.23,34.516 77.623,34.31 77.154,34.242C76.69,34.179 75.695,34.012 75.049,33.51C74.218,32.857 74.167,31.974 74.14,31.419C74.116,30.872 74.11,29.983 74.09,29.338C74.068,28.648 74.015,28.448 73.903,27.8C73.83,27.541 73.763,27.213 73.706,27.061C73.632,26.862 73.481,26.821 73.236,26.954C73.059,27.052 72.817,27.41 72.67,27.551C72.319,27.889 70.492,30.306 69.679,31.297C68.768,32.403 68.171,32.429 67.524,32.444C67.011,32.456 65.752,32.039 65.376,31.855C64.922,31.633 64.729,31.348 64.729,31.348C64.729,31.348 64.636,30.749 64.686,30.151C64.729,29.546 64.609,28.643 64.429,28.077C64.203,27.338 63.76,26.989 63.497,26.927C63.08,26.834 62.397,27.295 60.938,29.128C59.705,30.672 58.331,33.623 57.876,35.111C57.417,36.605 56.872,38.386 56.85,38.673C56.821,38.962 56.798,39.258 56.742,39.408C56.683,39.533 56.648,39.728 56.648,39.994C56.648,40.259 56.569,40.472 56.569,40.472C56.569,40.472 56.395,42.36 56.302,43.105C56.206,43.847 56.097,46.898 55.973,47.764C55.861,48.627 54.987,48.905 54.247,48.743C53.515,48.576 52.596,48.212 51.88,47.759C51.166,47.297 50.896,46.489 50.965,45.453C51.029,44.547 51.625,41.941 51.724,41.273C51.794,40.799 51.764,40.369 51.88,39.936C52,39.506 51.856,38.782 51.739,38.088C51.621,37.392 51.143,36.337 50.884,35.711C50.617,35.082 49.93,33.633 49.807,33.388C49.685,33.148 49.077,32.051 48.868,31.646C48.744,31.392 48.232,30.489 47.73,29.715C47.271,29.006 45.702,26.741 44.856,25.9C44.027,25.064 42.89,24.404 42.465,24.355C42.031,24.302 41.685,24.423 41.323,24.72C40.88,25.09 40.108,26.645 39.822,27.204C39.537,27.767 38.923,28.929 38.923,28.929C38.923,28.929 38.689,29.311 38.185,29.477C37.68,29.643 36.966,29.553 36.329,29.338C35.504,29.066 34.805,28.753 34.019,28.353C33.47,28.077 32.613,27.5 32.414,27.661C32.197,27.851 32.387,28.17 32.197,28.94C32.007,29.71 31.345,29.863 30.603,29.801C29.864,29.734 29.729,30.34 29.555,30.787C29.376,31.213 29.125,31.625 28.674,31.766C28.236,31.901 27.697,32.039 27.267,31.946C26.839,31.855 26.352,31.544 25.922,31.213C25.495,30.878 24.652,30.022 24.273,29.61C23.888,29.198 23.577,29.047 23.577,29.047C23.577,29.047 23.237,29.132 22.76,29.366C22.283,29.61 21.407,30.076 20.833,30.561C20.263,31.04 19.791,31.653 19.791,31.653C19.791,31.653 19.74,32.915 19.74,33.332C19.74,34.295 19.382,36.256 19.139,37.17C18.906,38.084 18.242,39.79 18.1,40.217C17.957,40.643 17.834,41.101 17.566,41.565C17.306,42.016 16.115,43.806 15.735,44.28C15.344,44.764 14.31,45.811 14.22,45.977C14.135,46.149 14.127,45.905 13.605,46.393C13.076,46.866 12,47.365 11.569,47.343L10.811,47.225C10.19,46.973 9.658,46.647 9.186,46.266C8.706,45.884 8.662,45.166 8.662,44.687C8.662,44.204 8.775,43.173 8.884,42.85C9.028,42.419 8.953,42.318 8.76,42.081C8.76,42.081 8.02,41.624 7.332,41.152C6.637,40.662 5.344,39.56 4.539,38.744C3.725,37.927 2.669,36.393 1.98,35.145C1.29,33.899 0.753,32.267 0.511,31.413C0.353,30.864 0.162,29.668 0.134,29.119C0.097,28.568 0.153,28.018 0.345,27.052C0.541,26.098 1.163,25.083 1.612,24.223C2.064,23.363 2.755,22.656 3.237,22.159C3.712,21.66 4.48,21.25 5.051,21.031C5.624,20.813 7.008,20.669 7.777,20.619C8.228,20.593 9.37,20.813 9.709,20.813C9.852,20.813 10.845,21.126 11.178,21.23C11.445,21.303 12.02,21.522 12.573,21.704C13.314,21.938 14.566,22.814 14.744,22.947C14.834,23.018 15.046,23.184 15.368,23.457C15.689,23.734 15.964,24.03 16.441,24.487C16.919,24.94 17.566,25.894 17.968,26.504C18.334,27.043 18.783,27.706 18.783,27.706C18.783,27.706 19.356,27.349 19.81,27.147C20.236,26.954 20.957,26.571 21.289,26.355C21.627,26.14 21.957,25.83 21.701,25.206C21.585,24.937 21.314,24.372 21.053,23.839C20.786,23.312 20.689,22.806 20.74,22.424C20.786,22.061 20.863,21.989 21.1,21.802C21.279,21.66 21.389,21.627 21.506,21.605C21.888,21.526 21.721,21.61 22.557,21.752C23.131,21.849 24.899,22.447 25.469,22.617C26.041,22.785 26.313,22.895 26.968,23.175C27.504,23.409 27.733,22.82 27.522,22.302C27.426,22.069 27.209,21.687 27.069,21.273C26.999,21.058 26.806,20.733 26.741,20.39C26.662,20.048 26.576,19.758 26.551,19.636C26.524,19.522 26.422,19.462 26.342,19.333C26.143,19.016 25.934,18.395 25.695,17.792C25.465,17.193 24.81,15.487 24.648,14.982C24.48,14.484 24.076,12.657 23.972,12.248C23.879,11.841 23.798,11.406 23.747,11.195C23.701,10.978 23.612,10.182 23.577,9.675C23.542,9.178 23.441,7.824 23.425,6.813C23.411,5.8 23.462,4.671 23.631,3.802C23.798,2.941 24.007,2.207 24.176,1.916C24.344,1.626 24.584,0.811 24.954,0.462C25.159,0.277 25.759,0.009 26.422,0.009C27.097,0.009 27.743,0.418 28.151,0.582C28.559,0.754 28.942,1.369 28.981,1.426C29.023,1.48 29.768,2.645 30.844,5.251C31.921,7.853 32.347,12.034 32.488,13.787C32.635,15.538 32.538,18.252 32.516,19.664C32.488,21.073 32.205,23.987 32.205,24.247C32.205,24.508 32.113,24.487 32.183,24.753C32.251,25.015 32.658,25.308 32.818,25.4C33.035,25.53 33.341,25.674 33.628,25.826C33.911,25.971 34.421,26.098 34.659,26.111C34.942,26.132 35.055,25.964 35.24,25.686C35.372,25.482 35.53,25.18 35.686,24.834C35.964,24.236 36.53,23.205 37.116,22.686C37.473,22.369 37.883,22.009 38.24,21.868C38.819,21.652 39.655,21.508 40.876,21.487C42.089,21.46 43.268,21.973 43.697,22.171C44.127,22.36 44.882,22.905 45.051,22.998C45.216,23.091 45.962,23.685 46.464,24.119C46.981,24.571 48.275,26.123 48.756,26.694C49.233,27.269 50.243,28.792 50.791,29.715C51.345,30.636 52.236,32.043 52.67,32.789C53.023,33.397 53.085,33.57 53.194,33.778C53.194,33.778 53.484,33.434 53.666,33.256C53.841,33.08 54,32.542 54.296,31.878C54.596,31.219 55.178,30.283 55.466,29.835C56.123,28.817 56.902,27.706 58.07,26.355C58.977,25.308 60.052,24.618 60.861,24.236C61.671,23.853 62.35,23.783 62.825,23.783C63.307,23.783 63.636,23.832 64.121,23.955C64.597,24.075 65.356,24.605 65.907,25.064C66.457,25.516 67.346,26.726 67.346,26.726C67.346,26.726 67.749,26.453 68.197,25.998C68.572,25.605 68.877,25.211 69.19,24.839C69.485,24.491 69.806,24.119 70.163,23.754C70.483,23.431 70.747,23.214 70.95,23.04C71.384,22.686 71.589,22.552 72.155,22.426C72.72,22.311 73.112,22.33 73.516,22.398C73.891,22.469 74.419,22.637 74.728,22.741C75.019,22.841 75.427,22.972 75.644,23.132C75.942,23.339 76.26,23.734 76.48,24.083C76.771,24.571 77.508,26.098 77.937,27.676C78.365,29.265 78.566,30.651 78.627,31.239C78.678,31.638 78.733,31.748 79.395,32.076C80.059,32.388 80.444,32.634 80.783,32.98C81.111,33.321 81.391,33.936 81.369,34.124C81.341,34.316 80.282,34.373 79.752,34.444" style="fill:rgb(154,162,171);"/>
                        </g>
                    </g>
                </g>
            </g>
        </g>
    </g>
</svg>
