<?xml version="1.0" encoding="UTF-8" standalone="no"?>
<!DOCTYPE svg PUBLIC "-//W3C//DTD SVG 1.1//EN" "http://www.w3.org/Graphics/SVG/1.1/DTD/svg11.dtd">
<svg width="100%" height="100%" viewBox="0 0 276 287" version="1.1" xmlns="http://www.w3.org/2000/svg" xmlns:xlink="http://www.w3.org/1999/xlink" xml:space="preserve" style="fill-rule:evenodd;clip-rule:evenodd;stroke-linejoin:round;stroke-miterlimit:1.41421;">
    <g transform="matrix(1,0,0,1,-848.276,-816.33)">
        <g transform="matrix(2.0448,0,0,2.0448,1993.37,959.466)">
            <g transform="matrix(1,0,0,1,-560,-70)">
                <g id="ac.-customers.-new">
                    <g id="Shape" transform="matrix(1,0,0,1,46,44)">
                        <path d="M36.915,28.061C36.989,36.054 43.927,38.714 44.004,38.748C43.945,38.936 42.895,42.539 40.349,46.261C38.147,49.478 35.862,52.684 32.263,52.751C28.726,52.816 27.589,50.653 23.546,50.653C19.504,50.653 18.24,52.684 14.892,52.816C11.418,52.947 8.772,49.336 6.553,46.13C2.017,39.573 -1.45,27.6 3.205,19.518C5.517,15.505 9.649,12.963 14.134,12.898C17.546,12.833 20.766,15.193 22.851,15.193C24.936,15.193 28.849,12.355 32.963,12.772C34.685,12.844 39.519,13.467 42.623,18.011C42.373,18.166 36.855,21.379 36.915,28.061M30.268,8.433C32.113,6.201 33.354,3.093 33.015,0C30.357,0.107 27.142,1.772 25.235,4.003C23.526,5.979 22.029,9.142 22.433,12.173C25.396,12.403 28.424,10.668 30.268,8.433" style="fill:rgb(154,162,171);"/>
                    </g>
                </g>
            </g>
        </g>
    </g>
</svg>
