<?xml version="1.0" encoding="UTF-8" standalone="no"?>
<!DOCTYPE svg PUBLIC "-//W3C//DTD SVG 1.1//EN" "http://www.w3.org/Graphics/SVG/1.1/DTD/svg11.dtd">
<svg width="100%" height="100%" viewBox="0 0 275 287" version="1.1" xmlns="http://www.w3.org/2000/svg" xmlns:xlink="http://www.w3.org/1999/xlink" xml:space="preserve" style="fill-rule:evenodd;clip-rule:evenodd;stroke-linejoin:round;stroke-miterlimit:1.41421;">
    <g transform="matrix(1,0,0,1,-1548.59,-428.908)">
        <g transform="matrix(2.0448,0,0,2.0448,969.711,572.044)">
            <g transform="matrix(1,0,0,1,-560,-70)">
                <g id="ac.-customers.-new">
                    <g id="Shape" transform="matrix(1,0,0,1,851,58)">
                        <path d="M109.267,0L109.267,0C114.7,0 118,3.051 118,7.692C118,12.201 114.568,15.543 108.965,15.543C107.348,15.543 105.433,15.415 104.685,15.415C104.228,15.415 102.68,15.479 102.171,15.479L102.171,15.057C103.088,14.892 103.592,14.527 103.592,13.685L103.592,1.826C103.592,1.009 103.094,0.686 102.209,0.523L102.209,0.099C102.718,0.099 104.379,0.163 104.84,0.163C105.581,0.163 107.653,0 109.267,0ZM25.71,0.022L25.706,0.022L27.075,0.022C27.075,0.022 27.32,1.03 27.525,1.52L32.698,13.387C33.066,14.204 33.465,14.794 34.494,15.055L34.489,15.448C33.931,15.448 32.19,15.415 31.794,15.415C31.4,15.415 29.741,15.448 29.179,15.448L29.181,15.055C29.934,14.869 30.172,14.484 30.172,14.111C30.172,13.793 30.042,13.437 29.884,13.067L28.774,10.517L23.077,10.517L22.058,13.081C21.945,13.371 21.809,13.782 21.809,14.058C21.809,14.486 22.032,14.826 22.887,15.055L22.884,15.448C22.378,15.448 21.042,15.415 20.729,15.415L18.516,15.448L18.518,15.055C19.485,14.826 20.016,14.197 20.369,13.355L25.261,1.519C25.468,1.029 25.71,0.022 25.71,0.022ZM74.177,0.022L74.169,0.021L75.536,0.021C75.536,0.021 75.784,1.03 75.983,1.52L81.162,13.387C81.527,14.204 81.93,14.794 82.954,15.055L82.954,15.448C82.395,15.448 80.653,15.415 80.255,15.415C79.865,15.415 78.204,15.448 77.644,15.448L77.644,15.055C78.401,14.869 78.635,14.484 78.635,14.111C78.635,13.793 78.506,13.437 78.351,13.067L77.235,10.517L71.54,10.517L70.521,13.081C70.406,13.371 70.272,13.782 70.272,14.058C70.272,14.486 70.494,14.826 71.348,15.055L71.348,15.448C70.841,15.448 69.508,15.415 69.192,15.415L66.978,15.448L66.982,15.055C67.948,14.826 68.481,14.197 68.831,13.355L73.724,1.519C73.933,1.029 74.177,0.022 74.177,0.022ZM43.161,0.038L43.161,0.038C46.817,0.038 48.851,1.558 48.851,4.157C48.851,6.205 47.333,7.586 45.005,8.155C45.005,8.155 45.532,8.464 46.063,9.086C46.71,9.85 48.488,12.41 49.208,13.29C49.926,14.167 50.849,15.149 51.836,15.195L51.836,15.54C51.364,15.643 50.607,15.73 50.029,15.73C48.783,15.73 47.794,15.291 46.831,14.119C46.001,13.102 44.55,10.939 43.719,9.871C43.188,9.19 42.547,8.66 41.372,8.464C41.14,8.425 40.921,8.393 40.666,8.364L40.666,13.642C40.666,14.432 41.163,14.861 42.08,15.057L42.08,15.48C41.57,15.48 39.907,15.416 39.431,15.416C39.026,15.416 37.397,15.48 36.886,15.48L36.886,15.057C37.736,14.893 38.239,14.468 38.239,13.642L38.239,1.868C38.239,1.144 37.847,0.687 36.887,0.523L36.887,0.098C37.398,0.098 39.009,0.162 39.461,0.162C40.207,0.162 42.327,0.038 43.161,0.038ZM91.322,0.038L91.322,0.038C94.982,0.038 97.01,1.558 97.01,4.157C97.01,6.205 95.496,7.586 93.167,8.155C93.167,8.155 93.696,8.464 94.223,9.086C94.874,9.85 96.653,12.41 97.37,13.29C98.092,14.167 99.015,15.149 99.997,15.195L99.997,15.54C99.53,15.643 98.768,15.73 98.196,15.73C96.948,15.73 95.954,15.291 94.995,14.119C94.164,13.102 92.718,10.939 91.88,9.871C91.349,9.19 90.71,8.66 89.537,8.464C89.303,8.425 89.086,8.393 88.827,8.364L88.827,13.642C88.827,14.432 89.327,14.861 90.244,15.057L90.244,15.48C89.734,15.48 88.076,15.416 87.596,15.416C87.185,15.416 85.559,15.48 85.048,15.48L85.048,15.057C85.897,14.893 86.399,14.468 86.399,13.642L86.399,1.868C86.399,1.144 86.008,0.687 85.051,0.523L85.051,0.098C85.563,0.098 87.169,0.162 87.625,0.162C88.373,0.162 90.489,0.038 91.322,0.038ZM0,0.098L0,0.524C0.751,0.72 1.218,1.044 1.218,1.827L1.218,13.75C1.218,14.566 0.715,14.894 0,15.058L0,15.448C0.375,15.448 1.995,15.417 2.388,15.417C2.843,15.417 4.54,15.448 4.913,15.448L4.913,15.058C4.165,14.862 3.668,14.566 3.668,13.75L3.668,8.115L12.499,8.115L12.499,13.75C12.499,14.566 11.994,14.894 11.283,15.058L11.283,15.448C11.655,15.448 13.324,15.417 13.776,15.417C14.168,15.417 15.824,15.448 16.194,15.448L16.194,15.058C15.445,14.862 14.947,14.534 14.947,13.75L14.947,1.827C14.947,1.011 15.478,0.687 16.194,0.524L16.194,0.098C15.824,0.098 14.168,0.163 13.776,0.163C13.324,0.163 11.655,0.098 11.283,0.098L11.283,0.524C12.03,0.687 12.499,1.011 12.499,1.827L12.499,6.807L3.668,6.807L3.668,1.827C3.668,1.011 4.198,0.687 4.913,0.524L4.913,0.098C4.54,0.098 2.842,0.163 2.388,0.163C1.994,0.163 0.375,0.098 0,0.098L0,0.098ZM51.338,0.13L51.338,0.13C51.881,0.13 53.677,0.195 54.089,0.195C54.469,0.195 56.208,0.13 56.762,0.13L56.762,0.553C56.269,0.648 55.708,0.926 55.708,1.435C55.708,1.794 55.928,2.291 56.34,3.223L60.281,12.231L64.009,3.208C64.3,2.477 64.518,1.918 64.518,1.486C64.518,1.007 64.076,0.681 63.457,0.553L63.457,0.13C63.952,0.13 65.149,0.195 65.532,0.195C65.878,0.195 67.302,0.13 67.843,0.13L67.843,0.539C66.914,0.792 66.347,1.329 65.828,2.548L60.348,15.554L59.107,15.554L53.056,2.041C52.721,1.298 52.208,0.756 51.338,0.563L51.338,0.13ZM108.58,1.014L108.58,1.014C107.71,1.014 106.62,1.081 106.033,1.176L106.033,14.273C106.586,14.374 107.609,14.436 108.416,14.436C112.98,14.436 115.355,11.674 115.355,7.821C115.355,3.825 112.849,1.014 108.58,1.014ZM42.446,1.015L42.446,1.015C41.93,1.015 41.179,1.079 40.661,1.176L40.661,7.388C41.146,7.453 41.86,7.484 42.569,7.484C45.426,7.484 46.325,5.831 46.325,4.369C46.325,2.295 44.95,1.015 42.446,1.015ZM90.613,1.015L90.613,1.015C90.091,1.015 89.343,1.079 88.822,1.176L88.822,7.388C89.312,7.453 90.023,7.484 90.732,7.484C93.589,7.484 94.486,5.831 94.486,4.369C94.486,2.295 93.111,1.015 90.613,1.015ZM25.821,3.609L25.821,3.609L23.553,9.31L28.252,9.31L25.821,3.609ZM74.282,3.609L72.018,9.31L76.717,9.31L74.282,3.609ZM74.318,22.538C72.666,22.538 71.635,23.384 71.635,24.746C71.635,26.207 73.138,26.844 73.903,27.228C74.931,27.745 75.79,28.194 75.79,29.057C75.79,29.89 75.12,30.418 74.062,30.418C73.583,30.418 72.99,30.29 72.613,30.021C72.25,29.781 71.991,29.367 71.873,28.912L71.651,28.912L71.674,30.604C72.267,30.677 72.942,31 74.07,31C75.966,31 77.003,30.034 77.003,28.702C77.003,27.294 75.791,26.66 74.672,26.161C73.679,25.715 72.801,25.26 72.801,24.36C72.801,23.729 73.205,23.111 74.281,23.111C75.243,23.111 76.122,23.449 76.415,24.422L76.641,24.422L76.655,22.771C75.918,22.806 75.408,22.538 74.318,22.538L74.318,22.538ZM60.073,22.586C59.917,22.654 59.647,22.672 59.49,22.672L54.472,22.672L54.472,22.899C54.98,22.985 55.185,23.225 55.185,23.609L55.185,29.808C55.185,30.244 54.922,30.468 54.471,30.555L54.471,30.78C54.727,30.78 55.614,30.744 55.853,30.744L58.359,30.744C59.232,30.744 59.693,30.744 60.463,30.814L60.686,29.129L60.463,29.077C60.206,29.689 59.906,30.122 58.871,30.122L56.5,30.122L56.5,26.772L58.181,26.772C58.418,26.772 58.721,26.8 58.85,26.834C59.214,26.925 59.363,27.17 59.471,27.492L59.693,27.492C59.693,27.223 59.677,26.63 59.677,26.463C59.677,26.295 59.677,25.734 59.693,25.485L59.471,25.485C59.393,25.809 59.226,26.02 58.85,26.103C58.721,26.134 58.425,26.154 58.181,26.154L56.5,26.154L56.5,23.297L58.679,23.297C59.649,23.297 59.85,23.709 60.041,24.225L60.263,24.225L60.298,22.586L60.073,22.586L60.073,22.586ZM82.946,22.619L82.95,24.289L83.175,24.289C83.379,23.549 83.791,23.378 84.321,23.378L86.046,23.378L86.046,29.808C86.046,30.244 85.81,30.46 85.314,30.554L85.314,30.78C85.586,30.78 86.502,30.744 86.714,30.744C86.967,30.744 87.828,30.78 88.094,30.78L88.094,30.554C87.61,30.451 87.363,30.225 87.363,29.808L87.363,23.378L89.075,23.378C89.626,23.378 90.02,23.566 90.225,24.289L90.447,24.289L90.451,22.619C89.891,22.653 89.452,22.706 86.7,22.706C83.948,22.706 83.508,22.653 82.946,22.619L82.946,22.619ZM66.067,22.623L66.067,22.623C67.995,22.623 69.069,23.426 69.069,24.801C69.069,25.882 68.269,26.612 67.038,26.911C67.038,26.911 67.318,27.074 67.599,27.402C67.938,27.804 68.857,29.131 69.24,29.595C69.619,30.058 70.106,30.576 70.627,30.601L70.627,30.783C70.377,30.837 69.977,30.884 69.67,30.884C69.014,30.884 68.493,30.651 67.984,30.034C67.545,29.497 66.8,28.379 66.361,27.816C66.081,27.457 65.741,27.178 65.119,27.074C64.998,27.055 64.884,27.037 64.747,27.021L64.747,29.808C64.747,30.225 65.01,30.452 65.495,30.556L65.495,30.78C65.226,30.78 64.346,30.744 64.096,30.744C63.881,30.744 63.022,30.78 62.75,30.78L62.75,30.556C63.2,30.469 63.465,30.245 63.465,29.808L63.465,23.59C63.465,23.207 63.26,22.967 62.753,22.88L62.753,22.656C63.022,22.656 63.873,22.69 64.113,22.69C64.507,22.69 65.626,22.623 66.067,22.623ZM19.899,22.672L19.899,22.895C20.36,22.997 20.585,23.254 20.585,23.6L20.585,28.069C20.585,29.877 21.745,30.901 23.981,30.901C26.383,30.901 27.495,29.794 27.495,27.87L27.495,23.584C27.495,23.241 27.715,23.014 28.213,22.895L28.213,22.672C28.023,22.672 27.288,22.706 27.084,22.706C26.845,22.706 26.142,22.672 25.955,22.672L25.955,22.895C26.469,22.997 26.674,23.257 26.674,23.584L26.674,28.114C26.674,29.575 25.605,30.196 24.231,30.196C22.636,30.196 21.874,29.405 21.874,28.011L21.874,23.6C21.874,23.233 22.098,22.981 22.525,22.895L22.525,22.672C22.27,22.672 21.449,22.706 21.242,22.706C21.003,22.706 20.154,22.672 19.899,22.672L19.899,22.672ZM30.162,22.672L30.162,22.896C30.629,23.023 30.902,23.255 30.902,23.773L30.902,29.867C30.902,30.192 30.696,30.456 30.177,30.554L30.177,30.78C30.366,30.78 31.077,30.744 31.285,30.744C31.525,30.744 32.201,30.78 32.39,30.78L32.39,30.554C31.877,30.452 31.688,30.195 31.688,29.867L31.688,24.497L36.391,30.005C36.966,30.639 37.343,30.854 37.542,30.899L37.858,30.899L37.858,23.584C37.858,23.24 38.102,23.015 38.603,22.896L38.603,22.672C38.41,22.672 37.686,22.706 37.477,22.706C37.236,22.706 36.56,22.672 36.372,22.672L36.372,22.896C36.886,22.997 37.09,23.257 37.09,23.584L37.09,28.884L31.836,22.672C31.62,22.699 31.3,22.703 31.096,22.703C30.869,22.703 30.426,22.69 30.162,22.672L30.162,22.672ZM44.728,22.672L44.728,22.898C45.187,23.001 45.457,23.288 45.632,23.678L48.823,30.808L49.478,30.808L52.371,23.946C52.648,23.304 52.946,23.032 53.437,22.898L53.437,22.672C53.149,22.672 52.399,22.707 52.216,22.707C52.017,22.707 51.376,22.672 51.115,22.672L51.115,22.893C51.443,22.959 51.672,23.135 51.672,23.386C51.672,23.614 51.559,23.911 51.406,24.294L49.439,29.057L47.361,24.304C47.14,23.811 47.025,23.549 47.025,23.357C47.025,23.088 47.322,22.944 47.583,22.893L47.583,22.672C47.289,22.672 46.422,22.707 46.223,22.707C46.006,22.707 45.014,22.672 44.728,22.672L44.728,22.672ZM91.045,22.672L91.045,22.896C91.451,23.047 91.732,23.365 92.097,23.974L94.153,27.29L94.153,29.851C94.153,30.124 93.928,30.469 93.459,30.554L93.459,30.781C93.754,30.781 94.57,30.743 94.778,30.743C95.025,30.743 95.877,30.781 96.14,30.781L96.14,30.554C95.67,30.469 95.463,30.124 95.463,29.851L95.463,27.28L97.274,24.235C97.63,23.636 97.995,23.121 98.578,22.88L98.578,22.672C98.324,22.672 97.701,22.706 97.53,22.706C97.358,22.706 96.816,22.672 96.559,22.672L96.559,22.896C96.819,22.931 96.929,23.059 96.929,23.216C96.929,23.388 96.82,23.651 96.668,23.913L95.147,26.544C95.147,26.544 93.692,24.115 93.57,23.913C93.445,23.709 93.32,23.474 93.32,23.289C93.32,23.083 93.449,22.945 93.722,22.896L93.722,22.672C93.413,22.672 92.56,22.706 92.357,22.706C92.13,22.706 91.337,22.672 91.045,22.672L91.045,22.672ZM40.926,22.681L40.926,22.905C41.409,23.008 41.656,23.236 41.656,23.653L41.656,29.808C41.656,30.244 41.419,30.46 40.925,30.554L40.925,30.78C41.194,30.78 42.103,30.744 42.319,30.744C42.57,30.744 43.428,30.78 43.699,30.78L43.699,30.554C43.214,30.451 42.967,30.225 42.967,29.808L42.967,23.653C42.967,23.217 43.218,23.008 43.699,22.905L43.699,22.681C43.427,22.681 42.531,22.715 42.319,22.715C42.066,22.715 41.194,22.681 40.926,22.681L40.926,22.681ZM78.99,22.681L78.99,22.905C79.474,23.008 79.724,23.236 79.724,23.653L79.724,29.808C79.724,30.244 79.485,30.46 78.99,30.554L78.99,30.78C79.261,30.78 80.171,30.744 80.385,30.744C80.638,30.744 81.497,30.78 81.766,30.78L81.766,30.554C81.28,30.451 81.035,30.225 81.035,29.808L81.035,23.653C81.035,23.217 81.284,23.008 81.766,22.905L81.766,22.681C81.494,22.681 80.598,22.715 80.385,22.715C80.131,22.715 79.261,22.681 78.99,22.681ZM65.693,23.14C65.419,23.14 65.022,23.174 64.746,23.225L64.746,26.505C65.003,26.539 65.383,26.557 65.755,26.557C67.265,26.557 67.741,25.683 67.741,24.909C67.741,23.816 67.013,23.14 65.693,23.14Z" style="fill:rgb(154,162,171);fill-rule:nonzero;"/>
                    </g>
                </g>
            </g>
        </g>
    </g>
</svg>
