<svg width="35" height="35" viewBox="0 0 35 35" xmlns="http://www.w3.org/2000/svg"><title>instagram</title><g fill="none" fill-rule="evenodd"><path d="M0 16.846C0 4.83 2.73.5 17.5.5S35 4.847 35 16.846c0 10.37-2.708 17.436-17.5 17.436S0 27.234 0 16.846z" fill="#B0B5BF"/><path d="M23.118 8.5H12.382A3.38 3.38 0 0 0 9 11.87v10.696a3.38 3.38 0 0 0 3.382 3.37h10.736a3.38 3.38 0 0 0 3.382-3.37V11.87a3.38 3.38 0 0 0-3.382-3.37zm.97 2.01l.387-.002v2.956l-2.957.01-.01-2.956 2.58-.008zm-8.835 4.918a3.08 3.08 0 0 1 2.497-1.28 3.08 3.08 0 0 1 2.497 1.28 3.04 3.04 0 0 1 .584 1.79 3.078 3.078 0 0 1-3.08 3.068 3.078 3.078 0 0 1-3.08-3.068c0-.668.22-1.286.583-1.79zm9.542 7.138c0 .922-.752 1.67-1.677 1.67H12.382c-.925 0-1.677-.748-1.677-1.67v-7.138h2.613a4.718 4.718 0 0 0-.353 1.79c0 2.628 2.147 4.768 4.785 4.768 2.64 0 4.786-2.14 4.786-4.768 0-.633-.13-1.236-.353-1.79h2.612v7.138z" fill="#3F4654"/></g></svg>