<svg width="35" height="35" viewBox="0 0 35 35" xmlns="http://www.w3.org/2000/svg"><title>linkedin</title><g fill="none" fill-rule="evenodd"><path d="M0 16.846C0 4.83 2.73.5 17.5.5S35 4.847 35 16.846c0 10.37-2.708 17.436-17.5 17.436S0 27.234 0 16.846z" fill="#B0B5BF"/><path d="M9.44 14.09h3.412v11.845h-3.41V14.09zm1.62-1.48h-.025C9.8 12.61 9 11.703 9 10.557c0-1.17.824-2.058 2.084-2.058 1.258 0 2.032.885 2.056 2.054 0 1.147-.798 2.055-2.08 2.055zM26.5 25.935h-3.868v-6.13c0-1.605-.605-2.7-1.935-2.7-1.018 0-1.584.74-1.847 1.453-.1.253-.083.61-.083.967v6.41h-3.832s.05-10.86 0-11.846h3.832v1.86c.226-.813 1.45-1.973 3.404-1.973 2.425 0 4.33 1.705 4.33 5.372v6.586z" fill="#3F4654"/></g></svg>