<svg width="35" height="34" viewBox="0 0 35 34" xmlns="http://www.w3.org/2000/svg"><title>medium</title><g fill="none" fill-rule="evenodd"><path d="M0 16.346C0 4.33 2.73 0 17.5 0S35 4.347 35 16.346c0 10.37-2.708 17.436-17.5 17.436S0 26.734 0 16.346z" fill="#B0B5BF"/><path d="M25.808 12.055c-.257 0-.62.373-.62.613v8.66c0 .24.363.565.62.565h.692v2.056h-6.27v-2.057h1.31V12.79h-.062l-3.066 11.16H16.04l-3.026-11.16h-.077v9.103h1.313v2.056H9v-2.057h.673c.277 0 .64-.326.64-.565v-8.66c0-.24-.363-.613-.64-.613H9V10h6.565l2.156 8.076h.06L19.954 10H26.5v2.055h-.692z" fill="#3F4654"/></g></svg>