<svg width="190" height="40" viewBox="0 0 190 40" xmlns="http://www.w3.org/2000/svg"><g fill="none" fill-rule="evenodd"><path d="M0 18.75C0 4.966 3.12 0 20 0s20 4.986 20 18.75c0 11.895-3.095 20-20 20s-20-8.084-20-20z" fill="#FFF"/><path d="M22.494.04A74.127 74.127 0 0 0 20 0C3.12 0 0 4.966 0 18.75c0 11.916 3.095 20 20 20s20-8.105 20-20C40 6.47 37.516 1.176 24.99.178c-.438 5.848-1.38 10.966-2.674 15.364-.65 2.204-1.346 4.087-2.047 5.655-.43.957-.77 1.606-.976 1.95a1.25 1.25 0 0 1-1.704.43l-4.474-2.63a1.25 1.25 0 1 1 1.268-2.156l3.325 1.953s.05-.06.277-.566c.655-1.467 1.314-3.246 1.93-5.34 1.243-4.22 2.15-9.146 2.577-14.797zm5.63 13.085a1.875 1.875 0 1 0 0-3.75 1.875 1.875 0 0 0 0 3.75zm-16.25 0a1.875 1.875 0 1 0 0-3.75 1.875 1.875 0 0 0 0 3.75zm-.422 14.662c.102.158.28.388.54.664.41.437.914.866 1.52 1.264 1.688 1.11 3.842 1.767 6.477 1.767 2.632 0 4.788-.652 6.483-1.753A8.503 8.503 0 0 0 28 28.475c.26-.274.44-.502.543-.66a1.25 1.25 0 0 0-2.086-1.377l-.038.05a3.69 3.69 0 0 1-.23.26c-.282.297-.64.598-1.08.883-1.293.84-2.977 1.35-5.12 1.35-2.142 0-3.82-.512-5.106-1.356a5.953 5.953 0 0 1-1.07-.886 3.664 3.664 0 0 1-.228-.263l-.038-.05a1.25 1.25 0 1 0-2.096 1.362z" fill="#449DF5"/><path d="M61.892 27v-8.288c0-2.716-1.764-4.396-4.732-4.396-2.38 0-4.228 1.428-4.648 3.528h2.072c.392-1.148 1.232-1.708 2.548-1.708 1.792 0 2.744 1.12 2.744 2.66v1.568c-.532-.476-1.848-1.008-3.136-1.008-2.66 0-4.76 1.568-4.76 3.892 0 2.464 2.1 3.976 4.62 3.976 1.484 0 2.8-.644 3.276-1.148V27h2.016zm-2.016-3.08c-.364.924-1.624 1.54-2.912 1.54-1.512 0-2.968-.7-2.968-2.212 0-1.484 1.456-2.156 2.968-2.156 1.288 0 2.548.616 2.912 1.54v1.288zm4.704-3.136c0 3.864 2.324 6.468 5.656 6.468 2.8 0 4.564-1.624 4.984-4.004h-2.156c-.28 1.344-1.344 2.156-2.828 2.156-2.128 0-3.528-1.904-3.528-4.62s1.4-4.62 3.528-4.62c1.484 0 2.548.812 2.828 2.156h2.156c-.42-2.38-2.184-4.004-4.984-4.004-3.332 0-5.656 2.604-5.656 6.468zm13.972 3.08c0 2.296 1.4 3.388 3.416 3.388.756 0 1.484-.168 1.96-.42v-1.96c-.42.28-1.036.504-1.624.504-1.064 0-1.652-.532-1.652-1.736v-7.28h2.996v-1.792h-2.996v-3.276h-2.1v3.276h-2.016v1.792h2.016v7.504zm10.388-9.296h-2.1V27h2.1V14.568zm.308-3.752c0-.756-.616-1.344-1.372-1.344-.728 0-1.344.588-1.344 1.344 0 .728.616 1.344 1.344 1.344.756 0 1.372-.616 1.372-1.344zM98.208 27l4.844-12.432h-2.212l-3.612 9.772-3.64-9.772H91.32L96.136 27h2.072zm15.064-3.724c-.336 1.4-1.484 2.184-3.024 2.184-2.1 0-3.584-1.624-3.612-4.284h8.792v-.756c0-3.612-1.82-6.104-5.236-6.104-3.388 0-5.656 2.772-5.656 6.496 0 3.836 2.324 6.44 5.712 6.44 2.8 0 4.564-1.624 5.012-3.976h-1.988zm-3.052-7.168c2.072 0 3.052 1.624 3.08 3.472h-6.608c.308-2.184 1.652-3.472 3.528-3.472zm7.028 9.52c0 .868.672 1.512 1.512 1.512.812 0 1.484-.644 1.484-1.512s-.672-1.54-1.484-1.54c-.84 0-1.512.672-1.512 1.54zm4.872-4.844c0 3.864 2.324 6.468 5.656 6.468 2.8 0 4.564-1.624 4.984-4.004h-2.156c-.28 1.344-1.344 2.156-2.828 2.156-2.128 0-3.528-1.904-3.528-4.62s1.4-4.62 3.528-4.62c1.484 0 2.548.812 2.828 2.156h2.156c-.42-2.38-2.184-4.004-4.984-4.004-3.332 0-5.656 2.604-5.656 6.468zm23.912 0c0-3.808-2.324-6.468-5.712-6.468-3.416 0-5.712 2.66-5.712 6.468s2.296 6.468 5.712 6.468c3.388 0 5.712-2.66 5.712-6.468zm-2.128 0c0 2.716-1.344 4.62-3.584 4.62s-3.584-1.904-3.584-4.62 1.344-4.62 3.584-4.62 3.584 1.904 3.584 4.62zM150.988 8.8h-2.1V27h2.1V8.8zm5.852 0h-2.1V27h2.1V8.8zM169.608 27v-8.288c0-2.716-1.764-4.396-4.732-4.396-2.38 0-4.228 1.428-4.648 3.528h2.072c.392-1.148 1.232-1.708 2.548-1.708 1.792 0 2.744 1.12 2.744 2.66v1.568c-.532-.476-1.848-1.008-3.136-1.008-2.66 0-4.76 1.568-4.76 3.892 0 2.464 2.1 3.976 4.62 3.976 1.484 0 2.8-.644 3.276-1.148V27h2.016zm-2.016-3.08c-.364.924-1.624 1.54-2.912 1.54-1.512 0-2.968-.7-2.968-2.212 0-1.484 1.456-2.156 2.968-2.156 1.288 0 2.548.616 2.912 1.54v1.288zm7.7 1.624c.616.896 1.96 1.708 3.5 1.708 3.64 0 5.6-2.94 5.6-6.468 0-3.5-1.96-6.468-5.6-6.468-1.54 0-2.884.812-3.5 1.708V8.8h-2.128V27h2.128v-1.456zm0-7.28c.644-1.288 1.876-2.044 3.192-2.044 2.38 0 3.78 1.932 3.78 4.564s-1.4 4.564-3.78 4.564c-1.316 0-2.548-.756-3.192-2.044v-5.04z" fill="#202528"/></g></svg>