<?xml version="1.0" encoding="UTF-8" standalone="no"?>
<!DOCTYPE svg PUBLIC "-//W3C//DTD SVG 1.1//EN" "http://www.w3.org/Graphics/SVG/1.1/DTD/svg11.dtd">
<svg width="100%" height="100%" viewBox="0 0 286 287" version="1.1" xmlns="http://www.w3.org/2000/svg" xmlns:xlink="http://www.w3.org/1999/xlink" xml:space="preserve" style="fill-rule:evenodd;clip-rule:evenodd;stroke-linejoin:round;stroke-miterlimit:1.41421;">
    <g transform="matrix(1,0,0,1,-1192.95,-1001.45)">
        <g transform="matrix(2.0448,0,0,2.0448,2052.86,1144.59)">
            <g transform="matrix(1,0,0,1,-560,-70)">
                <g id="ac.-customers.-new">
                    <g id="Group.-3" transform="matrix(1,0,0,1,138,47)">
                        <g id="path22" transform="matrix(1,0,0,-1,0,49.8261)">
                            <path d="M26.337,27.037C26.167,27.215 26.048,27.656 26.016,27.724C25.646,27.439 26.016,26.911 26.337,27.037ZM26.636,27.122C27.024,27.272 26.86,28.017 26.344,27.909C26.375,27.849 26.61,27.391 26.636,27.122ZM26.195,28.068C26.57,28.144 27.021,27.764 27.455,27.563C27.047,26.969 26.09,26.923 25.706,26.711C25.62,26.843 25.331,27.899 26.195,28.068ZM22.836,27.693C22.809,27.629 22.689,27.198 22.525,27.021C22.836,26.899 23.203,27.415 22.836,27.693ZM22.518,27.874C22.014,27.979 21.853,27.252 22.233,27.105C22.257,27.37 22.488,27.815 22.518,27.874ZM23.132,26.705C22.759,26.911 21.831,26.956 21.433,27.533C21.857,27.728 22.296,28.099 22.663,28.023C23.499,27.858 23.218,26.836 23.132,26.705ZM20.748,33.277C19.446,30.828 23.943,31.941 23.359,29.857C24.381,32.293 20.29,31.027 20.748,33.277ZM19.957,35.796C19.718,36.606 18.39,36.245 18.659,35.921C18.786,35.769 19.304,36.221 19.957,35.796ZM19.384,32.953C19.441,33.724 19.933,34.404 19.926,35.189C19.918,36.342 18.594,35.252 18.393,35.737C17.863,37.025 21.776,37.674 21.73,35.394C21.704,34.194 21.372,32.867 22.311,32.729L23.023,35.636L23.771,31.465C23.089,32.323 21.741,31.969 21.438,33.343C21.217,34.341 22.467,36.846 19.711,36.662C22.901,35.691 17.935,32.987 20.885,31.259C21.674,30.795 21.952,29.972 21.598,29.617C21.551,30.788 20.387,30.934 19.96,31.431C19.579,31.876 19.421,32.275 19.385,32.651L18.286,33.174L19.384,32.953ZM23.122,28.724C22.681,28.727 22.171,28.235 22.078,28.554C22.009,28.801 22.461,29.212 23.053,29.254C22.553,29.394 21.726,28.93 21.577,28.425C21.419,28.41 21.143,28.615 21.143,28.615C21.28,27.455 22.362,28.474 22.774,28.474C23.143,28.474 24.302,27.638 24.325,28.677C23.918,28.203 23.632,28.724 23.122,28.724ZM25.337,28.18C25.924,28.18 26.011,28.454 26.457,28.454C26.9,28.454 27.063,28.162 27.42,28.162C27.774,28.162 27.99,28.418 27.826,28.642C27.597,28.265 27.186,28.776 26.885,28.776C26.422,28.776 26.225,28.586 25.924,28.436C25.587,28.265 25.263,28.428 25.39,28.626C25.128,28.629 24.963,28.948 25.407,29.324C24.623,29.238 24.748,28.18 25.337,28.18ZM25.961,24.026C25.939,23.968 25.767,23.899 25.418,23.767C25.371,23.689 25.263,23.559 25.156,23.496C25.572,23.38 26.035,23.801 25.961,24.026ZM25.554,22.551C26.259,21.303 24.854,20.881 25.286,18.951C25.581,17.643 26.241,17.763 26.299,16.795C26.363,15.829 25.776,15.164 26.204,14.522C26.626,13.885 27.463,13.602 27.194,12.787C27.63,13.588 26.8,14.221 26.583,15.1C26.419,15.775 27.439,16.376 27.149,17.255C27.029,17.615 26.887,17.841 26.648,18.321L26.148,19.33C25.543,20.608 26.753,21.527 25.554,22.551ZM23.074,15.724C23.969,16.843 23.395,16.294 23.717,17.802C23.916,18.733 24.199,18.702 24.5,19.463C24.761,20.126 24.634,21.6 23.604,22.306C24.159,21.348 24.125,20.676 23.894,19.881C23.664,19.09 23.338,19.007 22.989,18.108C22.728,17.431 22.863,16.762 22.863,16.762L23.074,15.724ZM22.445,15.247C22.445,16.228 22.145,16.163 22.145,17.352C22.145,18.649 23.253,18.998 23.346,20.019C23.474,21.395 22.108,21.433 22.546,23.361C21.966,20.812 22.789,21.014 22.789,20.103C22.789,19.192 21.339,19.079 21.339,17.481C21.339,16.54 21.918,16.279 21.918,15.276C21.918,14.272 21.267,13.998 21.267,13.998C21.511,13.971 22.445,14.154 22.445,15.247ZM22.75,24.407C22.771,24.239 23.508,23.958 23.508,23.958C23.508,23.958 23.327,23.818 22.947,23.955C23.143,23.618 23.627,23.622 23.627,23.622C23.627,23.622 23.591,23.423 23.06,23.565C23.189,23.188 23.753,23.096 23.933,23.15C24.125,23.208 24.347,23.811 24.261,23.996C24.261,23.996 23.486,24.362 22.75,24.407ZM23.087,24.96C23.108,24.528 23.736,24.41 23.993,24.446C23.204,24.626 23.249,25.064 23.52,25.154C23.533,25.331 23.073,25.3 23.087,24.96ZM23.5,22.893C23.411,22.893 23.392,22.862 23.392,22.845C23.386,22.813 23.433,22.773 23.499,22.755C23.504,22.754 24.125,22.608 24.493,22.627C24.858,22.608 25.48,22.754 25.486,22.755C25.552,22.773 25.597,22.813 25.594,22.845C25.591,22.862 25.572,22.893 25.481,22.893C25.465,22.893 24.828,22.875 24.493,22.875C24.156,22.875 23.52,22.893 23.5,22.893ZM20.146,21.703C20.106,22.872 20.841,24.379 21.156,24.547C18.851,23.314 19.853,21.256 19.204,20.072C18.203,18.253 16.44,19.249 15.853,18.147C15.488,17.464 16.466,17.431 16.466,15.961C16.466,16.317 16.34,17.175 17.009,17.537L16.703,17.508C16.607,17.854 16.258,17.745 16.258,17.745C16.611,18.341 17.985,17.929 19.923,19.578C21.638,21.036 21.524,23.352 22.01,24.231L21.547,23.767C20.863,23.033 20.836,21.836 19.971,20.449C20.136,20.714 20.169,21.077 20.146,21.703ZM16.03,16.608C15.927,15.967 15.642,16.116 15.592,16.143C15.543,16.17 15.522,16.241 15.561,16.289C15.605,16.343 15.612,16.416 15.55,16.467C15.487,16.519 15.026,16.384 15.111,15.929C15.151,15.705 15.376,15.476 15.727,15.52C16.073,15.563 16.408,15.874 16.03,16.608ZM19.577,23.847C19.185,23.225 18.524,22.645 17.695,22.834C16.866,23.026 15.593,23.297 15.219,22.054C16.181,23.122 18.056,20.579 19.577,23.847ZM13.848,21.487C14.315,21.134 14.94,21.71 14.645,22.287C13.535,21.676 13.166,22.997 12.451,22.13C12.72,22.204 12.992,22.049 13.464,21.695L13.848,21.487ZM18.301,23.847C19.108,23.895 19.734,24.14 19.774,24.741C19.579,24.518 19.105,24.214 18.273,24.163C17.447,24.112 16.086,25.128 15.565,23.631C16.739,24.282 17.831,22.834 18.62,23.53L18.301,23.847ZM18.182,25.942C17.035,25.728 15.376,27.221 15.066,27.582C14.879,27.8 14.702,28.018 14.343,28.07C14.322,28.075 14.327,28.045 14.331,28.008C14.335,27.957 14.343,27.882 14.312,27.867C14.292,27.855 14.24,27.865 14.113,27.975C13.984,28.088 13.785,28.141 13.558,28.122C13.36,28.107 13.158,28.038 13.026,27.939C12.892,27.84 12.846,27.73 12.892,27.629C12.961,27.471 13.184,27.591 13.439,27.609C13.645,27.621 13.879,27.524 14.087,27.457C14.253,27.407 14.369,27.223 14.537,27.04C15.381,26.125 17.044,25.466 18.182,25.942ZM12.358,26.626C12.358,26.626 13.378,27.599 14.251,26.729C13.536,27.44 12.66,27.617 12.358,26.626ZM16.92,31.403C15.114,31.711 15.557,32.737 15.882,33.3C14.799,33.384 14.743,30.923 16.92,31.403ZM32.448,25.526C32.864,25.497 34.16,26.998 33.713,27.176C33.27,27.357 33.302,25.854 32.448,25.526ZM25.771,24.375C25.645,24.284 25.34,24.196 25.102,24.038C25.077,23.996 25.037,23.852 24.985,23.817C25.228,23.766 25.752,24.117 25.771,24.375ZM20.437,28.666C18.399,28.331 19.57,30.784 17.999,30.889C18.862,30.477 18.502,29.94 18.634,29.087C18.793,28.059 20.076,27.928 20.437,28.666ZM27.718,26.528C27.769,26.227 28.302,26.855 29.322,26.419C28.973,26.925 27.641,26.975 27.718,26.528ZM30.747,30.075C31.241,30.202 31.546,29.769 31.93,29.883C32.145,29.945 32.15,30.188 31.979,30.251C31.979,30.251 32.631,30.923 32.413,31.299C31.877,30.212 30.851,30.251 30.747,30.075ZM29.079,32.203C29.629,33.007 30.134,32.869 30.395,33.724C30.026,33.043 29.081,32.901 28.702,32.34C28.041,31.36 28.924,29.94 27.536,29.53C29.285,29.485 28.447,31.504 29.079,32.203ZM27.487,31.334C27.249,30.691 26.586,30.511 26.264,29.949C26.444,29.945 27.383,30.308 27.739,30.906C28.081,31.485 27.766,33.029 28.867,33.442C30.015,33.874 31.218,34.51 29.86,35.894C31.944,35.366 30.772,33.15 30.525,32.825C30.291,32.524 29.523,31.918 29.523,30.942C29.523,30.222 28.873,29.399 28.367,29.299C28.902,29.084 29.699,30.304 29.699,30.304L32.299,33.652L30.803,32.882C30.803,32.882 31.213,33.235 31.213,34.404C31.213,36.056 29.432,36.353 29.45,35.839C29.463,35.499 30.056,35.258 30.073,34.695C30.091,34.133 29.3,33.815 28.683,33.636L28.408,34.56L28.408,33.521C27.398,33.001 27.739,32.011 27.487,31.334ZM28.204,27.267C28.309,27.036 28.74,27.549 29.39,27.352C29.077,27.565 28.147,27.563 28.204,27.267ZM25.305,34.462C25.935,32.427 24.471,32.43 24.475,31.426C24.218,32.602 25.635,33.369 25.305,34.462ZM25.316,30.277C24.289,29.811 24.502,31.028 24.784,31.343C24.784,31.343 25.273,30.659 25.96,30.374C25.044,31.887 26.078,31.849 25.908,33.837C25.822,34.841 25.286,35.173 25.301,36.095C25.32,37.204 26.958,37.496 26.975,37.067C26.987,36.763 25.783,36.729 25.764,35.583C25.748,34.509 26.951,34.25 26.923,33.207C26.904,32.525 25.675,31.894 26.442,30.611L28.186,35.518L26.85,34.012C26.422,34.543 26.084,34.594 26.084,35.548C26.084,36.506 27.154,36.642 27.154,37.087C27.154,37.445 26.618,37.496 26.228,37.515C25.623,37.541 24.554,37.02 24.554,35.909C24.554,34.797 25.307,34.234 24.559,33.193L23.912,34.165L24.392,32.92C24.392,32.92 23.954,32.411 23.954,31.504C23.954,29.726 25.418,29.562 25.316,30.277ZM34.64,17.656L34.384,17.918C34.739,17.848 35.17,18.129 35.427,18.282C34.946,17.998 34.322,18.169 33.892,18.512L34.122,18.145C32.979,18.448 33.105,20.291 32.427,20.883C31.845,21.394 31.187,21.116 30.304,21.794C29.432,22.463 29.071,24.231 27.455,25.321C29.653,25.943 30.374,21.972 32.479,21.972C33.528,21.972 34.083,22.857 35.029,23.006C35.692,23.109 36.417,23.051 36.531,22.454C36.648,21.826 36.414,21.332 36.414,21.332C36.414,21.332 36.734,21.673 36.734,22.282C36.734,23.481 35.533,23.467 35.125,23.434C34.195,23.358 33.97,22.76 32.81,23.027C31.333,23.368 31.04,25.933 29.321,26.093C30.218,26.84 31.078,25.489 31.89,25.5C32.479,25.51 32.677,25.986 33.064,26.937C33.511,28.035 34.134,27.139 34.63,26.676C35.132,26.218 35.865,26.393 36.293,26.766C36.178,26.412 35.783,26.419 35.937,26.185C36.005,26.081 36.108,26.13 36.22,26.229C36.782,26.749 36.916,28.115 36.31,28.442C36.773,26.272 34.856,26.781 34.909,27.072C35.265,26.952 35.869,27.311 35.62,27.311C33.951,27.311 34.206,28.118 33.295,28.033C33.295,28.033 32.536,28.068 32.081,26.848C31.789,26.067 31.006,27.151 30.08,26.848C30.701,27.669 31.167,26.981 31.676,27.323C32.186,27.669 32.776,28.736 33.985,28.202L34.63,28.767L34.2,28.063C35.456,27.237 36.184,27.315 36.062,28.869C37.686,27.922 36.791,25.743 35.561,25.758C34.834,25.765 34.586,26.133 34.168,26.295C33.872,26.406 33.636,26.18 33.359,25.889L34.525,25.431L33.111,25.636C32.682,25.214 32.043,24.842 31.142,25.245L31.319,24.913L36.288,24.913L32.887,23.399C33.796,23.211 34.915,24.326 36.199,23.554C37.436,22.812 36.877,21.123 36.36,21.126C35.898,21.132 36.782,22.645 35.519,22.613C35.055,22.602 34.684,22.222 34.233,21.865L34.648,20.836L33.966,21.669C33.599,21.406 33.207,21.207 32.762,21.265L35.112,19.878L33.511,19.878C33.492,19.486 33.528,19.212 33.687,18.872L33.849,18.939C33.973,18.681 34.696,18.249 35.712,18.422C35.334,16.962 33.219,17.373 32.816,17.783L32.838,17.257C31.912,19.537 31.201,19.673 29.823,19.673L33.028,16.437L32.263,16.598C32.494,15.69 31.406,14.107 30.627,14.017C30.323,13.983 31.177,14.616 31.177,15.52C31.177,16.429 30.165,16.705 29.735,17.059C28.95,17.71 28.632,19.036 28.328,19.548C28.88,19.26 29.534,18.187 30.013,17.64C30.496,17.095 31.516,16.693 31.516,15.838C31.516,14.985 31.197,14.686 31.159,14.582C31.479,14.582 32.479,16.331 31.533,17.167C31.065,17.585 30.767,17.848 30.286,18.246C29.652,18.772 29.055,19.469 28.639,20.083C27.752,21.385 26.337,22.316 27.002,23.37C25.975,21.742 27.851,20.517 28.065,19.241C28.281,17.965 28.969,16.598 29.704,16.416C29.575,16.38 29.454,16.367 29.339,16.367L29.131,16.386C27.94,16.615 26.944,20.521 26.944,19.962C26.944,18.938 28.731,14.274 28.731,14.274L27.108,15.306C26.846,14.238 28.018,14.188 27.906,13.219C27.774,12.122 26.5,12.224 26.525,12.474C26.54,12.632 27.028,12.466 27.028,12.726C27.028,12.979 26.24,13.134 25.908,13.522C25.703,13.761 25.526,13.955 25.455,14.867L24.959,14.212C24.959,14.212 25.56,15.778 25.647,16.188C25.729,16.59 24.789,16.638 24.513,17.44L24.327,13.453L23.126,15.081C22.898,13.293 20.374,13.414 20.212,13.599C22.046,14.956 21.159,15.566 20.703,16.721L19.734,16.143L20.577,17.097C20.522,17.309 20.504,17.582 20.524,17.837C20.628,19.249 22.684,19.121 21.45,20.517L18.126,15.186L18.547,18.055C16.576,17.35 17.259,17.249 16.695,15.961C16.235,14.91 15.296,15.194 15.014,15.642C14.597,16.29 15.105,16.78 15.65,16.755C15.978,17.026 15.032,17.448 15.411,18.301C15.963,19.545 17.519,19.005 18.309,20.04L16.364,19.834L18.536,20.436C18.69,20.792 18.782,21.274 18.786,21.93L14.654,19.653L15.912,21.724C13.604,19.819 13.048,22.209 11.948,22.02C12.232,23.297 13.302,22.568 13.774,22.568C14.249,22.568 14.938,23.411 15.179,23.596L12.708,24.913L18.867,24.913C19.33,24.913 19.59,25.072 19.365,25.335C19.073,25.686 17.935,25.271 16.647,25.175C15.863,25.12 15.391,25.421 15.003,25.778L13.919,25.449L14.837,25.936C14.205,26.563 13.722,27.206 12.232,26.304C11.77,27.501 12.883,28.523 13.883,28.549C15.305,28.586 15.582,26.919 16.683,27.501L14.797,29.69L17.858,28.185L17.467,29.345L16.149,29.69L17.432,29.585C17.075,30.78 15.731,30.568 15.18,31.151C13.986,32.419 15.278,34.039 16.256,33.586C15.582,32.148 16.826,31.534 17.858,31.738L17.359,33.413L21.312,29.414C20.406,28.73 19.398,29.335 18.9,30.817C18.421,32.235 17.447,30.636 15.949,31.187C16.741,30.895 17.772,31.318 17.985,29.608C18.124,28.492 18.679,27.471 19.892,27.748C19.421,27.045 18.291,27.919 17.575,26.902C18.822,27.04 19.274,26.001 20.137,25.408C19.071,26.144 19.841,26.907 18.526,27.079C19.003,27.017 19.373,26.971 19.835,27.124C20.313,27.28 20.548,27.603 20.514,28.075C21.01,27.877 21.055,27.407 20.826,27.102C20.595,26.796 20.135,26.626 20.122,26.364C20.122,26.364 20.136,26.412 20.454,26.565C20.215,26.246 20.37,25.81 20.633,25.526C20.619,25.716 20.62,26.012 20.731,26.067C20.931,25.606 21.381,25.362 21.672,25.431C21.143,25.991 21.508,26.468 21.508,26.468C21.277,26.473 21.043,26.143 21.043,26.143C21.043,26.143 20.885,26.67 21.441,26.893C21.397,26.971 21.434,27.063 21.434,27.063C21.887,26.604 22.693,26.627 22.918,26.477C22.918,26.477 21.741,26.644 21.882,25.999C22.014,25.394 23.849,25.797 23.617,27.65C23.617,27.65 23.935,27.683 24.052,27.567C24.171,27.456 24.028,27.114 24.028,27.114L24.262,27.007C24.262,27.007 24.014,26.081 24.071,25.902C24.105,25.8 24.523,25.792 24.589,25.79C24.68,25.783 24.623,25.694 24.584,25.694L23.923,25.694C23.827,25.687 23.536,25.342 23.811,25.28C23.811,25.28 24.152,25.194 24.498,25.194C24.845,25.194 25.184,25.28 25.184,25.28C25.184,25.28 25.128,25.005 24.491,25.005C23.856,25.005 23.604,25.114 23.604,25.114C23.457,24.717 24.296,24.317 24.381,24.29C24.468,24.263 24.603,24.272 24.632,24.291C24.66,24.312 25.242,24.773 25.242,24.773L25.066,24.491C25.847,24.672 25.731,25.064 25.462,25.154C25.451,25.331 25.91,25.3 25.895,24.96C25.877,24.528 24.769,24.287 24.632,23.996C24.543,23.811 24.769,23.208 24.959,23.15C25.14,23.096 25.572,23.102 25.789,23.221C25.855,23.256 26.444,24.36 26.444,24.632C26.444,24.904 25.837,26.238 25.837,26.238C25.953,26.582 26.471,26.493 26.945,26.796C26.174,25.998 26.697,25.895 27.262,25.87C26.834,25.509 26.536,25.274 26.706,24.717C29.196,24.171 28.701,21.289 30.504,20.676C29.071,20.46 27.913,22.274 27.78,23.104C27.726,22.218 28.05,21.431 28.73,20.717C29.321,20.101 30.346,20.197 31.178,20.194C32.656,20.18 32.155,18.28 33.391,17.851C33.391,17.851 33.834,17.656 34.64,17.656ZM32.979,30.049C33.21,28.579 30.134,29.13 29.768,27.939C30.359,29.86 32.674,28.637 32.979,30.049ZM30.199,27.323C30.513,28.233 31.924,28.211 32.527,28.611C32.95,28.89 33.36,29.175 33.379,30.509C33.395,31.652 33.932,31.953 34.252,32.055C34.252,32.382 33.759,32.162 33.349,31.826C33.939,33.291 35.191,32.063 35.191,32.063C34.45,33.346 33.404,32.751 33.023,32.118C32.643,31.479 32.925,30.037 32.142,29.681C31.362,29.321 30.949,29.979 30.402,29.822C29.602,29.592 29.582,28.535 28.779,28.878C29.393,29.27 29.366,29.64 29.776,30.087C30.631,31.021 32.032,29.996 32.342,32.639L32.483,32.138C33.961,34.125 35.665,32.384 35.415,31.842C33.367,32.217 33.796,30.593 33.599,29.5L35.094,29.5L30.199,27.323Z" style="fill:rgb(154,162,171);"/>
                        </g>
                        <g id="path26" transform="matrix(1,0,0,-1,0,49.2355)">
                            <path d="M114.165,35.361C115.257,35.361 116.036,34.582 116.036,33.516C116.036,32.45 115.257,31.671 114.165,31.671C113.073,31.671 112.294,32.45 112.294,33.516C112.294,34.582 113.073,35.361 114.165,35.361ZM112.424,29.851L115.88,29.851L115.88,17.896L112.424,17.896L112.424,29.851ZM97.526,35.361C98.618,35.361 99.398,34.582 99.398,33.516C99.398,32.45 98.618,31.671 97.526,31.671C96.435,31.671 95.655,32.45 95.655,33.516C95.655,34.582 96.435,35.361 97.526,35.361ZM95.785,29.851L99.242,29.851L99.242,17.896L95.785,17.896L95.785,29.851ZM81.635,18.369C84.027,18.369 84.443,21.618 84.443,24.372C84.443,27.44 83.533,29.571 81.818,29.571C80.7,29.571 79.66,28.686 79.478,26.972L79.478,20.682C79.478,19.513 80.466,18.369 81.635,18.369ZM82.312,17.641C80.934,17.641 79.972,18.265 79.478,19.07L79.478,17.901L76.021,17.901L76.021,36.873L79.478,36.873L79.478,28.764C79.999,29.675 81.168,30.246 82.675,30.246C85.872,30.246 88.029,28.038 88.029,24.425C88.029,20.292 85.742,17.641 82.312,17.641ZM89.849,17.901L93.305,17.901L93.305,36.873L89.849,36.873L89.849,17.901ZM70.119,17.901L73.576,17.901L73.576,29.856L70.119,29.856L70.119,21.072C70.119,19.772 68.846,18.629 67.572,18.629C66.246,18.629 65.518,19.538 65.518,21.384C65.518,23.436 67.001,29.856 67.001,29.856L63.545,29.856C63.545,29.856 62.089,23.436 62.089,21.488C62.089,19.149 63.752,17.642 66.222,17.642C68.145,17.642 69.496,18.524 70.119,19.59L70.119,17.901ZM53.435,17.636C57.723,17.636 60.66,20.703 60.66,25.121C60.66,30.346 56.32,34.036 51.537,34.036C46.34,34.036 42.571,30.372 42.571,25.252C42.571,23.355 43.065,21.612 43.975,20.105L44.494,20.366C43.87,21.509 43.454,23.147 43.454,24.654C43.454,28.994 46.574,31.437 50.498,31.437C54.37,31.437 57.281,28.734 57.281,24.706C57.281,20.989 55.228,18.312 51.928,18.312L51.928,27.455L48.471,27.458L48.471,12.362L51.928,12.362L51.928,17.714C52.395,17.662 52.863,17.636 53.435,17.636ZM107.259,30.242C103.361,30.242 101.204,27.486 101.204,23.952C101.204,20.054 103.413,17.636 107.285,17.636C109.676,17.636 110.742,18.754 110.742,18.754L110.326,19.144C110.326,19.144 109.39,18.417 108.142,18.417C105.726,18.417 104.92,20.936 104.92,23.978C104.92,27.486 105.751,29.514 107.909,29.514C109.131,29.514 109.936,28.916 109.936,28.916L110.353,29.357C110.353,29.357 109.338,30.242 107.259,30.242ZM122.801,34.608C124.932,34.608 126.076,33.62 126.076,33.62L125.608,33.23C125.608,33.23 124.725,33.984 123.087,33.984C121.891,33.984 121.06,33.153 121.06,31.983C121.06,30.501 122.489,29.15 124.178,27.409C125.66,25.875 127.245,24.134 127.245,22.029C127.245,19.3 124.802,17.636 121.71,17.636C120.216,17.636 119.155,18.005 118.21,18.791L118.625,19.284C119.3,18.686 120.332,18.26 121.58,18.26C123.138,18.26 124.309,19.065 124.309,20.417C124.309,21.847 122.749,23.51 121.241,25.069C119.526,26.862 117.862,28.682 117.862,30.657C117.862,33.074 119.864,34.608 122.801,34.608Z" style="fill:rgb(154,162,171);"/>
                        </g>
                    </g>
                </g>
            </g>
        </g>
    </g>
</svg>
