<?xml version="1.0" encoding="UTF-8" standalone="no"?>
<!DOCTYPE svg PUBLIC "-//W3C//DTD SVG 1.1//EN" "http://www.w3.org/Graphics/SVG/1.1/DTD/svg11.dtd">
<svg width="100%" height="100%" viewBox="0 0 281 287" version="1.1" xmlns="http://www.w3.org/2000/svg" xmlns:xlink="http://www.w3.org/1999/xlink" xml:space="preserve" style="fill-rule:evenodd;clip-rule:evenodd;stroke-linejoin:round;stroke-miterlimit:1.41421;">
    <g transform="matrix(1,0,0,1,-1126.52,-572.044)">
        <g transform="matrix(2.0448,0,0,2.0448,1699.47,715.18)">
            <g transform="matrix(1,0,0,1,-560,-70)">
                <g id="ac.-customers.-new">
                    <g id="g12" transform="matrix(1,0,0,-1,295.122,86.7465)">
                        <path id="path14" d="M50.244,22.909C51.22,22.484 51.291,22.165 50.528,20.711C49.748,19.221 49.553,19.132 48.595,19.523C47.39,20.037 45.847,20.427 44.854,20.427C43.222,20.427 42.141,19.842 42.141,18.955C42.141,16.029 51.486,17.607 51.486,11.365C51.486,8.227 48.79,6.134 44.748,6.134C42.619,6.134 39.995,6.844 38.186,7.766C37.282,8.227 37.229,8.493 38.009,9.982C38.683,11.295 38.896,11.436 39.871,11.029C41.414,10.355 43.364,9.84 44.677,9.84C46.166,9.84 47.159,10.443 47.159,11.33C47.159,14.167 37.654,12.82 37.654,18.866C37.654,22.076 40.332,24.222 44.34,24.222C46.219,24.222 48.595,23.654 50.244,22.909" style="fill:rgb(154,162,171);"/>
                        <path id="path16" d="M57.781,30.322L57.781,7.056C57.781,6.702 57.409,6.329 56.877,6.329L54.43,6.329C53.898,6.329 53.526,6.702 53.526,7.056L53.526,30.322C53.526,31.474 53.845,31.581 55.654,31.581C57.711,31.581 57.781,31.439 57.781,30.322" style="fill:rgb(154,162,171);"/>
                        <path id="path18" d="M63.899,11.436C63.899,10.248 64.91,9.45 66.435,9.45C68.279,9.45 69.946,10.337 70.921,11.844L70.921,13.405C69.946,13.777 68.758,13.99 67.694,13.99C65.424,13.99 63.899,12.908 63.899,11.436ZM75.177,17.235L75.177,7.216C75.177,6.684 74.805,6.312 74.273,6.312L71.861,6.312C71.311,6.312 70.921,6.72 70.957,7.269L70.992,8.351C69.68,6.897 67.8,6.134 65.921,6.134C62.268,6.134 59.821,8.245 59.821,11.401C59.821,14.752 62.587,17.004 66.737,17.022C68.315,17.022 69.751,16.738 70.921,16.26L70.921,17.412C70.921,19.257 69.467,20.356 67.002,20.356C65.85,20.356 64.431,19.895 63.296,19.239C62.427,18.742 62.215,18.778 61.275,20.179C60.353,21.579 60.388,21.845 61.275,22.413C62.977,23.512 65.282,24.222 67.41,24.222C72.18,24.222 75.177,21.633 75.177,17.235Z" style="fill:rgb(154,162,171);"/>
                        <path id="path20" d="M91.776,22.874C92.662,22.36 92.698,22.076 91.723,20.569C90.8,19.15 90.641,19.061 89.666,19.558C88.921,19.948 87.733,20.285 86.757,20.285C83.69,20.285 81.65,18.264 81.65,15.213C81.65,12.039 83.69,9.911 86.757,9.911C87.822,9.911 89.151,10.319 90.02,10.798C90.907,11.312 91.102,11.277 92.042,9.911C92.893,8.635 92.875,8.333 92.113,7.801C90.747,6.861 88.584,6.134 86.687,6.134C81.012,6.134 77.217,9.769 77.217,15.213C77.217,20.622 81.012,24.222 86.722,24.222C88.46,24.222 90.499,23.636 91.776,22.874" style="fill:rgb(154,162,171);"/>
                        <path id="path22" d="M110.289,8.528C110.999,7.624 110.715,7.305 108.941,6.666C107.133,6.01 106.884,6.046 106.246,6.879L101.175,13.653L98.905,11.454L98.905,7.056C98.905,6.702 98.533,6.329 98.001,6.329L95.553,6.329C95.021,6.329 94.649,6.702 94.649,7.056L94.649,30.322C94.649,31.474 94.968,31.581 96.777,31.581C98.834,31.581 98.905,31.439 98.905,30.322L98.905,17.093L105.856,23.761C106.619,24.488 107.044,24.434 108.41,23.53C109.917,22.555 110.023,22.289 109.296,21.579L104.118,16.543L110.289,8.528" style="fill:rgb(154,162,171);"/>
                        <path id="path24" d="M12.849,16.915L14.193,12.901L18.364,14.297L17.019,18.312L12.849,16.915" style="fill:white;"/>
                        <path id="path26" d="M12.849,16.915L14.193,12.901L18.364,14.297L17.019,18.312L12.849,16.915" style="fill:rgb(154,162,171);"/>
                        <path id="path28" d="M24.481,12.934L22.459,12.257L23.16,10.164C23.444,9.317 22.987,8.4 22.14,8.116C21.956,8.055 21.768,8.028 21.584,8.033C20.924,8.05 20.314,8.474 20.092,9.137L19.391,11.229L15.221,9.833L15.922,7.74C16.206,6.893 15.749,5.976 14.902,5.692C14.717,5.63 14.53,5.604 14.346,5.608C13.685,5.626 13.076,6.05 12.854,6.712L12.153,8.805L10.13,8.128C9.946,8.066 9.758,8.039 9.575,8.044C8.914,8.061 8.304,8.485 8.082,9.148C7.799,9.995 8.255,10.912 9.103,11.196L11.125,11.873L9.781,15.887L7.758,15.21C7.574,15.148 7.386,15.122 7.203,15.126C6.542,15.144 5.932,15.568 5.71,16.23C5.427,17.078 5.884,17.995 6.731,18.278L8.753,18.956L8.052,21.048C7.768,21.895 8.225,22.812 9.072,23.096C9.92,23.38 10.837,22.923 11.12,22.076L11.821,19.983L15.991,21.38L15.291,23.472C15.007,24.32 15.464,25.237 16.311,25.52C17.158,25.804 18.075,25.347 18.359,24.5L19.06,22.407L21.082,23.085C21.93,23.368 22.846,22.912 23.13,22.064C23.414,21.217 22.957,20.3 22.109,20.016L20.087,19.339L21.432,15.325L23.454,16.002C24.301,16.286 25.218,15.829 25.502,14.982C25.786,14.135 25.329,13.218 24.481,12.934ZM29.906,19.896C26.688,30.621 22.041,33.124 11.316,29.906C0.591,26.688 -1.911,22.041 1.306,11.316C4.524,0.591 9.171,-1.911 19.896,1.306C30.621,4.524 33.124,9.172 29.906,19.896Z" style="fill:rgb(154,162,171);"/>
                    </g>
                </g>
            </g>
        </g>
    </g>
</svg>
