<svg width="35" height="35" viewBox="0 0 35 35" xmlns="http://www.w3.org/2000/svg"><title>twitter</title><path d="M0 16.952C0 4.857 2.73.5 17.5.5S35 4.875 35 16.952C35 27.388 32.292 34.5 17.5 34.5S0 27.407 0 16.952zm24.21-4.955a3.956 3.956 0 0 0 1.657-2.205 7.3 7.3 0 0 1-2.394.967A3.666 3.666 0 0 0 20.72 9.5c-2.08 0-3.767 1.785-3.767 3.987 0 .312.03.617.096.908-3.133-.167-5.91-1.752-7.77-4.166a4.154 4.154 0 0 0-.51 2.004c0 1.383.664 2.603 1.676 3.32a3.628 3.628 0 0 1-1.708-.5v.05c0 1.932 1.298 3.544 3.025 3.91a3.5 3.5 0 0 1-.994.14c-.244 0-.48-.025-.71-.07.48 1.582 1.87 2.736 3.52 2.767A7.306 7.306 0 0 1 8 23.504a10.26 10.26 0 0 0 5.78 1.79c6.934 0 10.724-6.075 10.724-11.343 0-.174-.002-.346-.01-.516a7.894 7.894 0 0 0 1.88-2.064 7.21 7.21 0 0 1-2.164.627z" fill="#B0B5BF" fill-rule="evenodd"/></svg>